<svg width="82" height="82" viewBox="0 0 82 82" fill="none" xmlns="http://www.w3.org/2000/svg">
<path fill-rule="evenodd" clip-rule="evenodd" d="M82 41C82 63.6437 63.6437 82 41 82C18.3563 82 0 63.6437 0 41C0 18.3563 18.3563 0 41 0C63.6437 0 82 18.3563 82 41ZM51.1443 39.307C48.9593 43.5015 46.6198 47.641 44.2803 51.7804C42.2809 55.3182 40.2815 58.8559 38.3786 62.4277C36.1321 56.8352 33.596 51.4153 31.0447 45.9629L31.0447 45.9628L31.0446 45.9626C30.5074 44.8144 29.9694 43.6649 29.4334 42.5119C27.9308 39.282 23.1099 42.8266 24.5338 45.8921C25.0974 47.1059 25.6635 48.3149 26.2286 49.5221L26.2287 49.5223L26.2287 49.5223C29.431 56.3618 32.6043 63.1394 35.1219 70.3565C35.8073 72.3282 39.0546 73.1226 40.3223 70.5247C43.0322 64.9759 46.1041 59.5587 49.176 54.1417L49.176 54.1417C51.5233 50.0025 53.8705 45.8633 56.056 41.6657C57.75 38.4166 52.9764 35.7853 51.1419 39.3034L51.1443 39.307ZM38.3623 62.4689L38.3783 62.4405L38.3927 62.4751L38.3623 62.4689ZM42.7794 10.8709C42.1558 9.33585 40.4059 8.597 38.8709 9.2206C37.3359 9.8442 36.597 11.5941 37.2206 13.1291C42.0346 24.9791 39.1857 36.6298 37.279 40.7367C36.5813 42.2395 37.2339 44.0233 38.7367 44.721C40.2395 45.4187 42.0233 44.7661 42.721 43.2633C45.1476 38.0368 48.3652 24.6207 42.7794 10.8709Z" fill="#0050A0"/>
</svg>
