<svg width="95" height="108" viewBox="0 0 95 108" fill="none" xmlns="http://www.w3.org/2000/svg">
<circle cx="31" cy="77" r="31" fill="#FFD934"/>
<circle cx="81" cy="56" r="14" fill="#FFD934"/>
<path fill-rule="evenodd" clip-rule="evenodd" d="M38.1043 5.17612C39.1305 -1.72537 49.0834 -1.72537 50.1097 5.17612C50.6092 8.53578 53.7688 10.8313 57.1184 10.2683C63.9993 9.1116 67.0749 18.5774 60.8283 21.6861C57.7875 23.1994 56.5806 26.9137 58.1512 29.9254C61.3776 36.112 53.3255 41.9622 48.4386 36.982C46.0597 34.5576 42.1542 34.5576 39.7753 36.982C34.8885 41.9622 26.8364 36.112 30.0627 29.9254C31.6333 26.9137 30.4265 23.1994 27.3856 21.6861C21.139 18.5774 24.2147 9.1116 31.0955 10.2683C34.4451 10.8313 37.6047 8.53578 38.1043 5.17612Z" fill="#FFD934"/>
</svg>
