<svg width="106" height="92" viewBox="0 0 106 92" fill="none" xmlns="http://www.w3.org/2000/svg">
<circle cx="92.5" cy="35.5" r="11.5" fill="#D65938"/>
<circle cx="79" cy="7" r="7" fill="#D65938"/>
<circle cx="89" cy="75" r="17" fill="#D65938"/>
<path fill-rule="evenodd" clip-rule="evenodd" d="M42.5443 16.5301C41.018 10.49 32.4362 10.49 30.9099 16.5301L29.2046 23.2789C28.2885 26.9043 24.3153 28.8176 20.9097 27.2735L14.57 24.399C8.89606 21.8263 3.54541 28.5358 7.31613 33.495L11.5293 39.0362C13.7926 42.0128 12.8113 46.3121 9.48064 48.0119L3.2805 51.1763C-2.26853 54.0083 -0.35889 62.3749 5.86939 62.5189L12.8285 62.6797C16.5668 62.7661 19.3163 66.2139 18.5687 69.8778L17.177 76.6982C15.9314 82.8023 23.6633 86.5258 27.6591 81.7461L32.1238 76.4055C34.5222 73.5366 38.932 73.5367 41.3304 76.4055L45.7951 81.7461C49.7909 86.5258 57.5228 82.8023 56.2772 76.6982L54.8855 69.8777C54.1379 66.2139 56.8874 62.7661 60.6257 62.6797L67.5848 62.5189C73.8131 62.3749 75.7227 54.0083 70.1737 51.1763L63.9735 48.0119C60.6429 46.3121 59.6616 42.0128 61.9249 39.0362L66.1381 33.495C69.9088 28.5358 64.5581 21.8263 58.8842 24.399L52.5445 27.2735C49.1388 28.8177 45.1657 26.9043 44.2496 23.2789L42.5443 16.5301Z" fill="#D65938"/>
</svg>
