<svg width="351" height="51" viewBox="0 0 351 51" fill="none" xmlns="http://www.w3.org/2000/svg">
<path d="M2.3814 11.0371H0V0.208984H7.56773V2.35863H2.3814V11.0371Z" fill="#1D1D1B"/>
<path d="M11.9789 4.24433H14.8398C17.2851 4.24433 18.6436 5.57887 18.6436 7.60065C18.6436 9.81423 17.1093 11.0369 14.6081 11.0369H9.59753V0.20874H17.9084V2.35839H11.9789V4.24433ZM11.9789 6.22616V8.88725H14.6081C15.7188 8.88725 16.2622 8.45572 16.2622 7.51275C16.2622 6.67367 15.7188 6.22616 14.5921 6.22616H11.9789Z" fill="#1D1D1B"/>
<path d="M28.1452 0.199707H30.7264L26.563 8.57455C25.62 10.4605 24.5332 11.2037 23.0228 11.2037C22.0959 11.2037 21.3687 10.9559 20.6894 10.5724L21.6164 8.82228C22.0479 9.08599 22.4794 9.18188 22.903 9.18188C23.3265 9.18188 23.83 8.9821 24.2615 8.31883L19.9302 0.207697H22.5913L25.5321 5.92944L28.1452 0.207697V0.199707Z" fill="#1D1D1B"/>
<path d="M40.3718 2.9248C40.3718 4.26733 39.5806 4.99454 38.6217 5.41807C39.7804 5.78567 40.6515 6.59279 40.6515 7.96729C40.6515 9.83724 39.0612 11.2197 36.536 11.2197C34.2585 11.2197 32.884 10.5884 31.7252 9.40571L32.9958 7.75152C33.8749 8.61458 35.0416 9.12602 36.4481 9.12602C37.455 9.12602 38.2701 8.66252 38.2701 7.82344C38.2701 6.92842 37.3591 6.55283 36.1204 6.55283H34.8658V4.571H36.0884C37.3431 4.571 38.0223 4.13947 38.0223 3.31637C38.0223 2.5572 37.3111 2.10969 36.2722 2.10969C34.9377 2.10969 34.0746 2.5572 33.3474 3.30039L32.0928 1.78205C33.0997 0.727204 34.4023 0 36.456 0C38.7735 0 40.3718 1.22266 40.3718 2.90882V2.9248Z" fill="#1D1D1B"/>
<path d="M47.2123 0.199707H49.5937V4.48302H53.9889V0.199707H56.3703V11.0279H53.9889V6.68062H49.5937V11.0279H47.2123V0.199707Z" fill="#1D1D1B"/>
<path d="M58.8076 5.61823C58.8076 2.54159 61.237 0.0163574 64.5773 0.0163574C67.9177 0.0163574 70.315 2.50963 70.315 5.61823C70.315 8.72683 67.8857 11.2201 64.5453 11.2201C61.205 11.2201 58.8076 8.72683 58.8076 5.61823ZM67.8297 5.61823C67.8297 3.76426 66.4712 2.21395 64.5533 2.21395C62.6354 2.21395 61.3009 3.73229 61.3009 5.61823C61.3009 7.50416 62.6594 9.02251 64.5853 9.02251C66.5112 9.02251 67.8377 7.50416 67.8377 5.61823H67.8297Z" fill="#1D1D1B"/>
<path d="M76.2686 6.95251V6.82465L78.8658 3.35645L80.6638 4.2195L78.65 6.86461L80.6638 9.50971L78.8658 10.4047L76.2686 6.93653V6.95251ZM80.48 6.95251V6.82465L83.0772 3.35645L84.8752 4.2195L82.8614 6.86461L84.8752 9.50971L83.0772 10.4047L80.48 6.93653V6.95251Z" fill="#1D1D1B"/>
<path d="M87.2805 0.199707H89.6619V4.48302H94.0571V0.199707H96.4385V11.0279H94.0571V6.68062H89.6619V11.0279H87.2805V0.199707Z" fill="#1D1D1B"/>
<path d="M98.8759 5.61823C98.8759 2.54159 101.305 0.0163574 104.646 0.0163574C107.986 0.0163574 110.383 2.50963 110.383 5.61823C110.383 8.72683 107.954 11.2201 104.614 11.2201C101.273 11.2201 98.8759 8.72683 98.8759 5.61823ZM107.898 5.61823C107.898 3.76426 106.539 2.21395 104.622 2.21395C102.704 2.21395 101.369 3.73229 101.369 5.61823C101.369 7.50416 102.728 9.02251 104.654 9.02251C106.579 9.02251 107.906 7.50416 107.906 5.61823H107.898Z" fill="#1D1D1B"/>
<path d="M112.813 0.199707H115.194V4.93053L119.589 0.199707H122.466L118.055 4.79468L122.666 11.0279H119.805L116.449 6.4169L115.194 7.71948V11.0279H112.813V0.199707Z" fill="#1D1D1B"/>
<path d="M123.353 5.61823C123.353 2.54159 125.782 0.0163574 129.123 0.0163574C132.463 0.0163574 134.86 2.50963 134.86 5.61823C134.86 8.72683 132.431 11.2201 129.091 11.2201C125.75 11.2201 123.353 8.72683 123.353 5.61823ZM132.375 5.61823C132.375 3.76426 131.017 2.21395 129.099 2.21395C127.181 2.21395 125.846 3.73229 125.846 5.61823C125.846 7.50416 127.205 9.02251 129.131 9.02251C131.057 9.02251 132.383 7.50416 132.383 5.61823H132.375Z" fill="#1D1D1B"/>
<path d="M136.091 8.8862H137.114C137.921 7.01625 138.305 5.17027 138.305 1.47032V0.199707H146.184V8.87821H147.487L147.175 13.2894H145.177V11.0279H138.401L138.249 13.2894H136.099V8.87821L136.091 8.8862ZM140.59 2.35735V3.45215C140.59 5.74564 140.231 7.38385 139.615 8.8862H143.795V2.35735H140.59Z" fill="#1D1D1B"/>
<path d="M149.189 9.54949L151.203 6.90439L149.189 4.25928L150.987 3.36426L153.584 6.83246V6.96032L150.987 10.4285L149.189 9.56548V9.54949ZM153.4 9.54949L155.414 6.90439L153.4 4.25928L155.198 3.36426L157.795 6.83246V6.96032L155.198 10.4285L153.4 9.56548V9.54949Z" fill="#1D1D1B"/>
<path d="M0.231812 18.7881H7.15224V19.8989H1.45447V29.6162H0.231812V18.7881Z" fill="#1D1D1B"/>
<path d="M9.70142 18.7881H17.4689V19.8989H10.9241V23.2232H14.1286C16.43 23.2232 18.2441 24.1982 18.2441 26.3798C18.2441 28.5614 16.6618 29.6162 14.2484 29.6162H9.70142V18.7881ZM14.1605 28.5055C15.9106 28.5055 17.0214 27.8901 17.0214 26.3238C17.0214 24.9653 15.8946 24.31 14.0966 24.31H10.9241V28.5055H14.1605Z" fill="#1D1D1B"/>
<path d="M20.7852 29.3525L21.2647 28.3776C21.6962 28.6093 22.0718 28.7052 22.6392 28.7052C23.3824 28.7052 24.1735 28.2897 24.8048 27.083L20.0421 18.7881H21.4325L25.4282 25.8604L28.8804 18.7881H30.2149L25.9316 27.3467C25.0526 29.1288 23.9018 29.808 22.6232 29.808C21.912 29.808 21.3686 29.6562 20.7932 29.3605L20.7852 29.3525Z" fill="#1D1D1B"/>
<path d="M31.7653 28.058L32.4925 27.211C33.5952 28.2498 34.738 28.7613 36.2963 28.7613C37.6308 28.7613 38.8215 27.9541 38.8215 26.6755C38.8215 25.2691 37.5509 24.6777 35.8967 24.6777H34.706V23.6708H35.8967C37.447 23.6708 38.5418 22.9117 38.5418 21.6251C38.5418 20.5143 37.519 19.6912 36.0965 19.6912C34.8739 19.6912 33.851 20.0588 32.908 20.9139L32.1968 20.0588C33.2836 19.1318 34.4104 18.6204 36.1285 18.6204C38.2781 18.6204 39.7805 19.843 39.7805 21.5132C39.7805 22.9676 38.7896 23.7108 37.7986 24.0624C39.0852 24.446 40.0762 25.2851 40.0762 26.7235C40.0762 28.4416 38.5418 29.8001 36.2883 29.8001C34.4183 29.8001 33.0359 29.2088 31.7732 28.05L31.7653 28.058Z" fill="#1D1D1B"/>
<path d="M47.0285 18.7881H48.2512V23.5988H54.5003V18.7881H55.723V29.6162H54.5003V24.7416H48.2512V29.6162H47.0285V18.7881Z" fill="#1D1D1B"/>
<path d="M58.6559 24.1981C58.6559 21.2093 60.9014 18.5962 64.1938 18.5962C67.4862 18.5962 69.6998 21.1774 69.6998 24.1981C69.6998 27.2188 67.4543 29.7999 64.1619 29.7999C60.8695 29.7999 58.6559 27.2188 58.6559 24.1981ZM68.4372 24.1981C68.4372 21.7368 66.6391 19.723 64.1698 19.723C61.7005 19.723 59.9265 21.7048 59.9265 24.1981C59.9265 26.6913 61.7245 28.6732 64.1938 28.6732C66.6631 28.6732 68.4372 26.6913 68.4372 24.1981Z" fill="#1D1D1B"/>
<path d="M75.9889 25.6673V25.5395L78.4981 22.2471L79.4091 22.7585L77.3234 25.5874L79.4091 28.4483L78.4981 28.9757L75.9889 25.6673ZM79.4411 25.6673V25.5395L81.9504 22.2471L82.8454 22.7585L80.7597 25.5874L82.8454 28.4483L81.9504 28.9757L79.4411 25.6673Z" fill="#1D1D1B"/>
<path d="M85.6584 18.7881H86.881V23.5988H93.1302V18.7881H94.3529V29.6162H93.1302V24.7416H86.881V29.6162H85.6584V18.7881Z" fill="#1D1D1B"/>
<path d="M97.7172 21.6169H98.9079V27.946L103.655 21.6169H104.813V29.6162H103.623V23.2871L98.8599 29.6162H97.7172V21.6169Z" fill="#1D1D1B"/>
<path d="M110.351 25.0372L107.243 21.6169H108.681L112.749 26.2599V21.6169H113.939V26.2599L118.007 21.6169H119.445L116.337 25.0372L119.613 29.6162H118.223L115.562 25.8843L113.939 27.6663V29.6162H112.749V27.6663L111.126 25.8843L108.465 29.6162H107.075L110.351 25.0372Z" fill="#1D1D1B"/>
<path d="M121.092 25.6279C121.092 23.3105 122.714 21.4485 124.927 21.4485C127.293 21.4485 128.659 23.3344 128.659 25.6918C128.659 25.8037 128.659 25.9236 128.643 26.1074H122.298C122.466 27.7935 123.705 28.7685 125.111 28.7685C126.214 28.7685 126.981 28.321 127.636 27.6417L128.38 28.305C127.572 29.2 126.598 29.8073 125.087 29.8073C122.89 29.8073 121.092 28.1212 121.092 25.6279ZM127.453 25.1484C127.317 23.694 126.478 22.4554 124.903 22.4554C123.529 22.4554 122.474 23.5981 122.306 25.1484H127.461H127.453Z" fill="#1D1D1B"/>
<path d="M131.384 21.6169H136.818V22.6718H132.575V29.6162H131.384V21.6169Z" fill="#1D1D1B"/>
<path d="M138.377 25.6279C138.377 23.3664 140.143 21.4485 142.556 21.4485C144.969 21.4485 146.72 23.3344 146.72 25.6279C146.72 27.9214 144.937 29.8073 142.524 29.8073C140.111 29.8073 138.377 27.9214 138.377 25.6279ZM145.497 25.6279C145.497 23.9098 144.21 22.5033 142.524 22.5033C140.838 22.5033 139.599 23.9098 139.599 25.6279C139.599 27.346 140.87 28.7365 142.556 28.7365C144.242 28.7365 145.497 27.346 145.497 25.6279Z" fill="#1D1D1B"/>
<path d="M149.421 21.6165H150.611V23.2227C151.259 22.2638 152.201 21.4407 153.672 21.4407C155.59 21.4407 157.492 22.959 157.492 25.6201C157.492 28.2812 155.606 29.7835 153.672 29.7835C152.186 29.7835 151.227 28.9764 150.611 28.0814V32.093H149.421V21.6165ZM156.277 25.6121C156.277 23.7262 154.974 22.5195 153.464 22.5195C151.954 22.5195 150.571 23.7741 150.571 25.6281C150.571 27.4821 151.978 28.7207 153.464 28.7207C154.951 28.7207 156.277 27.578 156.277 25.6121Z" fill="#1D1D1B"/>
<path d="M159.793 25.6279C159.793 23.3664 161.559 21.4485 163.973 21.4485C166.386 21.4485 168.136 23.3344 168.136 25.6279C168.136 27.9214 166.354 29.8073 163.941 29.8073C161.527 29.8073 159.793 27.9214 159.793 25.6279ZM166.913 25.6279C166.913 23.9098 165.627 22.5033 163.941 22.5033C162.254 22.5033 161.016 23.9098 161.016 25.6279C161.016 27.346 162.286 28.7365 163.973 28.7365C165.659 28.7365 166.913 27.346 166.913 25.6279Z" fill="#1D1D1B"/>
<path d="M169.694 28.5692H170.557C171.205 27.3785 171.628 25.7083 171.628 23.0152V21.6248H177.326V28.5692H178.533L178.349 31.6138H177.358V29.616H170.893L170.677 31.6138H169.702V28.5692H169.694ZM176.135 28.5692V22.6716H172.779V23.7824C172.779 25.7642 172.395 27.5303 171.836 28.5612H176.135V28.5692Z" fill="#1D1D1B"/>
<path d="M180.267 25.6279C180.267 23.3664 182.033 21.4485 184.366 21.4485C185.885 21.4485 186.828 22.0798 187.571 22.8709L186.812 23.678C186.18 23.0148 185.437 22.5033 184.35 22.5033C182.728 22.5033 181.489 23.8778 181.489 25.6279C181.489 27.378 182.76 28.7365 184.43 28.7365C185.453 28.7365 186.212 28.2091 186.844 27.5298L187.635 28.257C186.828 29.1521 185.869 29.8073 184.366 29.8073C182.033 29.8073 180.267 27.9054 180.267 25.6279Z" fill="#1D1D1B"/>
<path d="M190.192 21.6169H191.383V26.2279L195.762 21.6169H197.232L193.892 25.0851L197.328 29.6162H195.922L193.077 25.9482L191.391 27.6823V29.6162H190.2V21.6169H190.192Z" fill="#1D1D1B"/>
<path d="M199.55 21.6169H200.74V27.946L205.487 21.6169H206.646V29.6162H205.455V23.2871L200.692 29.6162H199.55V21.6169Z" fill="#1D1D1B"/>
<path d="M209.675 21.6161H210.865V27.9452L215.612 21.6161H216.771V29.6154H215.58V23.2863L210.817 29.6154H209.675V21.6161ZM211.009 18.5794L211.832 18.4116C212.016 19.0749 212.432 19.4984 213.191 19.4984C213.95 19.4984 214.366 19.0829 214.549 18.4116L215.372 18.5794C215.189 19.6822 214.35 20.4654 213.191 20.4654C212.032 20.4654 211.193 19.6742 211.009 18.5794Z" fill="#1D1D1B"/>
<path d="M223.436 25.6279C223.436 23.3664 225.202 21.4485 227.615 21.4485C230.028 21.4485 231.778 23.3344 231.778 25.6279C231.778 27.9214 229.996 29.8073 227.583 29.8073C225.17 29.8073 223.436 27.9214 223.436 25.6279ZM230.556 25.6279C230.556 23.9098 229.269 22.5033 227.583 22.5033C225.897 22.5033 224.658 23.9098 224.658 25.6279C224.658 27.346 225.929 28.7365 227.615 28.7365C229.301 28.7365 230.556 27.346 230.556 25.6279Z" fill="#1D1D1B"/>
<path d="M234.176 25.3012C234.176 22.7201 234.376 20.2428 237.165 19.5795L241.624 18.5247L241.855 19.5316L237.524 20.6024C235.87 21.0179 235.311 21.9209 235.191 23.4473C235.75 22.5043 236.797 21.7132 238.499 21.7132C240.585 21.7132 242.335 23.4952 242.335 25.6928C242.335 27.8904 240.601 29.8083 238.235 29.8083C235.87 29.8083 234.184 28.0902 234.184 25.3092L234.176 25.3012ZM241.096 25.7168C241.096 24.0466 239.842 22.6961 238.235 22.6961C236.629 22.6961 235.406 24.0386 235.406 25.7168C235.406 27.395 236.661 28.7375 238.267 28.7375C239.874 28.7375 241.096 27.387 241.096 25.7168Z" fill="#1D1D1B"/>
<path d="M243.677 29.6162L243.813 28.5933C243.965 28.6413 244.245 28.7052 244.389 28.7052C245.348 28.7052 246.155 28.2896 246.155 22.2802V21.6169H251.821V29.6162H250.63V22.6718H247.29V22.8556C247.29 29.0888 246.163 29.7441 244.644 29.7441C244.381 29.7441 243.933 29.6801 243.685 29.6242L243.677 29.6162Z" fill="#1D1D1B"/>
<path d="M254.418 27.2663C254.418 25.5482 255.808 24.6532 257.838 24.6532C258.861 24.6532 259.572 24.789 260.283 24.9968V24.7491C260.283 23.3266 259.42 22.5835 257.918 22.5835C256.975 22.5835 256.232 22.8152 255.488 23.1588L255.129 22.1839C256.008 21.7843 256.863 21.5046 258.038 21.5046C259.212 21.5046 260.052 21.8163 260.619 22.3837C261.186 22.9511 261.458 23.7182 261.458 24.7331V29.6238H260.283V28.4331C259.724 29.1443 258.813 29.7916 257.406 29.7916C255.904 29.7916 254.418 28.9445 254.418 27.2663ZM260.299 26.675V25.9318C259.708 25.764 258.941 25.5882 257.966 25.5882C256.479 25.5882 255.632 26.2355 255.632 27.2264C255.632 28.2173 256.559 28.8166 257.646 28.8166C259.117 28.8166 260.307 27.9376 260.307 26.667L260.299 26.675Z" fill="#1D1D1B"/>
<path d="M264.031 25.6279C264.031 23.3664 265.797 21.4485 268.131 21.4485C269.649 21.4485 270.592 22.0798 271.335 22.8709L270.576 23.678C269.945 23.0148 269.202 22.5033 268.115 22.5033C266.493 22.5033 265.254 23.8778 265.254 25.6279C265.254 27.378 266.525 28.7365 268.195 28.7365C269.218 28.7365 269.977 28.2091 270.608 27.5298L271.399 28.257C270.592 29.1521 269.633 29.8073 268.131 29.8073C265.797 29.8073 264.031 27.9054 264.031 25.6279Z" fill="#1D1D1B"/>
<path d="M276.146 22.6718H273.285V21.6169H280.213V22.6718H277.353V29.6162H276.146V22.6718Z" fill="#1D1D1B"/>
<path d="M282.523 21.6169H283.714V25.0692H288.325V21.6169H289.515V29.6162H288.325V26.116H283.714V29.6162H282.523V21.6169Z" fill="#1D1D1B"/>
<path d="M292.256 25.6279C292.256 23.3664 294.022 21.4485 296.436 21.4485C298.849 21.4485 300.599 23.3344 300.599 25.6279C300.599 27.9214 298.817 29.8073 296.404 29.8073C293.99 29.8073 292.256 27.9214 292.256 25.6279ZM299.377 25.6279C299.377 23.9098 298.09 22.5033 296.404 22.5033C294.718 22.5033 293.479 23.9098 293.479 25.6279C293.479 27.346 294.75 28.7365 296.436 28.7365C298.122 28.7365 299.377 27.346 299.377 25.6279Z" fill="#1D1D1B"/>
<path d="M303.324 21.6161H304.515V27.9452L309.262 21.6161H310.42V29.6154H309.23V23.2863L304.467 29.6154H303.324V21.6161ZM304.659 18.5794L305.482 18.4116C305.666 19.0749 306.081 19.4984 306.84 19.4984C307.6 19.4984 308.015 19.0829 308.199 18.4116L309.022 18.5794C308.838 19.6822 307.999 20.4654 306.84 20.4654C305.682 20.4654 304.843 19.6742 304.659 18.5794Z" fill="#1D1D1B"/>
<path d="M0.0319214 40.1807H1.22262V44.7916L5.60183 40.1807H7.07222L3.73188 43.6489L7.16812 48.1799H5.76165L2.91677 44.5119L1.23061 46.246V48.1799H0.0399144V40.1807H0.0319214Z" fill="#1D1D1B"/>
<path d="M8.67847 48.1799L8.81432 47.157C8.96615 47.205 9.24585 47.2689 9.38969 47.2689C10.3486 47.2689 11.1557 46.8534 11.1557 40.8439V40.1807H16.8215V48.1799H15.6309V41.2355H12.2905V41.4193C12.2905 47.6525 11.1637 48.3078 9.6454 48.3078C9.38169 48.3078 8.93418 48.2438 8.68645 48.1879L8.67847 48.1799Z" fill="#1D1D1B"/>
<path d="M20.058 40.1807H21.2487V46.5097L25.9955 40.1807H27.1542V48.1799H25.9635V41.8508L21.2007 48.1799H20.058V40.1807Z" fill="#1D1D1B"/>
<path d="M30.3908 40.1807H31.5815V43.6329H36.1925V40.1807H37.3832V48.1799H36.1925V44.6797H31.5815V48.1799H30.3908V40.1807Z" fill="#1D1D1B"/>
<path d="M40.6195 40.1807H41.8102V46.5097L46.557 40.1807H47.7157V48.1799H46.525V41.8508L41.7623 48.1799H40.6195V40.1807Z" fill="#1D1D1B"/>
<path d="M56.0346 44.8795C55.4593 45.2072 54.3005 45.6067 53.3576 45.6067C51.7753 45.6067 50.7125 44.7836 50.7125 43.2094V40.1807H51.9032V43.0415C51.9032 43.9845 52.4945 44.5759 53.5094 44.5759C54.3565 44.5759 55.3794 44.2642 56.0346 43.8167V40.1807H57.2253V48.1799H56.0346V44.8875V44.8795Z" fill="#1D1D1B"/>
<path d="M59.9664 44.1846C59.9664 41.8671 61.5886 40.0051 63.8022 40.0051C66.1676 40.0051 67.5341 41.8911 67.5341 44.2485C67.5341 44.3604 67.5341 44.4802 67.5181 44.664H61.173C61.3409 46.3502 62.5795 47.3251 63.986 47.3251C65.0888 47.3251 65.8559 46.8776 66.5112 46.1984L67.2544 46.8616C66.4473 47.7566 65.4723 48.364 63.962 48.364C61.7644 48.364 59.9664 46.6778 59.9664 44.1846ZM66.3274 43.7051C66.1916 42.2507 65.3525 41.012 63.7782 41.012C62.4037 41.012 61.3489 42.1548 61.181 43.7051H66.3354H66.3274Z" fill="#1D1D1B"/>
<path d="M69.7077 44.1846C69.7077 41.923 71.4738 40.0051 73.8072 40.0051C75.3256 40.0051 76.2685 40.6364 77.0117 41.4276L76.2525 42.2347C75.6212 41.5714 74.878 41.06 73.7912 41.06C72.169 41.06 70.9304 42.4345 70.9304 44.1846C70.9304 45.9346 72.201 47.2932 73.8712 47.2932C74.894 47.2932 75.6532 46.7657 76.2845 46.0865L77.0756 46.8137C76.2685 47.7087 75.3096 48.364 73.8072 48.364C71.4738 48.364 69.7077 46.4621 69.7077 44.1846Z" fill="#1D1D1B"/>
<path d="M79.6089 40.1807H80.7996V44.7916L85.1789 40.1807H86.6492L83.3089 43.6489L86.7451 48.1799H85.3387L82.4938 44.5119L80.8076 46.246V48.1799H79.6169V40.1807H79.6089Z" fill="#1D1D1B"/>
<path d="M88.9586 40.1807H90.1493V46.5097L94.8961 40.1807H96.0549V48.1799H94.8642V41.8508L90.1014 48.1799H88.9586V40.1807Z" fill="#1D1D1B"/>
<path d="M99.3234 40.1803H100.514V46.5094L105.261 40.1803H106.42V48.1796H105.229V41.8505L100.466 48.1796H99.3234V40.1803ZM100.658 37.1437L101.481 36.9758C101.665 37.6391 102.08 38.0626 102.84 38.0626C103.599 38.0626 104.014 37.6471 104.198 36.9758L105.021 37.1437C104.837 38.2464 103.998 39.0296 102.84 39.0296C101.681 39.0296 100.842 38.2385 100.658 37.1437Z" fill="#1D1D1B"/>
<path d="M113.084 44.1846C113.084 41.923 114.85 40.0051 117.264 40.0051C119.677 40.0051 121.427 41.8911 121.427 44.1846C121.427 46.478 119.645 48.364 117.232 48.364C114.818 48.364 113.084 46.478 113.084 44.1846ZM120.204 44.1846C120.204 42.4664 118.918 41.06 117.232 41.06C115.546 41.06 114.307 42.4664 114.307 44.1846C114.307 45.9027 115.578 47.2932 117.264 47.2932C118.95 47.2932 120.204 45.9027 120.204 44.1846Z" fill="#1D1D1B"/>
<path d="M124.168 40.1807H125.359V43.6329H129.97V40.1807H131.16V48.1799H129.97V44.6797H125.359V48.1799H124.168V40.1807Z" fill="#1D1D1B"/>
<path d="M134.397 40.1807H135.588V44.7916L139.967 40.1807H141.437L138.097 43.6489L141.533 48.1799H140.127L137.282 44.5119L135.596 46.246V48.1799H134.405V40.1807H134.397Z" fill="#1D1D1B"/>
<path d="M142.94 44.1846C142.94 41.923 144.706 40.0051 147.119 40.0051C149.532 40.0051 151.282 41.8911 151.282 44.1846C151.282 46.478 149.5 48.364 147.087 48.364C144.674 48.364 142.94 46.478 142.94 44.1846ZM150.06 44.1846C150.06 42.4664 148.773 41.06 147.087 41.06C145.401 41.06 144.162 42.4664 144.162 44.1846C144.162 45.9027 145.433 47.2932 147.119 47.2932C148.805 47.2932 150.06 45.9027 150.06 44.1846Z" fill="#1D1D1B"/>
<path d="M152.641 48.1799L152.777 47.157C152.929 47.205 153.208 47.2689 153.352 47.2689C154.311 47.2689 155.118 46.8534 155.118 40.8439V40.1807H160.784V48.1799H159.593V41.2355H156.253V41.4193C156.253 47.6525 155.126 48.3078 153.608 48.3078C153.344 48.3078 152.897 48.2438 152.649 48.1879L152.641 48.1799Z" fill="#1D1D1B"/>
<path d="M163.509 44.1846C163.509 41.923 165.275 40.0051 167.689 40.0051C170.102 40.0051 171.852 41.8911 171.852 44.1846C171.852 46.478 170.07 48.364 167.657 48.364C165.243 48.364 163.509 46.478 163.509 44.1846ZM170.629 44.1846C170.629 42.4664 169.343 41.06 167.657 41.06C165.97 41.06 164.732 42.4664 164.732 44.1846C164.732 45.9027 166.002 47.2932 167.689 47.2932C169.375 47.2932 170.629 45.9027 170.629 44.1846Z" fill="#1D1D1B"/>
<path d="M174.561 40.1807H179.995V41.2355H175.752V48.1799H174.561V40.1807Z" fill="#1D1D1B"/>
<path d="M182.281 40.1807H183.471V46.5097L188.218 40.1807H189.377V48.1799H188.186V41.8508L183.423 48.1799H182.281V40.1807Z" fill="#1D1D1B"/>
<path d="M197.68 44.8795C197.104 45.2072 195.946 45.6067 195.003 45.6067C193.42 45.6067 192.358 44.7836 192.358 43.2094V40.1807H193.548V43.0415C193.548 43.9845 194.14 44.5759 195.154 44.5759C196.002 44.5759 197.024 44.2642 197.68 43.8167V40.1807H198.87V48.1799H197.68V44.8875V44.8795Z" fill="#1D1D1B"/>
<path d="M201.596 44.1846C201.596 41.8671 203.218 40.0051 205.431 40.0051C207.797 40.0051 209.163 41.8911 209.163 44.2485C209.163 44.3604 209.163 44.4802 209.147 44.664H202.802C202.97 46.3502 204.209 47.3251 205.615 47.3251C206.718 47.3251 207.485 46.8776 208.14 46.1984L208.884 46.8616C208.076 47.7566 207.101 48.364 205.591 48.364C203.394 48.364 201.596 46.6778 201.596 44.1846ZM207.957 43.7051C207.821 42.2507 206.982 41.012 205.407 41.012C204.033 41.012 202.978 42.1548 202.81 43.7051H207.965H207.957Z" fill="#1D1D1B"/>
<path d="M211.321 44.1846C211.321 41.923 213.087 40.0051 215.42 40.0051C216.939 40.0051 217.882 40.6364 218.625 41.4276L217.866 42.2347C217.234 41.5714 216.491 41.06 215.404 41.06C213.782 41.06 212.543 42.4345 212.543 44.1846C212.543 45.9346 213.814 47.2932 215.484 47.2932C216.507 47.2932 217.266 46.7657 217.898 46.0865L218.689 46.8137C217.882 47.7087 216.923 48.364 215.42 48.364C213.087 48.364 211.321 46.4621 211.321 44.1846Z" fill="#1D1D1B"/>
<path d="M221.206 40.1807H222.397V44.7916L226.776 40.1807H228.246L224.906 43.6489L228.342 48.1799H226.936L224.091 44.5119L222.405 46.246V48.1799H221.214V40.1807H221.206Z" fill="#1D1D1B"/>
<path d="M230.54 40.1807H231.73V46.5097L236.477 40.1807H237.636V48.1799H236.445V41.8508L231.683 48.1799H230.54V40.1807Z" fill="#1D1D1B"/>
<path d="M240.912 40.1803H242.103V46.5094L246.85 40.1803H248.009V48.1796H246.818V41.8505L242.055 48.1796H240.912V40.1803ZM242.247 37.1437L243.07 36.9758C243.254 37.6391 243.669 38.0626 244.429 38.0626C245.188 38.0626 245.603 37.6471 245.787 36.9758L246.61 37.1437C246.426 38.2464 245.587 39.0296 244.429 39.0296C243.27 39.0296 242.431 38.2385 242.247 37.1437Z" fill="#1D1D1B"/>
<path d="M253.994 47.1251H254.857C255.504 45.9344 255.928 44.2642 255.928 41.5711V40.1807H261.626V47.1251H262.832L262.649 50.1697H261.658V48.1719H255.193L254.977 50.1697H254.002V47.1251H253.994ZM260.435 47.1251V41.2275H257.079V42.3383C257.079 44.3201 256.695 46.0862 256.136 47.1171H260.435V47.1251Z" fill="#1D1D1B"/>
<path d="M265.158 40.1807H266.349V46.5097L271.095 40.1807H272.254V48.1799H271.063V41.8508L266.301 48.1799H265.158V40.1807Z" fill="#1D1D1B"/>
<path d="M275.003 44.1846C275.003 41.923 276.769 40.0051 279.103 40.0051C280.621 40.0051 281.564 40.6364 282.307 41.4276L281.548 42.2347C280.917 41.5714 280.173 41.06 279.087 41.06C277.464 41.06 276.226 42.4345 276.226 44.1846C276.226 45.9346 277.496 47.2932 279.167 47.2932C280.189 47.2932 280.949 46.7657 281.58 46.0865L282.371 46.8137C281.564 47.7087 280.605 48.364 279.103 48.364C276.769 48.364 275.003 46.4621 275.003 44.1846Z" fill="#1D1D1B"/>
<path d="M284.904 40.1807H291.833V48.1799H290.642V41.2355H286.095V48.1799H284.904V40.1807Z" fill="#1D1D1B"/>
<path d="M294.47 45.8303C294.47 44.1122 295.86 43.2172 297.89 43.2172C298.913 43.2172 299.624 43.353 300.335 43.5608V43.3131C300.335 41.8906 299.472 41.1474 297.97 41.1474C297.027 41.1474 296.284 41.3792 295.541 41.7228L295.181 40.7479C296.06 40.3483 296.915 40.0686 298.09 40.0686C299.265 40.0686 300.104 40.3803 300.671 40.9476C301.238 41.515 301.51 42.2822 301.51 43.2971V48.1877H300.335V46.997C299.776 47.7082 298.865 48.3555 297.459 48.3555C295.956 48.3555 294.47 47.5085 294.47 45.8303ZM300.351 45.2389V44.4958C299.76 44.3279 298.993 44.1521 298.018 44.1521C296.532 44.1521 295.685 44.7994 295.685 45.7903C295.685 46.7813 296.612 47.3806 297.698 47.3806C299.169 47.3806 300.359 46.5016 300.359 45.231L300.351 45.2389Z" fill="#1D1D1B"/>
<path d="M304.611 40.1807H305.802V43.6329H310.413V40.1807H311.603V48.1799H310.413V44.6797H305.802V48.1799H304.611V40.1807Z" fill="#1D1D1B"/>
<path d="M314.344 44.1846C314.344 41.923 316.11 40.0051 318.444 40.0051C319.962 40.0051 320.905 40.6364 321.648 41.4276L320.889 42.2347C320.258 41.5714 319.514 41.06 318.428 41.06C316.805 41.06 315.567 42.4345 315.567 44.1846C315.567 45.9346 316.837 47.2932 318.508 47.2932C319.53 47.2932 320.29 46.7657 320.921 46.0865L321.712 46.8137C320.905 47.7087 319.946 48.364 318.444 48.364C316.11 48.364 314.344 46.4621 314.344 44.1846Z" fill="#1D1D1B"/>
<path d="M323.59 44.1846C323.59 41.8671 325.212 40.0051 327.426 40.0051C329.791 40.0051 331.158 41.8911 331.158 44.2485C331.158 44.3604 331.158 44.4802 331.142 44.664H324.797C324.965 46.3502 326.203 47.3251 327.61 47.3251C328.713 47.3251 329.48 46.8776 330.135 46.1984L330.878 46.8616C330.071 47.7566 329.096 48.364 327.586 48.364C325.388 48.364 323.59 46.6778 323.59 44.1846ZM329.951 43.7051C329.815 42.2507 328.976 41.012 327.394 41.012C326.019 41.012 324.965 42.1548 324.797 43.7051H329.951Z" fill="#1D1D1B"/>
<path d="M333.851 40.1809H335.042V41.7872C335.689 40.8282 336.632 40.0051 338.102 40.0051C340.02 40.0051 341.922 41.5235 341.922 44.1846C341.922 46.8456 340.036 48.348 338.102 48.348C336.616 48.348 335.657 47.5409 335.042 46.6459V50.6575H333.851V40.1809ZM340.707 44.1766C340.707 42.2906 339.405 41.0839 337.894 41.0839C336.384 41.0839 335.002 42.3386 335.002 44.1926C335.002 46.0465 336.408 47.2852 337.894 47.2852C339.381 47.2852 340.707 46.1424 340.707 44.1766Z" fill="#1D1D1B"/>
<path d="M344.144 47.0365L346.229 44.1916L344.144 41.3468L345.039 40.8193L347.548 44.1117V44.2396L345.039 47.548L344.144 47.0365ZM347.58 47.0365L349.665 44.1916L347.58 41.3468L348.491 40.8193L351 44.1117V44.2396L348.491 47.548L347.58 47.0365Z" fill="#1D1D1B"/>
</svg>
