<svg width="64" height="64" viewBox="0 0 64 64" fill="none" xmlns="http://www.w3.org/2000/svg">
<path d="M58.4968 37.8045C58.8088 39.0332 58.6175 40.3085 57.9589 41.395C57.3014 42.4815 56.2559 43.2493 55.0154 43.5576C54.6262 43.6536 54.232 43.7014 53.8417 43.7014C53.5803 43.7014 53.3216 43.6728 53.0652 43.6305C53.0757 44.4787 52.8725 45.3393 52.401 46.1185C51.7435 47.2057 50.6967 47.9735 49.4562 48.2814C49.0669 48.3781 48.6741 48.4256 48.2838 48.4256C48.0221 48.4256 47.763 48.397 47.5059 48.3544C47.5165 49.2023 47.3133 50.0625 46.8418 50.8421C45.9439 52.3237 44.353 53.1466 42.7243 53.1466C42.4658 53.1466 42.2071 53.1183 41.949 53.0763C41.9589 53.9317 41.7491 54.7942 41.2806 55.5669C40.6231 56.6528 39.5776 57.4206 38.3371 57.7288C37.9492 57.8255 37.555 57.873 37.1647 57.873C36.3079 57.873 35.4643 57.6436 34.7117 57.1967L30.6333 54.4645L28.3296 56.7452C27.3959 57.6696 26.1689 58.1318 24.9422 58.1318C23.7159 58.1318 22.4886 57.6696 21.5549 56.7459C20.5866 55.7866 20.131 54.5149 20.1675 53.2556C20.1201 53.2569 20.0747 53.2693 20.0274 53.2693C18.7485 53.2693 17.5455 52.7752 16.6407 51.8794C15.7359 50.9837 15.2368 49.793 15.2368 48.5259C15.2368 48.479 15.2493 48.4344 15.2507 48.3876C15.2046 48.3889 15.1593 48.4006 15.1132 48.4006C13.8869 48.4006 12.6596 47.9384 11.7259 47.0133C10.756 46.0538 10.301 44.7821 10.3385 43.5214C10.2918 43.5227 10.2457 43.5348 10.1991 43.5348C8.97207 43.5348 7.74542 43.0726 6.8117 42.1482C5.90692 41.2524 5.4085 40.0618 5.4085 38.7947C5.4085 37.9389 5.65311 37.1262 6.07986 36.4068C-9.57985 18.6157 7.21978 -1.49616 31.3651 8.80057L35.9187 7.37719C55.7032 0.832656 73.7107 20.9579 58.048 36.705C58.2361 37.0507 58.3975 37.4129 58.4968 37.8045ZM22.8512 14.1927C22.146 14.4134 21.5726 14.8938 21.237 15.5461C20.9009 16.1977 20.8454 16.9388 21.0791 17.6331C21.4822 18.8329 22.653 19.6007 23.923 19.4748L33.469 18.6158C34.1946 18.5552 34.8163 19.064 34.8958 19.769C35.1552 22.0813 36.017 23.6876 37.4567 24.5446C40.6418 26.4435 45.793 24.458 45.8443 24.4372C46.5173 24.1723 47.2827 24.4984 47.5526 25.1657C47.8209 25.8326 47.4934 26.589 46.8195 26.8559C46.705 26.9012 45.431 27.3956 43.6731 27.7077L56.6981 34.4682C69.9171 20.4214 52.0333 3.78907 36.7094 9.85972L22.8512 14.1927ZM11.7249 40.3072L13.3645 38.6837C14.2055 37.8494 14.2048 36.4941 13.3632 35.6605C12.942 35.2435 12.389 35.0355 11.8363 35.0355C11.2827 35.0355 10.73 35.2435 10.3089 35.6605L8.67092 37.2821C8.26324 37.6864 8.03836 38.2237 8.03836 38.7943C8.03836 39.3659 8.26258 39.9023 8.67092 40.3066C9.51225 41.1415 10.8819 41.1402 11.7249 40.3072ZM16.6397 45.1723L19.9159 41.9288C20.3243 41.5246 20.5492 40.9878 20.5492 40.4163C20.5492 39.8453 20.3236 39.3083 19.9159 38.904C19.4948 38.4877 18.9418 38.2791 18.3885 38.2791C17.8355 38.2791 17.2821 38.4877 16.861 38.9047L15.223 40.5263L13.5851 42.1479C12.7431 42.9818 12.7431 44.3378 13.5851 45.172C14.4271 46.0066 15.7974 46.0066 16.6397 45.1723ZM21.5522 50.0397L21.5536 50.0384L26.47 45.1717C27.311 44.3375 27.311 42.9824 26.4694 42.1485C26.0482 41.7322 25.4952 41.5236 24.9419 41.5236C24.3882 41.5236 23.8356 41.7322 23.4144 42.1485L21.7765 43.7701L18.5002 47.0136C18.0926 47.4179 17.867 47.9553 17.867 48.5259C17.867 49.0974 18.0919 49.6339 18.5002 50.0378C19.3149 50.8463 20.7356 50.8463 21.5522 50.0397ZM33.0218 48.4165C33.8645 47.5823 33.8645 46.2256 33.0218 45.3917C32.1782 44.5578 30.8079 44.5604 29.9665 45.3917L28.3286 47.0133L23.4138 51.8791C22.5721 52.7133 22.5721 54.07 23.4138 54.9039C24.2561 55.7365 25.6264 55.7365 26.469 54.9039L33.0218 48.4165ZM38.7251 51.6447L35.2674 49.7898C35.1434 49.9486 35.0287 50.112 34.8817 50.2575L32.526 52.5896L36.1235 55.0012C36.5588 55.2561 37.1394 55.3407 37.6967 55.2027C38.2566 55.0634 38.728 54.7177 39.0246 54.2275C39.5266 53.3975 39.4027 52.339 38.7251 51.6447ZM55.9462 38.4369C55.8061 37.8833 55.4557 37.4165 54.9612 37.1229L47.0115 32.4078C46.9838 32.3912 46.9687 32.3639 46.9427 32.3457L37.6365 27.5157C37.5786 27.4858 37.5247 27.4535 37.4747 27.4174C37.0059 27.2514 36.5489 27.0424 36.111 26.7824C34.2281 25.6653 33.0106 23.8315 32.483 21.3203L24.1617 22.0689C21.669 22.2851 19.3758 20.8076 18.5841 18.4573C18.1258 17.0961 18.2356 15.6424 18.8938 14.3639C19.5526 13.0847 20.6771 12.1427 22.0595 11.7098L27.8133 9.85972C7.76177 3.86915 -4.7027 19.769 7.84241 34.42L8.44932 33.8192C10.3174 31.9704 13.3566 31.971 15.2234 33.8192C15.8737 34.463 16.2827 35.2504 16.4803 36.0774C18.232 35.3252 20.346 35.6465 21.7761 37.0627C22.4126 37.6929 22.8351 38.4734 23.0373 39.3194C24.7884 38.5694 26.9004 38.8923 28.3289 40.3069C28.9792 40.9507 29.3886 41.7384 29.5861 42.5652C31.3378 41.8129 33.4522 42.1349 34.882 43.5498C35.9305 44.5884 36.3684 45.9906 36.2395 47.3496L36.2435 47.3509L41.5732 50.211C42.6444 50.8447 43.9736 50.515 44.5861 49.5033C45.1976 48.492 44.8649 47.1761 43.8424 46.57L39.8675 44.2128C39.2449 43.8437 39.0417 43.0436 39.4155 42.4271C39.788 41.8094 40.5945 41.6102 41.2185 41.9789L47.1811 45.5148C47.6769 45.8097 48.2588 45.8956 48.8161 45.755C49.376 45.6163 49.8488 45.27 50.1453 44.7798C50.4406 44.2903 50.5267 43.7148 50.3866 43.1611C50.2466 42.6068 49.8961 42.1404 49.402 41.8468L43.44 38.31C42.8173 37.9399 42.6141 37.1408 42.9879 36.5237C43.2684 36.0615 43.7915 35.833 44.2988 35.9036C44.4684 35.9271 44.6354 35.9834 44.7913 36.0761L50.7529 39.6126L52.7393 40.7912C53.2338 41.0842 53.8144 41.172 54.3753 41.0308C54.9352 40.8921 55.4067 40.5458 55.7032 40.0563C56.0001 39.5661 56.0863 38.9913 55.9462 38.4369Z" fill="black"/>
</svg>
