<svg width="342" height="303" viewBox="0 0 342 303" fill="none" xmlns="http://www.w3.org/2000/svg">
<path d="M188.986 71.7581C81.5407 30.5223 22.2676 106.324 6.06169 149.379C-29.7939 317.961 98.4354 318.567 258.266 286.427C418.097 254.287 323.293 123.303 188.986 71.7581Z" fill="#E6F5FF"/>
<path d="M313.933 3.65593C311.634 1.25724 308.674 0 305.332 0H304.505C298.17 0 292.96 4.99589 292.646 11.3648V11.431C292.001 28.4369 288.577 41.4063 281.878 52.2583C276.734 60.5627 269.423 67.7919 262.228 74.7563C242.661 55.3683 214.509 44.3509 184.157 44.3509C153.806 44.3509 125.588 55.3683 106.02 74.7563C98.8088 67.7919 91.5144 60.5627 86.3704 52.2583C79.6715 41.4063 76.2476 28.4369 75.6191 11.4475C75.3875 5.02897 70.1938 0 63.7431 0H62.9161C59.5418 0 56.5976 1.27379 54.3647 3.67248C52.0821 5.98845 50.9408 8.96613 51.0566 12.3243C52.843 57.37 71.5832 75.5504 89.7115 93.1187L91.0844 94.4421C84.9148 105.724 81.6729 118.181 81.6729 130.687C81.6729 147.66 87.5117 164.103 98.5276 178.198C109.147 191.779 124.016 202.532 141.549 209.314C146.627 211.266 149.786 215.832 149.786 221.225V231.73C149.786 234.922 150.398 237.867 151.655 240.696L156.601 251.961C157.362 253.88 157.693 255.386 157.693 257.156V272.375C157.693 275.055 159.859 277.222 162.539 277.222H205.776C208.455 277.222 210.622 275.055 210.622 272.375V257.156C210.622 255.253 210.936 253.765 211.697 252.011L216.593 240.712C217.867 237.851 218.479 234.922 218.479 231.73V221.225C218.479 215.832 221.638 211.266 226.732 209.314C244.249 202.548 259.118 191.796 269.737 178.214C280.77 164.103 286.592 147.676 286.592 130.704C286.592 118.197 283.35 105.757 277.181 94.4587L278.438 93.251C287.551 84.4338 296.963 75.3188 304.141 62.9283C312.23 48.9332 316.381 32.8703 317.208 12.3739C317.407 9.11501 316.282 6.10425 313.95 3.67248L313.933 3.65593Z" fill="#F28D75"/>
<path d="M313.933 3.65593C311.634 1.25724 308.673 0 305.332 0H304.505C303.612 0 302.735 0.0992565 301.892 0.297769C302.603 0.777506 303.248 1.33996 303.86 1.98512C306.176 4.44998 307.317 7.49383 307.119 10.8024C306.292 31.58 302.14 47.8745 294.052 62.0681C286.89 74.624 277.462 83.8713 268.348 92.8044C267.62 93.5323 267.438 94.6241 267.901 95.5174C273.558 106.551 276.535 118.644 276.535 130.77C276.535 147.991 270.697 164.649 259.681 178.942C249.062 192.722 234.192 203.624 216.676 210.489C211.581 212.474 208.422 217.106 208.422 222.565V233.219C208.422 236.461 207.81 239.439 206.536 242.334L201.64 253.781C200.929 255.435 200.565 257.205 200.565 258.992V274.426C200.565 275.452 200.251 276.411 199.722 277.206H205.775C208.455 277.206 210.622 275.038 210.622 272.359V257.139C210.622 255.237 210.936 253.748 211.697 251.995L216.593 240.696C217.867 237.834 218.478 234.906 218.478 231.713V221.209C218.478 215.816 221.638 211.25 226.732 209.298C244.248 202.532 259.118 191.779 269.737 178.198C280.77 164.087 286.592 147.66 286.592 130.687C286.592 118.181 283.35 105.741 277.18 94.4421L278.437 93.2345C287.551 84.4173 296.963 75.3022 304.141 62.9118C312.23 48.9167 316.398 32.8537 317.208 12.3574C317.407 9.09847 316.282 6.0877 313.95 3.65593H313.933Z" fill="#EE765E"/>
<path d="M66.3399 10.7031C67.0842 29.3632 71.0208 43.623 78.7452 55.5337C83.3599 62.6306 89.5957 69.1153 96.0464 75.2361C98.8914 77.9325 103.374 77.7175 105.971 74.7894L106.02 74.7398C104.647 73.4495 103.357 72.1757 102.1 70.9184C96.2449 65.112 90.5716 59.0573 86.3703 52.2583C79.6714 41.4063 76.2476 28.4368 75.619 11.4475C75.3875 5.02897 70.1938 0 63.743 0H63.313C62.2544 0 61.2454 0.0992538 60.2695 0.314308C63.8092 2.56411 66.1745 6.33584 66.3399 10.7031Z" fill="#EE765E"/>
<path d="M184.141 59.1899C135.826 59.1899 96.4929 91.2662 96.4929 130.671C96.4929 146.816 102.911 162.052 115.035 174.724C126.58 186.784 142.856 195.65 160.901 199.687C166.806 200.977 170.925 206.105 170.925 212.143V277.206H197.34V212.143C197.34 206.089 201.425 200.961 207.33 199.687C225.343 195.65 241.635 186.784 253.18 174.724C265.304 162.052 271.722 146.816 271.722 130.671C271.722 91.2497 232.439 59.1899 184.157 59.1899H184.141Z" fill="#FFD934"/>
<path d="M271.573 134.823C271.656 133.45 271.722 132.06 271.722 130.687C271.722 91.2662 232.439 59.2065 184.141 59.2065C135.843 59.2065 96.4929 91.2828 96.4929 130.687C96.4929 132.077 96.5425 133.467 96.6418 134.84H96.7079C116.292 134.84 120.758 124.252 140.424 124.252C160.091 124.252 164.474 134.823 184.141 134.823C203.807 134.823 208.19 124.252 227.857 124.252C247.523 124.252 251.907 134.823 271.573 134.823Z" fill="#D65938"/>
<path d="M258.292 132.888C257.597 148.008 251.262 162.251 239.816 174.195C228.271 186.254 211.995 195.121 193.966 199.158C188.077 200.448 183.975 205.576 183.975 211.631V276.693H170.925V277.239H197.34V212.177C197.34 206.122 201.426 200.994 207.331 199.72C225.343 195.684 241.635 186.817 253.181 174.757C264.263 163.177 270.564 149.463 271.573 134.84C266.214 134.84 261.997 134.046 258.292 132.904V132.888Z" fill="#FDC502"/>
<path d="M271.574 134.823C271.656 133.45 271.723 132.06 271.723 130.687C271.723 91.2662 232.439 59.2065 184.141 59.2065C183.364 59.2065 182.57 59.2065 181.809 59.2396C224.913 63.6731 258.358 93.7973 258.358 130.175C258.358 131.101 258.341 132.011 258.292 132.921C261.997 134.062 266.215 134.856 271.574 134.856V134.823Z" fill="#D65938"/>
<path d="M145.618 155.716C147.984 155.716 149.952 153.797 149.952 151.382C149.952 148.967 147.984 147.114 145.618 147.114C143.253 147.114 141.285 149.033 141.285 151.382C141.285 153.731 143.253 155.716 145.618 155.716Z" fill="#FDC502"/>
<path d="M184.141 155.716C186.506 155.716 188.408 153.797 188.408 151.382C188.408 148.967 186.49 147.114 184.141 147.114C181.792 147.114 179.807 149.033 179.807 151.382C179.807 153.731 181.71 155.716 184.141 155.716Z" fill="#FDC502"/>
<path d="M222.597 155.716C225.028 155.716 226.931 153.797 226.931 151.382C226.931 148.967 225.012 147.114 222.597 147.114C220.182 147.114 218.33 149.033 218.33 151.382C218.33 153.731 220.248 155.716 222.597 155.716Z" fill="#FDC502"/>
<path d="M165.335 169.861C167.766 169.861 169.668 171.829 169.668 174.195C169.668 176.56 167.749 178.529 165.335 178.529C162.92 178.529 161.067 176.56 161.067 174.195C161.067 171.829 162.986 169.861 165.335 169.861ZM202.898 169.861C205.263 169.861 207.231 171.829 207.231 174.195C207.231 176.56 205.263 178.529 202.898 178.529C200.533 178.529 198.564 176.56 198.564 174.195C198.564 171.829 200.483 169.861 202.898 169.861Z" fill="#FDC502"/>
</svg>
