<svg width="178" height="38" viewBox="0 0 178 38" fill="none" xmlns="http://www.w3.org/2000/svg">
<path d="M42.6396 23.183C42.867 24.0786 42.7275 25.0082 42.2475 25.8002C41.7682 26.5922 41.0061 27.1518 40.1019 27.3765C39.8182 27.4465 39.5309 27.4814 39.2464 27.4814C39.0559 27.4814 38.8673 27.4605 38.6803 27.4297C38.688 28.048 38.5399 28.6753 38.1962 29.2433C37.7169 30.0357 36.9539 30.5954 36.0497 30.8199C35.766 30.8903 35.4796 30.925 35.1951 30.925C35.0043 30.925 34.8155 30.9041 34.6281 30.873C34.6358 31.4911 34.4877 32.1181 34.144 32.6864C33.4895 33.7664 32.3299 34.3661 31.1426 34.3661C30.9543 34.3661 30.7657 34.3455 30.5775 34.3149C30.5847 34.9384 30.4318 35.5672 30.0903 36.1304C29.611 36.9219 28.8489 37.4816 27.9447 37.7063C27.662 37.7767 27.3746 37.8114 27.0902 37.8114C26.4656 37.8114 25.8507 37.6441 25.3021 37.3184L22.3293 35.3268L20.65 36.9893C19.9694 37.6631 19.0751 38 18.1809 38C17.287 38 16.3924 37.6631 15.7118 36.9898C15.006 36.2906 14.6739 35.3636 14.7005 34.4456C14.666 34.4466 14.6329 34.4556 14.5984 34.4556C13.6662 34.4556 12.7893 34.0954 12.1298 33.4425C11.4703 32.7896 11.1065 31.9217 11.1065 30.998C11.1065 30.9639 11.1156 30.9314 11.1165 30.8972C11.083 30.8982 11.0499 30.9067 11.0164 30.9067C10.1225 30.9067 9.22785 30.5698 8.54724 29.8955C7.84028 29.1961 7.5086 28.2691 7.53592 27.3502C7.50189 27.3511 7.46834 27.3599 7.43431 27.3599C6.53994 27.3599 5.6458 27.023 4.9652 26.3492C4.30568 25.6963 3.94237 24.8284 3.94237 23.9047C3.94237 23.281 4.12067 22.6885 4.43174 22.1642C-6.98296 9.19588 5.26266 -5.46411 22.8627 2.04139L26.1819 1.00387C40.6033 -3.76659 53.7293 10.9031 42.3125 22.3815C42.4496 22.6335 42.5672 22.8976 42.6396 23.183ZM16.6568 5.97181C16.1427 6.13267 15.7248 6.48286 15.4801 6.95833C15.2352 7.43332 15.1947 7.97356 15.365 8.47963C15.6589 9.35416 16.5122 9.91386 17.438 9.82204L24.3962 9.19591C24.9252 9.15178 25.3783 9.52262 25.4363 10.0365C25.6254 11.722 26.2535 12.8929 27.303 13.5176C29.6247 14.9017 33.3795 13.4545 33.4169 13.4393C33.9075 13.2462 34.4654 13.4839 34.6621 13.9703C34.8577 14.4564 34.619 15.0078 34.1277 15.2023C34.0443 15.2353 33.1157 15.5957 31.8343 15.8232L41.3285 20.7511C50.9641 10.512 37.9282 -1.61159 26.7582 2.81343L16.6568 5.97181ZM8.54653 25.0073L9.74166 23.8238C10.3547 23.2157 10.3542 22.2278 9.7407 21.6202C9.43371 21.3162 9.03062 21.1646 8.62777 21.1646C8.2242 21.1646 7.82135 21.3162 7.51435 21.6202L6.32042 22.8022C6.02325 23.0969 5.85933 23.4886 5.85933 23.9045C5.85933 24.3211 6.02277 24.7121 6.32042 25.0068C6.93368 25.6154 7.93206 25.6144 8.54653 25.0073ZM12.129 28.5536L14.5172 26.1893C14.8148 25.8946 14.9787 25.5034 14.9787 25.0868C14.9787 24.6706 14.8143 24.2791 14.5172 23.9844C14.2102 23.681 13.8071 23.5289 13.4037 23.5289C13.0007 23.5289 12.5973 23.681 12.2903 23.9849L11.0964 25.1669L9.90246 26.349C9.28872 26.9568 9.28872 27.9452 9.90246 28.5533C10.5162 29.1617 11.5151 29.1617 12.129 28.5536ZM15.7099 32.1015L15.7109 32.1006L19.2946 28.5531C19.9076 27.945 19.9076 26.9573 19.2941 26.3494C18.9871 26.046 18.584 25.8939 18.1807 25.8939C17.7771 25.8939 17.3743 26.046 17.0673 26.3494L15.8733 27.5315L13.4852 29.8957C13.1881 30.1904 13.0237 30.5821 13.0237 30.998C13.0237 31.4147 13.1876 31.8057 13.4852 32.1001C14.0791 32.6894 15.1146 32.6894 15.7099 32.1015ZM24.0703 30.9183C24.6845 30.3102 24.6845 29.3213 24.0703 28.7135C23.4554 28.1056 22.4565 28.1075 21.8433 28.7135L20.6493 29.8955L17.0668 33.4423C16.4533 34.0504 16.4533 35.0393 17.0668 35.6471C17.6808 36.254 18.6796 36.254 19.2939 35.6471L24.0703 30.9183ZM28.2275 33.2714L25.7071 31.9193C25.6168 32.0351 25.5332 32.1542 25.426 32.2603L23.7089 33.9602L26.3312 35.718C26.6485 35.9038 27.0717 35.9655 27.4779 35.8649C27.886 35.7634 28.2297 35.5114 28.4459 35.1541C28.8118 34.5491 28.7214 33.7775 28.2275 33.2714ZM40.7804 23.644C40.6783 23.2404 40.4228 22.9002 40.0624 22.6862L34.2677 19.2493C34.2475 19.2372 34.2365 19.2172 34.2176 19.2039L27.4341 15.6833C27.3919 15.6614 27.3526 15.6379 27.3161 15.6116C26.9744 15.4906 26.6413 15.3383 26.3221 15.1487C24.9496 14.3345 24.0622 12.9977 23.6775 11.1673L17.612 11.713C15.795 11.8705 14.1234 10.7936 13.5463 9.08037C13.2123 8.08815 13.2923 7.02856 13.7721 6.09661C14.2523 5.16419 15.072 4.47756 16.0797 4.16201L20.2737 2.81343C5.65772 -1.55322 -3.4279 10.0365 5.7165 20.716L6.15889 20.278C7.52058 18.9304 9.73591 18.9309 11.0966 20.278C11.5707 20.7473 11.8688 21.3212 12.0128 21.9241C13.2897 21.3758 14.8306 21.61 15.8731 22.6423C16.3371 23.1016 16.645 23.6706 16.7924 24.2872C18.0688 23.7406 19.6083 23.9759 20.6496 25.007C21.1236 25.4763 21.4219 26.0505 21.566 26.6531C22.8428 26.1048 24.384 26.3395 25.4263 27.3708C26.1905 28.1279 26.5097 29.15 26.4158 30.1406L26.4187 30.1415L30.3036 32.2263C31.0844 32.6883 32.0533 32.4479 32.4998 31.7105C32.9455 30.9734 32.703 30.0141 31.9577 29.5724L29.0603 27.8541C28.6064 27.5851 28.4583 27.0019 28.7308 26.5525C29.0023 26.1022 29.5902 25.957 30.045 26.2258L34.3913 28.8032C34.7527 29.0181 35.1769 29.0808 35.5831 28.9783C35.9912 28.8772 36.3358 28.6247 36.552 28.2674C36.7672 27.9106 36.83 27.4911 36.7279 27.0875C36.6258 26.6835 36.3704 26.3435 36.0102 26.1295L31.6643 23.5515C31.2105 23.2817 31.0623 22.6992 31.3348 22.2494C31.5393 21.9125 31.9205 21.7459 32.2903 21.7974C32.414 21.8145 32.5357 21.8555 32.6493 21.9232L36.9949 24.501L38.4428 25.3601C38.8033 25.5736 39.2265 25.6377 39.6353 25.5347C40.0435 25.4336 40.3871 25.1812 40.6033 24.8243C40.8197 24.467 40.8825 24.048 40.7804 23.644Z" fill="black"/>
<path d="M70.2695 13.7014C70.2695 14.954 69.8506 15.9569 69.0127 16.7102C68.1833 17.455 67.0999 17.929 65.7627 18.1321V18.2209C67.3708 18.4156 68.6022 18.898 69.457 19.6682C70.3118 20.4299 70.7393 21.4286 70.7393 22.6643C70.7393 23.7476 70.4557 24.704 69.8887 25.5334C69.3216 26.3629 68.4753 27.0103 67.3496 27.4758C66.224 27.9413 64.8275 28.1741 63.1602 28.1741C61.9499 28.1741 60.8454 28.0894 59.8467 27.9202C58.848 27.7594 57.9593 27.5055 57.1807 27.1584V24.5178C57.7139 24.7717 58.2979 24.9918 58.9326 25.178C59.5758 25.3557 60.2275 25.4954 60.8877 25.5969C61.5563 25.69 62.1826 25.7366 62.7666 25.7366C64.4255 25.7366 65.6569 25.4573 66.4609 24.8987C67.265 24.3401 67.667 23.5487 67.667 22.5247C67.667 21.4752 67.1465 20.7092 66.1055 20.2268C65.0645 19.7444 63.6383 19.5032 61.8271 19.5032H59.6182V17.0657H61.6875C63.0332 17.0657 64.1123 16.9472 64.9248 16.7102C65.7373 16.4732 66.3255 16.1347 66.6895 15.6946C67.0534 15.2545 67.2354 14.7297 67.2354 14.1204C67.2354 13.3163 66.9137 12.69 66.2705 12.2415C65.6357 11.7844 64.7555 11.5559 63.6299 11.5559C62.5635 11.5559 61.6283 11.6998 60.8242 11.9875C60.0202 12.2753 59.2542 12.6519 58.5264 13.1174L57.1426 11.0735C57.7096 10.6842 58.3275 10.3414 58.9961 10.0452C59.6732 9.74894 60.418 9.51619 61.2305 9.34692C62.043 9.17765 62.9359 9.09302 63.9092 9.09302C65.2633 9.09302 66.4102 9.29191 67.3496 9.6897C68.2975 10.079 69.0212 10.6207 69.5205 11.3147C70.0199 12.0087 70.2695 12.8043 70.2695 13.7014Z" fill="black"/>
<path d="M88.5609 27.9202L86.7455 22.7659H79.6488L77.8334 27.9202H74.6215L81.5277 9.28345H84.9047L91.7982 27.9202H88.5609ZM85.9584 20.1506L84.1938 15.0725C84.126 14.8525 84.0287 14.5435 83.9018 14.1458C83.7748 13.7395 83.6479 13.329 83.5209 12.9143C83.3939 12.4911 83.2882 12.1357 83.2035 11.8479C83.1189 12.1949 83.0131 12.5842 82.8861 13.0159C82.7676 13.439 82.6492 13.8368 82.5307 14.2092C82.4206 14.5816 82.336 14.8694 82.2768 15.0725L80.4994 20.1506H85.9584Z" fill="black"/>
<path d="M111.598 9.35962C113.993 9.35962 115.741 9.8505 116.841 10.8323C117.941 11.814 118.491 13.1894 118.491 14.9583C118.491 15.7623 118.364 16.5282 118.111 17.2561C117.865 17.9755 117.459 18.6145 116.892 19.1731C116.325 19.7232 115.576 20.1591 114.645 20.4807C113.722 20.8023 112.584 20.9631 111.23 20.9631H109.249V27.9202H106.202V9.35962H111.598ZM111.395 11.886H109.249V18.4241H110.912C111.869 18.4241 112.681 18.314 113.35 18.094C114.018 17.8655 114.526 17.5058 114.873 17.0149C115.22 16.524 115.394 15.8765 115.394 15.0725C115.394 13.9976 115.068 13.1978 114.416 12.6731C113.773 12.1484 112.766 11.886 111.395 11.886Z" fill="black"/>
<path d="M139.017 9.35962L133.114 22.6516C132.598 23.8365 132.056 24.8394 131.489 25.6604C130.93 26.4814 130.24 27.1077 129.42 27.5393C128.599 27.9625 127.536 28.1741 126.233 28.1741C125.759 28.1741 125.285 28.1402 124.811 28.0725C124.337 28.0048 123.901 27.9117 123.504 27.7932V25.0256C123.884 25.1864 124.295 25.3092 124.735 25.3938C125.184 25.47 125.628 25.5081 126.068 25.5081C126.686 25.5081 127.198 25.4107 127.604 25.2161C128.019 25.0214 128.366 24.7336 128.645 24.3528C128.933 23.9635 129.191 23.4895 129.42 22.9309L122.628 9.35962L125.89 9.35962L130.27 18.5637C130.338 18.7076 130.422 18.8938 130.524 19.1223C130.626 19.3424 130.723 19.5709 130.816 19.8079C130.918 20.0364 131.002 20.248 131.07 20.4426H131.184C131.243 20.2734 131.315 20.0745 131.4 19.8459C131.493 19.609 131.586 19.3678 131.679 19.1223C131.781 18.8769 131.87 18.6611 131.946 18.4749L135.831 9.35962H139.017Z" fill="black"/>
<path d="M158.273 27.9202H154.731L147.102 18.5002V27.9202H144.055V9.35962H147.102V18.3479L154.592 9.35962H157.918L150.428 18.3225L158.273 27.9202Z" fill="black"/>
<path d="M177.555 9.35962L171.652 22.6516C171.135 23.8365 170.594 24.8394 170.027 25.6604C169.468 26.4814 168.778 27.1077 167.957 27.5393C167.136 27.9625 166.074 28.1741 164.771 28.1741C164.297 28.1741 163.823 28.1402 163.349 28.0725C162.875 28.0048 162.439 27.9117 162.041 27.7932V25.0256C162.422 25.1864 162.833 25.3092 163.273 25.3938C163.721 25.47 164.166 25.5081 164.606 25.5081C165.224 25.5081 165.736 25.4107 166.142 25.2161C166.557 25.0214 166.904 24.7336 167.183 24.3528C167.471 23.9635 167.729 23.4895 167.957 22.9309L161.165 9.35962H164.428L168.808 18.5637C168.876 18.7076 168.96 18.8938 169.062 19.1223C169.163 19.3424 169.261 19.5709 169.354 19.8079C169.455 20.0364 169.54 20.248 169.608 20.4426H169.722C169.781 20.2734 169.853 20.0745 169.938 19.8459C170.031 19.609 170.124 19.3678 170.217 19.1223C170.319 18.8769 170.408 18.6611 170.484 18.4749L174.369 9.35962H177.555Z" fill="black"/>
</svg>
