<svg width="801" height="613" viewBox="0 0 801 613" fill="none" xmlns="http://www.w3.org/2000/svg">
<path d="M51.6066 100.838C47.7481 120.574 54.1162 139.768 70.381 151.811C84.8987 162.554 104.371 165.263 121.103 157.72C136.794 150.649 147.641 135.407 153.521 119.804C158.005 107.908 159.731 94.3007 155.842 82.1295C142.01 38.8122 74.4237 39.6465 51.3197 74.887C43.2943 87.1227 41.804 102.119 43.7911 116.17C44.4677 120.97 51.354 119.525 50.6816 114.764C48.9772 102.713 50.3176 90.3053 56.857 79.6953C62.3685 70.754 71.1647 64.4921 80.8175 60.6515C99.4848 53.2284 123.347 55.4347 138.678 68.4531C159.157 85.8411 150.96 118.226 135.839 136.719C124.807 150.211 108.058 157.604 90.8813 153.316C70.5481 148.241 56.3816 130.9 57.4522 109.809C57.5636 107.655 57.8633 105.496 58.2787 103.375C59.1524 98.9154 52.5531 96.0081 51.6066 100.838Z" fill="white"/>
<path d="M132.628 73.9968C132.09 73.4344 131.398 73.1396 130.616 73.1396H130.422C128.94 73.1396 127.721 74.3109 127.648 75.8042V75.8197C127.497 79.8067 126.696 82.8475 125.129 85.3918C123.925 87.3387 122.215 89.0336 120.531 90.6665C115.953 86.1209 109.367 83.5378 102.266 83.5378C95.1647 83.5378 88.5628 86.1209 83.9848 90.6665C82.2975 89.0336 80.591 87.3387 79.3874 85.3918C77.8202 82.8475 77.0191 79.8067 76.8721 75.8236C76.8179 74.3187 75.6028 73.1396 74.0936 73.1396H73.9001C73.1106 73.1396 72.4218 73.4383 71.8994 74.0007C71.3653 74.5437 71.0983 75.2418 71.1254 76.0291C71.5433 86.5902 75.9278 90.8527 80.1692 94.9716L80.4903 95.2819C79.0469 97.927 78.2884 100.847 78.2884 103.78C78.2884 107.759 79.6545 111.614 82.2318 114.919C84.7162 118.103 88.1951 120.624 92.2971 122.214C93.4852 122.672 94.2243 123.742 94.2243 125.007V127.469C94.2243 128.218 94.3675 128.908 94.6616 129.571L95.8186 132.213C95.9967 132.663 96.0741 133.016 96.0741 133.431V136.999C96.0741 137.627 96.581 138.135 97.2079 138.135H107.324C107.95 138.135 108.457 137.627 108.457 136.999V133.431C108.457 132.985 108.531 132.635 108.709 132.224L109.854 129.575C110.152 128.904 110.296 128.218 110.296 127.469V125.007C110.296 123.742 111.035 122.672 112.227 122.214C116.325 120.628 119.804 118.107 122.288 114.922C124.869 111.614 126.231 107.763 126.231 103.783C126.231 100.851 125.473 97.9347 124.03 95.2857L124.324 95.0026C126.456 92.9354 128.658 90.7984 130.337 87.8934C132.23 84.6122 133.201 80.8462 133.394 76.0407C133.441 75.2767 133.178 74.5708 132.632 74.0007L132.628 73.9968Z" fill="#F28D75"/>
<path d="M132.628 73.9968C132.09 73.4344 131.398 73.1396 130.616 73.1396H130.422C130.213 73.1396 130.008 73.1629 129.811 73.2095C129.977 73.3219 130.128 73.4538 130.272 73.6051C130.813 74.183 131.08 74.8966 131.034 75.6723C130.84 80.5437 129.869 84.364 127.977 87.6917C126.301 90.6355 124.095 92.8035 121.963 94.8979C121.793 95.0686 121.75 95.3245 121.859 95.534C123.182 98.1209 123.879 100.956 123.879 103.799C123.879 107.837 122.513 111.742 119.935 115.093C117.451 118.324 113.972 120.88 109.874 122.489C108.682 122.955 107.943 124.041 107.943 125.321V127.818C107.943 128.579 107.8 129.277 107.502 129.955L106.356 132.639C106.19 133.027 106.105 133.442 106.105 133.861V137.48C106.105 137.72 106.031 137.945 105.907 138.131H107.324C107.95 138.131 108.457 137.623 108.457 136.995V133.427C108.457 132.981 108.531 132.632 108.709 132.22L109.854 129.571C110.152 128.901 110.296 128.214 110.296 127.465V125.003C110.296 123.738 111.035 122.668 112.227 122.21C116.325 120.624 119.804 118.103 122.288 114.919C124.869 111.61 126.231 107.759 126.231 103.78C126.231 100.847 125.473 97.9309 124.03 95.2819L124.324 94.9987C126.456 92.9315 128.658 90.7945 130.337 87.8895C132.23 84.6083 133.205 80.8423 133.394 76.0369C133.441 75.2728 133.178 74.5669 132.632 73.9968H132.628Z" fill="#EE765E"/>
<path d="M74.701 75.649C74.8751 80.0239 75.7961 83.3672 77.6033 86.1597C78.683 87.8236 80.1419 89.3439 81.6512 90.779C82.3168 91.4112 83.3655 91.3607 83.973 90.6742L83.9846 90.6626C83.6635 90.3601 83.3616 90.0614 83.0675 89.7667C81.6976 88.4053 80.3702 86.9858 79.3873 85.3918C77.82 82.8475 77.019 79.8067 76.8719 75.8236C76.8178 74.3187 75.6026 73.1396 74.0934 73.1396H73.9928C73.7451 73.1396 73.5091 73.1629 73.2808 73.2133C74.1089 73.7408 74.6623 74.6251 74.701 75.649Z" fill="#EE765E"/>
<path d="M102.262 87.0168C90.9583 87.0168 81.7559 94.5372 81.7559 103.776C81.7559 107.561 83.2573 111.133 86.0939 114.104C88.795 116.932 92.6029 119.01 96.8249 119.957C98.2064 120.259 99.17 121.462 99.17 122.877V138.131H105.35V122.877C105.35 121.458 106.306 120.255 107.687 119.957C111.902 119.01 115.713 116.932 118.415 114.104C121.251 111.133 122.753 107.561 122.753 103.776C122.753 94.5333 113.562 87.0168 102.266 87.0168H102.262Z" fill="#FFD934"/>
<path d="M122.718 104.75C122.737 104.428 122.753 104.102 122.753 103.78C122.753 94.5375 113.562 87.021 102.262 87.021C90.9621 87.021 81.7559 94.5414 81.7559 103.78C81.7559 104.106 81.7675 104.431 81.7907 104.753H81.8062C86.388 104.753 87.4329 102.271 92.0341 102.271C96.6353 102.271 97.6608 104.75 102.262 104.75C106.863 104.75 107.889 102.271 112.49 102.271C117.091 102.271 118.117 104.75 122.718 104.75Z" fill="#D65938"/>
<path d="M119.61 104.296C119.448 107.841 117.966 111.18 115.288 113.98C112.587 116.808 108.779 118.887 104.561 119.833C103.183 120.136 102.223 121.338 102.223 122.757V138.011H99.1699V138.139H105.35V122.885C105.35 121.466 106.306 120.264 107.687 119.965C111.902 119.019 115.713 116.94 118.414 114.112C121.007 111.397 122.482 108.182 122.718 104.754C121.464 104.754 120.477 104.567 119.61 104.3V104.296Z" fill="#FDC502"/>
<path d="M122.718 104.75C122.737 104.428 122.753 104.102 122.753 103.78C122.753 94.5375 113.562 87.021 102.262 87.021C102.08 87.021 101.894 87.021 101.716 87.0288C111.801 88.0682 119.626 95.1309 119.626 103.66C119.626 103.877 119.622 104.09 119.61 104.303C120.477 104.571 121.464 104.757 122.718 104.757V104.75Z" fill="#D65938"/>
<path d="M93.2492 109.647C93.8026 109.647 94.2631 109.198 94.2631 108.631C94.2631 108.065 93.8026 107.631 93.2492 107.631C92.6959 107.631 92.2354 108.081 92.2354 108.631C92.2354 109.182 92.6959 109.647 93.2492 109.647Z" fill="#FDC502"/>
<path d="M102.262 109.647C102.815 109.647 103.26 109.198 103.26 108.631C103.26 108.065 102.811 107.631 102.262 107.631C101.712 107.631 101.248 108.081 101.248 108.631C101.248 109.182 101.693 109.647 102.262 109.647Z" fill="#FDC502"/>
<path d="M111.259 109.647C111.828 109.647 112.273 109.198 112.273 108.631C112.273 108.065 111.824 107.631 111.259 107.631C110.694 107.631 110.261 108.081 110.261 108.631C110.261 109.182 110.71 109.647 111.259 109.647Z" fill="#FDC502"/>
<path d="M97.8622 112.964C98.431 112.964 98.8761 113.425 98.8761 113.98C98.8761 114.535 98.4272 114.996 97.8622 114.996C97.2972 114.996 96.8638 114.535 96.8638 113.98C96.8638 113.425 97.3127 112.964 97.8622 112.964ZM106.651 112.964C107.204 112.964 107.664 113.425 107.664 113.98C107.664 114.535 107.204 114.996 106.651 114.996C106.097 114.996 105.637 114.535 105.637 113.98C105.637 113.425 106.086 112.964 106.651 112.964Z" fill="#FDC502"/>
<path d="M285.412 130.617C290.836 121.588 295.737 112.131 301.084 103.041L301.137 103.033L301.112 103.006L301.089 103.047C292.489 104.49 283.884 105.338 275.204 106.32C270.976 106.798 271.6 99.6308 275.612 99.1754C286.205 97.9826 296.651 97.0253 307.154 94.7558C309.591 94.2261 312.418 97.0636 310.554 99.9901C303.533 111.021 297.63 122.953 290.873 134.196C288.609 137.967 282.961 134.712 285.412 130.628L285.412 130.617ZM283.707 119.588C266.634 128.349 248.978 134.086 230.369 132.167C211.676 130.239 192.55 122.349 178.086 108.289C174.943 105.233 180 100.369 182.921 103.211C196.406 116.318 214.477 123.341 231.85 125.137C248.831 126.891 265.165 121.416 280.716 113.43C284.45 111.516 287.624 117.577 283.707 119.593L283.707 119.588Z" fill="white"/>
<path d="M223.988 304.85C182.379 304.12 260.625 311.838 223.988 304.85C267.541 305.617 355.608 303.415 453.145 293.806C586.397 288.646 705.757 312.49 777.291 437.346C848.833 562.194 730.504 610.966 610.293 597.513C523.15 587.759 457.787 553.243 386.36 542.507C320.079 532.541 222.346 534.817 160.79 524.962C47.2268 504.611 21.4106 457.473 4.91028 403.965C-10.8166 352.975 26.0218 314.85 223.988 304.85Z" fill="#C3D87A"/>
<path d="M314.745 331.15C314.502 324.484 309.02 319.152 302.291 319.152C300.924 319.152 299.618 319.375 298.386 319.78C299.017 318.315 299.365 316.699 299.365 315.003C299.365 310.039 296.383 305.772 292.113 303.889C295.622 300.708 297.823 296.116 297.823 291.014C297.823 281.418 290.035 273.637 280.43 273.637C272.37 273.637 265.593 279.117 263.621 286.552C261.798 285.019 259.45 284.094 256.884 284.094C251.397 284.094 246.901 288.313 246.456 293.68C244.823 292.304 242.718 291.474 240.415 291.474C235.228 291.474 231.028 295.673 231.028 300.855C231.028 301.711 231.15 302.536 231.366 303.326C229.966 302.631 228.389 302.236 226.717 302.236C220.935 302.236 216.248 306.918 216.248 312.695C216.248 314.606 216.764 316.394 217.663 317.939C210.711 318.247 205.169 323.972 205.169 330.994V331.15H314.74H314.745Z" fill="#7FAB53"/>
<path d="M256.773 331.133C257.631 328.5 258.105 325.694 258.105 322.776C258.105 308.016 246.194 296.045 231.506 296.045C229.157 296.045 226.879 296.354 224.709 296.928C223.496 286.554 214.725 278.503 204.075 278.503C196.163 278.503 189.282 282.95 185.774 289.492L185.791 289.153C185.791 281.883 179.93 275.993 172.701 275.993C168.5 275.993 164.772 277.99 162.375 281.081C161.5 274.902 156.231 270.146 149.843 270.146C142.84 270.146 137.166 275.85 137.166 282.885C137.166 283.279 137.189 283.663 137.223 284.05C133.85 281.859 129.838 280.589 125.529 280.589C113.592 280.589 103.919 290.314 103.919 302.309C103.919 306.26 104.973 309.959 106.808 313.153C99.775 315.85 92.802 313.481 92.802 321.498C92.802 321.498 89.5555 320.059 89.9036 326.349C90.259 332.77 96.6664 331.133 96.6664 331.133H256.776H256.773Z" fill="#90C25E"/>
<path d="M400.334 331.149C400.967 329.215 401.316 327.154 401.316 325.011C401.316 314.168 392.531 305.375 381.697 305.375C379.965 305.375 378.282 305.602 376.684 306.023C375.791 298.403 369.32 292.489 361.465 292.489C355.626 292.489 350.553 295.755 347.963 300.561L347.975 300.312C347.975 294.972 343.655 290.645 338.32 290.645C335.224 290.645 332.472 292.112 330.707 294.383C330.061 289.844 326.175 286.35 321.461 286.35C316.298 286.35 312.112 290.54 312.112 295.708C312.112 295.997 312.129 296.279 312.157 296.564C309.669 294.954 306.71 294.021 303.531 294.021C294.726 294.021 287.589 301.165 287.589 309.976C287.589 312.878 288.367 315.596 289.718 317.941C284.53 319.923 280.843 324.951 280.843 330.84L280.851 331.149H400.337H400.334Z" fill="#90C25E"/>
<path d="M242.099 197.353C242.099 223.436 220.955 244.578 194.877 244.578C168.799 244.578 147.657 223.433 147.657 197.353C147.657 171.273 168.794 150.137 194.877 150.137C220.96 150.137 242.099 171.278 242.099 197.353Z" fill="#90C25E"/>
<path d="M194.343 174.509V330.56C194.343 330.887 194.606 331.15 194.932 331.15C195.257 331.15 195.518 330.887 195.518 330.56V174.509C195.518 174.182 195.255 173.92 194.932 173.92C194.609 173.92 194.343 174.182 194.343 174.509ZM195.25 228.552L221.107 211.627C221.378 211.449 221.455 211.082 221.279 210.807C221.102 210.534 220.737 210.457 220.466 210.634L194.609 227.559C194.338 227.737 194.261 228.102 194.437 228.377C194.614 228.652 194.979 228.729 195.25 228.549V228.552ZM195.25 190.55L221.107 173.625C221.378 173.447 221.455 173.082 221.279 172.807C221.102 172.532 220.737 172.455 220.466 172.635L194.609 189.56C194.338 189.737 194.261 190.102 194.437 190.377C194.614 190.652 194.979 190.73 195.25 190.55ZM195.25 209.12L233.357 184.176C233.628 183.998 233.705 183.631 233.529 183.356C233.352 183.083 232.989 183.006 232.716 183.183L194.609 208.127C194.338 208.305 194.261 208.672 194.437 208.947C194.614 209.22 194.979 209.297 195.25 209.12ZM202.554 223.583L216.969 226.565C217.287 226.63 217.598 226.425 217.663 226.105C217.727 225.785 217.523 225.472 217.205 225.405L202.79 222.423C202.472 222.358 202.162 222.565 202.097 222.883C202.032 223.203 202.236 223.515 202.554 223.58V223.583ZM213.95 215.669L216.629 207.117C216.726 206.805 216.554 206.475 216.246 206.377C215.938 206.277 215.607 206.452 215.508 206.762L212.829 215.314C212.732 215.624 212.903 215.956 213.211 216.054C213.52 216.151 213.85 215.979 213.947 215.669H213.95ZM212.597 197.676L229.44 194.697C229.761 194.639 229.975 194.334 229.918 194.012C229.863 193.692 229.557 193.477 229.237 193.532L212.394 196.511C212.073 196.569 211.859 196.876 211.917 197.196C211.974 197.516 212.277 197.731 212.597 197.676ZM203.511 203.41L206.829 195.509C206.956 195.209 206.814 194.862 206.516 194.734C206.218 194.607 205.872 194.749 205.745 195.049L202.428 202.953C202.301 203.253 202.44 203.6 202.741 203.725C203.039 203.853 203.384 203.713 203.511 203.41ZM207.54 182.396L221.704 181.878C222.029 181.866 222.283 181.591 222.27 181.266C222.258 180.939 221.987 180.684 221.661 180.696L207.498 181.211C207.172 181.224 206.919 181.498 206.931 181.823C206.943 182.151 207.214 182.406 207.54 182.393V182.396ZM203.245 184.91L204.649 178.561C204.719 178.244 204.52 177.926 204.202 177.856C203.884 177.784 203.571 177.986 203.501 178.306L202.097 184.653C202.027 184.97 202.226 185.288 202.544 185.358C202.863 185.43 203.176 185.228 203.245 184.91ZM195.146 227.559L169.288 210.634C169.018 210.457 168.652 210.534 168.476 210.807C168.299 211.082 168.376 211.447 168.647 211.627L194.504 228.552C194.775 228.729 195.141 228.652 195.317 228.379C195.494 228.104 195.417 227.739 195.146 227.562V227.559ZM195.146 189.557L169.288 172.632C169.018 172.455 168.652 172.532 168.476 172.805C168.299 173.08 168.376 173.445 168.647 173.622L194.504 190.547C194.775 190.725 195.141 190.647 195.317 190.375C195.494 190.1 195.417 189.735 195.146 189.557ZM195.146 208.127L157.041 183.183C156.77 183.006 156.405 183.083 156.228 183.356C156.052 183.631 156.129 183.996 156.4 184.176L194.504 209.12C194.775 209.297 195.141 209.22 195.317 208.947C195.494 208.672 195.417 208.307 195.146 208.127ZM186.966 222.423L172.549 225.405C172.231 225.47 172.027 225.785 172.092 226.105C172.156 226.425 172.467 226.63 172.785 226.565L187.203 223.583C187.521 223.518 187.724 223.205 187.66 222.885C187.595 222.565 187.285 222.36 186.966 222.425V222.423ZM176.926 215.311L174.247 206.76C174.15 206.447 173.819 206.275 173.511 206.375C173.2 206.472 173.029 206.805 173.128 207.115L175.807 215.666C175.904 215.976 176.235 216.151 176.543 216.051C176.854 215.954 177.025 215.621 176.926 215.311ZM177.361 196.509L160.523 193.529C160.202 193.474 159.899 193.689 159.842 194.009C159.785 194.332 159.998 194.637 160.319 194.694L177.157 197.674C177.478 197.729 177.781 197.514 177.838 197.194C177.895 196.874 177.681 196.566 177.361 196.509ZM187.329 202.95L184.011 195.047C183.885 194.747 183.539 194.604 183.241 194.732C182.943 194.859 182.801 195.204 182.928 195.506L186.246 203.408C186.372 203.71 186.718 203.85 187.016 203.723C187.314 203.598 187.456 203.25 187.329 202.95ZM182.257 181.214L168.095 180.699C167.77 180.686 167.499 180.941 167.487 181.268C167.474 181.593 167.728 181.868 168.053 181.881L182.215 182.398C182.54 182.411 182.811 182.156 182.823 181.828C182.836 181.503 182.582 181.229 182.257 181.216V181.214ZM187.66 184.656L186.258 178.309C186.189 177.991 185.873 177.789 185.557 177.859C185.242 177.931 185.04 178.246 185.11 178.564L186.512 184.913C186.581 185.23 186.897 185.433 187.213 185.36C187.528 185.288 187.729 184.973 187.66 184.656Z" fill="#873312"/>
<path d="M307.481 232.129C307.481 247.364 295.151 259.713 279.937 259.713C264.722 259.713 252.39 247.364 252.39 232.129V177.717C252.39 162.486 264.722 150.137 279.937 150.137C295.151 150.137 307.481 162.486 307.481 177.717V232.129Z" fill="#C6D76B"/>
<path d="M279.425 177.364V330.56C279.425 330.887 279.692 331.15 280.021 331.15C280.35 331.15 280.614 330.887 280.614 330.56V177.364C280.614 177.037 280.35 176.774 280.021 176.774C279.692 176.774 279.425 177.037 279.425 177.364ZM281.042 195.541L293.62 185.793C293.879 185.593 293.925 185.221 293.723 184.964C293.522 184.706 293.148 184.662 292.889 184.861L280.31 194.609C280.051 194.809 280.006 195.181 280.207 195.438C280.408 195.695 280.783 195.74 281.042 195.541ZM280.77 217.301L304.2 201.058C304.469 200.873 304.535 200.503 304.348 200.236C304.162 199.969 303.79 199.904 303.521 200.089L280.089 216.332C279.82 216.517 279.755 216.887 279.941 217.154C280.129 217.421 280.499 217.486 280.77 217.301ZM280.755 242.548L298.762 230.803C299.036 230.625 299.114 230.258 298.933 229.986C298.754 229.711 298.385 229.636 298.111 229.816L280.104 241.562C279.83 241.742 279.752 242.106 279.933 242.381C280.112 242.653 280.481 242.731 280.755 242.551V242.548ZM287.699 237.881L296.577 239.881C296.896 239.954 297.216 239.754 297.289 239.437C297.362 239.119 297.16 238.802 296.841 238.73L287.963 236.729C287.644 236.657 287.325 236.857 287.252 237.174C287.179 237.491 287.38 237.808 287.699 237.881ZM291.315 209.846L295.752 201.602C295.908 201.315 295.798 200.955 295.509 200.803C295.219 200.648 294.86 200.758 294.704 201.045L290.266 209.289C290.111 209.577 290.221 209.934 290.51 210.089C290.802 210.243 291.162 210.133 291.315 209.846ZM287.471 190.406L296.597 192.154C296.919 192.216 297.233 192.007 297.294 191.687C297.356 191.367 297.145 191.058 296.823 190.995L287.697 189.249C287.375 189.187 287.063 189.397 287.001 189.716C286.938 190.036 287.149 190.346 287.471 190.408V190.406ZM279.563 194.607L266.985 184.859C266.726 184.659 266.351 184.704 266.15 184.961C265.949 185.218 265.994 185.591 266.253 185.79L278.832 195.538C279.091 195.738 279.463 195.693 279.667 195.436C279.868 195.178 279.822 194.806 279.563 194.607ZM279.785 216.33L256.352 200.086C256.083 199.899 255.711 199.966 255.525 200.233C255.337 200.501 255.402 200.87 255.671 201.055L279.103 217.299C279.372 217.486 279.745 217.419 279.933 217.151C280.122 216.884 280.054 216.515 279.785 216.33ZM279.77 241.559L261.763 229.814C261.489 229.634 261.119 229.711 260.941 229.984C260.76 230.256 260.838 230.623 261.112 230.8L279.116 242.546C279.393 242.726 279.76 242.648 279.941 242.376C280.122 242.101 280.044 241.737 279.77 241.557V241.559ZM271.913 236.727L263.033 238.727C262.713 238.8 262.512 239.117 262.585 239.434C262.658 239.751 262.977 239.951 263.297 239.879L272.177 237.878C272.496 237.806 272.697 237.489 272.624 237.171C272.551 236.854 272.232 236.654 271.913 236.727ZM269.607 209.289L265.17 201.045C265.014 200.758 264.654 200.648 264.365 200.803C264.076 200.958 263.965 201.315 264.121 201.602L268.559 209.846C268.715 210.133 269.074 210.243 269.363 210.089C269.653 209.934 269.761 209.577 269.607 209.289ZM272.179 189.247L263.053 190.993C262.731 191.055 262.52 191.365 262.58 191.684C262.643 192.004 262.955 192.214 263.277 192.151L272.403 190.403C272.725 190.343 272.936 190.031 272.873 189.711C272.813 189.392 272.499 189.182 272.177 189.244L272.179 189.247Z" fill="#873312"/>
<path d="M399.531 455.857C399.519 455.974 399.526 456.096 399.556 456.21C400.006 462.342 400.458 468.476 400.911 474.608L405.211 533.008L405.918 542.609C405.935 542.852 406.032 543.044 406.17 543.183C407.102 543.474 433.505 551.836 445.922 555.034C446.592 555.208 447.715 555.243 447.903 554.643C448.088 554.047 447.369 553.089 446.862 552.716C438.165 546.338 429.843 539.453 421.94 532.106L423.055 515.757C424.383 496.372 425.713 476.987 427.041 457.602C427.568 457.309 427.79 456.441 427.113 456.031C425.207 454.887 423.063 454.35 420.884 454.022C418.62 453.679 416.332 453.48 414.04 453.445C409.666 453.375 405.29 453.888 401.042 454.927C400.542 454.39 399.437 454.574 399.504 455.484L399.534 455.859" fill="#F3965E"/>
<path d="M363.784 452.609C363.779 458.914 363.802 465.218 363.849 471.52C363.94 484.036 364.126 496.548 364.411 509.059C364.554 515.316 364.718 521.571 364.907 527.825C364.959 529.593 364.947 531.386 364.929 533.186C364.889 537.036 364.834 540.921 365.39 544.659C365.468 545.176 366.404 545.37 366.49 545.395C372.332 547.153 378.192 548.856 384.067 550.506C386.974 551.32 389.889 552.124 392.804 552.916C395.658 553.69 404.116 555.847 407.106 555.747C407.806 555.724 408.085 555.063 407.939 554.551C407.939 554.341 407.879 554.112 407.675 553.964C398.505 547.213 391.487 542.479 382.735 533.513L382.632 533.406C382.766 533.173 383.79 524.377 384.671 518.375C387.749 497.454 391.263 476.599 395.198 455.82C395.487 455.368 395.401 454.639 394.729 454.427C385.25 451.416 375.184 450.377 365.284 451.398C364.995 451.426 364.781 451.563 364.637 451.748C364.204 451.77 363.789 452.058 363.789 452.609" fill="#F3965E"/>
<path d="M490.298 280.875C490.504 277.15 487.842 273.119 486.049 270.228C478.247 257.645 471.7 244.502 465.485 231.098C465.269 230.636 465.035 230.187 464.781 229.76C463.508 227.616 461.705 225.972 458.973 225.411C454.285 224.448 447.813 226.968 445.563 231.28C440.666 240.672 451.241 254.572 456.143 262.092C459.962 267.951 465.706 273.4 470.442 278.561C473.91 282.343 489.653 292.65 490.295 280.873L490.298 280.875Z" fill="#F3965E"/>
<path d="M423.686 125.754C423.299 125.25 422.712 124.857 421.849 124.623C414.543 122.643 407.097 120.555 399.578 119.595C393.752 118.85 387.846 119.434 382.108 120.562C376.769 121.61 370.836 122.728 365.833 124.914C364.588 125.456 364.897 125.684 365.667 126.779C367.296 129.093 367.865 131.898 368.866 134.496C369.993 137.411 371.536 140.209 373.109 142.901C376.295 148.356 380.021 153.467 383.541 158.704C385.036 160.928 398.062 180.825 400.621 178.383C406.116 176.227 408.933 169.366 411.395 164.493C414.711 157.925 417.95 151.096 420.374 144.067C421.613 140.474 422.649 136.812 423.387 133.084C423.854 130.728 425.058 127.544 423.686 125.754Z" fill="#F3965E"/>
<path d="M471.539 236.204C471.539 236.204 469.998 202.398 467.116 185.702C465.037 173.67 462.189 161.421 457.152 150.274C454.647 144.732 451.616 138.934 447.395 134.546C445.903 132.997 444 131.875 442.182 130.764C442.182 130.764 437.939 170.882 436.916 188.649C436.097 202.812 434.785 217.552 437.239 231.607C437.584 233.583 442.777 239.735 442.777 239.735L471.542 236.207L471.539 236.204Z" fill="#D65938"/>
<path d="M441.661 236.995C441.646 233.03 441.675 229.068 441.833 225.1C442.894 198.414 444.675 171.713 445.617 145.018C445.642 144.295 445.667 143.575 445.692 142.853C445.787 142.198 445.864 141.537 445.919 140.882C445.974 140.227 446.009 139.577 446.014 138.937C447.173 130.735 438.221 128.762 431.992 127.247C431.605 127.14 431.22 127.032 430.838 126.927C425.108 125.347 420.08 124.104 420.08 124.104C420.08 124.104 402.362 162.508 400.054 167.058C399.976 167.211 399.901 167.363 399.824 167.516C391.479 158.028 382.817 148.805 375.201 138.707C372.536 135.175 370.014 131.532 367.718 127.75L367.621 127.415C367.151 126.455 366.14 124.577 366.14 124.577C366.14 124.577 337.479 131.687 337.189 141.367C336.574 161.773 342.661 178.909 345.459 199.042C346.743 208.269 348.391 217.442 350.239 226.572C350.606 228.382 350.774 233.42 350.784 240.945L441.663 236.995H441.661Z" fill="#D65938"/>
<path d="M351.089 240.651C351.166 300.936 334.049 434.865 341.402 494.946C341.908 499.085 457.013 493.205 457.013 493.205C457.013 493.205 453.679 379.553 450.138 337.316C448.959 323.247 446.949 309.265 445.156 295.266C443.371 281.315 441.8 267.308 441.476 253.234C441.454 252.218 441.439 251.202 441.429 250.186C441.693 250.058 441.892 249.804 441.89 249.417C441.887 245.177 441.825 240.943 441.81 236.708L351.087 240.651" fill="#FEDE8D"/>
<path d="M355.601 230.278C352.196 227.641 348.232 225.956 343.902 225.825C341.734 225.76 339.686 225.917 337.561 226.327C335.867 226.653 333.999 226.996 332.645 228.138L332.435 228.387C332.198 228.521 332.023 228.768 332.023 229.124C332.008 248.544 330.449 267.952 331.397 287.367C331.714 293.861 332.176 300.347 332.782 306.82C332.899 308.079 333.221 309.818 334.578 310.311C335.663 310.706 336.513 309.975 336.962 309.039C337.599 307.713 337.125 306.178 337.566 304.803L337.693 304.571C338.359 304.001 338.529 305.88 338.536 306.139C338.581 307.639 338.619 311.761 340.939 311.741C341.809 311.731 342.261 310.91 342.423 310.162C342.592 309.383 342.645 308.524 342.717 307.708C342.76 307.201 342.707 306.683 342.807 306.178C342.842 306.004 342.834 305.648 343.014 305.544C343.715 305.143 343.74 307.514 343.772 307.84C343.817 308.281 343.877 308.758 343.979 309.224C344.082 309.689 344.221 310.144 344.428 310.54C344.897 311.687 346.327 312.221 347.043 311.328C347.773 310.415 347.903 309.681 347.758 308.517C347.681 307.917 347.644 307.303 347.659 306.698C347.664 306.44 347.636 305.828 347.873 305.648C348.232 305.377 348.569 305.925 348.716 306.171C349.25 307.062 349.25 308.174 349.455 309.161C349.634 310.035 349.829 311.652 350.976 311.687C354.057 311.776 353.521 305.482 353.241 301.645C353.191 300.961 353.077 300.285 353.002 299.603C352.957 299.202 352.914 298.799 352.875 298.396L353.027 298.458C354.192 298.862 355.095 298.038 355.012 296.871C354.925 295.65 354.446 294.261 354.044 293.124C353.538 291.684 352.862 290.311 352.174 288.95C351.525 275.319 352.326 261.503 353.344 248.049C353.758 242.573 354.122 237.033 355.414 231.679L355.429 231.597C355.903 231.318 356.147 230.698 355.601 230.275V230.278Z" fill="#F3965E"/>
<path d="M360.753 239.129C360.753 239.129 359.694 227.317 359.269 224.505C357.321 211.546 354.076 198.778 351.703 185.886C349.221 172.396 346.966 158.866 344.642 145.352C344.308 143.403 337.959 139.24 337.959 139.24C337.959 139.24 329.562 154.701 325.712 177.629C322.812 194.886 319.589 232.973 319.589 232.973L360.756 239.129H360.753Z" fill="#D65938"/>
<path d="M409.172 129.948C407.715 117.827 407.155 105.609 407.488 93.4064C407.914 92.7723 408.049 91.9459 407.919 91.1196C407.71 89.7889 407.618 88.3684 407.269 87.0652C406.774 85.2228 405.187 84.2766 403.371 84.1917C400.48 84.0569 397.529 84.2816 394.635 84.329C388.752 84.4239 382.869 84.5162 376.986 84.6136C375.587 84.6361 374.242 85.8319 374.309 87.2974L374.326 87.4746C374.157 87.8191 374.062 88.2036 374.075 88.623C374.356 97.3259 374.989 106.009 375.948 114.659C376.082 117.623 376.214 120.586 376.349 123.55C376.431 125.352 376.453 127.167 376.598 128.962C376.697 130.195 377.176 131.281 378.291 131.918C379.215 132.445 380.418 132.37 381.449 132.43C385.093 132.644 388.739 132.857 392.383 133.069L404.731 133.788C405.613 133.84 406.47 133.313 406.97 132.569C408.148 132.3 409.331 131.266 409.172 129.951V129.948Z" fill="#F3965E"/>
<path d="M386.107 36.4732C386.523 28.292 385.335 18.8861 379.037 13.1491C376.931 11.2326 374.428 9.60725 371.612 9.18662C368.636 8.74358 365.561 9.71179 363.093 11.4292C360.01 13.5722 357.847 16.7506 356.142 20.0385C354.141 23.8964 352.646 28.1675 352.917 32.5058C353.289 38.4743 357.271 42.6011 362.832 44.3408C365.887 45.2966 369.1 45.4957 372.28 45.3688C378.324 45.1298 385.39 46.0259 386 38.1707C386.042 37.6132 386.08 37.0457 386.11 36.4732H386.107Z" fill="#FACFA6"/>
<path d="M426.707 49.1925C426.443 47.4494 426.097 45.749 425.652 44.1165C423.521 36.3379 415.467 33.55 407.651 33.9368C403.69 34.1327 399.767 34.949 395.886 35.7025C392.154 36.4283 388.415 37.2547 384.88 38.6763C378.513 41.2356 372.695 45.6737 370.41 52.3471C369.162 55.994 369.215 60.0227 369.24 63.8278C369.262 67.5199 369.469 71.2045 369.957 74.864C370.907 81.987 372.944 89.0346 376.892 95.1178C378.44 97.5039 380.265 99.7367 382.336 101.696C382.749 102.088 383.175 102.469 383.608 102.839C388.537 107.031 395.119 108.59 401.427 108.894C404.656 109.05 407.905 108.98 411.116 108.573C416.03 107.947 420.275 105.772 422.53 101.161C424.516 97.0995 424.945 92.4931 425.784 88.1053C426.598 83.8405 427.2 79.5331 427.561 75.2055C428.283 66.5379 428.017 57.7949 426.712 49.1925H426.707Z" fill="#F3965E"/>
<path d="M418.222 33.9775C415.31 32.4503 412.051 31.428 409.355 30.8156C399.921 28.671 390.064 29.9008 380.64 31.4255C377.938 31.8629 375.511 32.9852 373.354 34.5449C349.658 51.6694 365.105 83.3313 373.605 104.418C374.11 105.667 374.544 107.615 375.498 108.364C375.81 107.577 375.923 106.707 375.973 105.832C376.415 98.3387 375.526 91.1599 375.109 83.6988C377.369 82.6639 380.851 79.302 382.804 77.9123C385.563 75.9526 388.259 73.9055 390.895 71.7809C395.971 67.6891 400.787 63.2799 405.306 58.5857C407.781 56.0161 410.161 53.3591 412.45 50.6271C416.101 55.3063 427.619 64.0972 428.588 64.3772C429.381 64.6071 430.094 51.2445 425.38 40.8963C425.191 40.5089 424.995 40.1215 424.787 39.749C423.429 37.3194 420.981 35.4223 418.222 33.975V33.9775Z" fill="#FACFA6"/>
<path d="M383.063 82.3038C382.249 76.9332 376.28 69.6565 372.997 69.0937C370.682 68.696 368.645 69.8066 367.791 72.0454C367.169 73.6688 367.392 75.67 367.929 77.2884C369.13 80.9055 371.816 83.4669 374.789 85.6382C376.489 86.8789 378.366 88.4098 380.571 87.5117C382.797 86.6037 383.415 84.6326 383.063 82.3038Z" fill="#F3965E"/>
<path d="M405.97 68.2582C405.393 67.1716 403.711 67.1837 402.656 67.203C400.376 67.2465 397.854 67.6473 395.944 68.9632C395.713 69.1226 395.486 69.3061 395.357 69.5548C395.125 69.9966 395.347 70.3516 395.734 70.5809C396.836 71.2353 398.351 71.3125 399.599 71.3874C401.053 71.4719 402.552 71.496 403.95 71.0325C405.083 70.6582 406.716 69.6562 405.972 68.2582H405.97Z" fill="#FACFA6"/>
<path d="M425.411 66.4246L425.281 66.3462C423.556 65.3507 421.097 65.2838 419.128 65.4567C418.446 65.5166 417.76 65.6249 417.146 65.9084C416.4 66.2517 415.649 67.0767 415.893 67.9017C416.266 69.1623 418.021 69.0194 419.113 69.001C420.518 68.9756 421.925 68.918 423.325 68.8074C424.178 68.7382 426.602 68.3534 426.06 67.1021C425.935 66.8186 425.687 66.5997 425.411 66.4246Z" fill="#FACFA6"/>
<path d="M411.744 79.146C411.377 81.0384 411.752 83.0071 412.918 84.5923C413.489 85.3665 414.397 85.8925 414.928 86.6765C415.974 88.2224 413.612 88.8073 412.505 89.0015C411.696 89.1465 412.04 90.3336 412.844 90.191C414.063 89.9748 415.39 89.6503 416.091 88.564C416.668 87.6694 416.522 86.6667 415.877 85.8531C415.155 84.9413 414.175 84.3367 413.591 83.3045C412.933 82.1371 412.724 80.7755 412.979 79.4729C413.13 78.6987 411.898 78.3644 411.744 79.146Z" fill="#BC4120"/>
<path d="M409.396 95.838C411.418 97.5334 414.517 97.0866 415.768 94.7781C416.153 94.0657 415.011 93.4352 414.625 94.1501C413.783 95.7089 411.759 96.1508 410.336 94.9568C409.702 94.4256 408.763 95.3043 409.399 95.838H409.396Z" fill="#BC4120"/>
<path d="M401.912 77.7691C401.813 78.788 401.409 79.9454 400.262 79.9107C399.906 79.8984 399.549 79.8885 399.193 79.8761C398.933 79.8687 398.668 79.8588 398.427 79.7599C397.659 79.4409 397.644 78.051 397.709 77.3412C397.774 76.6685 398.08 75.3034 398.868 75.1822C399.369 75.1056 399.877 75.066 400.383 75.0685C400.517 75.0685 400.652 75.0734 400.778 75.1155C401.635 75.4196 401.991 76.9752 401.912 77.7691Z" fill="#873312"/>
<path d="M423.366 77.803C423.202 77.9102 423.018 77.985 422.808 78.0224C421.525 78.2393 420.556 78.0324 420.193 76.6014C419.947 75.6241 420.055 73.8341 421.177 73.525C421.626 73.4003 422.083 73.3131 422.544 73.2632C423.322 73.176 423.852 73.6247 424.132 74.3627C424.516 75.3873 424.345 77.1623 423.366 77.8055V77.803Z" fill="#873312"/>
<path d="M369.664 73.5956C371.158 72.105 373.464 72.4998 374.992 73.7224C376.636 75.0384 377.497 77.0339 378.3 78.9098C378.601 79.6109 379.777 79.3022 379.474 78.5916C378.465 76.2348 377.364 73.7512 375.094 72.3203C373.144 71.0905 370.493 71.0618 368.803 72.7462C368.253 73.2965 369.111 74.146 369.664 73.5956Z" fill="#BC4120"/>
<path d="M390.115 76.4644C391.148 77.1658 392.279 77.518 393.461 77.4882C394.247 77.4673 394.25 75.969 393.461 75.9899C392.489 76.0167 391.583 75.7511 390.733 75.1691C390.044 74.7005 389.426 75.9929 390.115 76.4615V76.4644Z" fill="#BC4120"/>
<path d="M391.193 80.5022C391.999 80.3332 392.802 80.1643 393.608 79.9927C394.387 79.829 394.057 78.5512 393.28 78.7149C392.477 78.8838 391.671 79.0528 390.865 79.2244C390.086 79.3881 390.417 80.6659 391.193 80.5022Z" fill="#BC4120"/>
<path d="M409.024 90.7779C409.573 90.1096 408.599 89.1526 408.045 89.8289C406.368 91.8766 404.945 94.074 403.809 96.4425C403.437 97.2204 404.628 97.9047 405.003 97.1215C406.087 94.8599 407.422 92.7294 409.021 90.7753L409.024 90.7779Z" fill="#BC4120"/>
<path d="M418.947 94.5979C419.129 95.3837 420.248 95.0498 420.063 94.264C419.677 92.6171 418.981 91.1433 418.013 89.8152C417.549 89.18 416.733 90.0763 417.193 90.7065C418.036 91.8614 418.612 93.1744 418.947 94.5979Z" fill="#BC4120"/>
<path d="M398.851 169.938C395.788 179.008 390.587 187.186 386.182 195.648C383.882 200.065 381.525 204.425 378.987 208.71C376.527 212.864 374.283 217.152 371.482 221.097C368.5 225.296 365.201 229.355 363.226 234.147C362.919 234.889 364.139 235.211 364.441 234.477C366.248 230.092 369.27 226.298 372.031 222.477C374.823 218.608 377.102 214.444 379.494 210.335C384.417 201.879 388.95 193.211 393.577 184.593C396.059 179.968 398.389 175.246 400.07 170.271C400.327 169.509 399.112 169.181 398.856 169.941L398.851 169.938Z" fill="#873312"/>
<path d="M439.867 201.572C439.867 200.797 438.851 200.797 438.851 201.572C438.857 205.625 439.023 209.674 439.045 213.728C439.05 214.503 440.066 214.503 440.062 213.728C440.04 209.674 439.874 205.623 439.867 201.572Z" fill="#873312"/>
<path d="M433.396 129.205C431.218 132.01 430.775 135.681 429.655 138.945C428.228 143.089 425.986 146.939 424.167 150.918C420.549 158.835 417.149 166.847 413.396 174.704C409.654 182.531 405.579 190.205 400.868 197.508C395.991 205.064 390.581 212.271 385.021 219.346C379.84 225.938 374.978 233.396 367.709 237.954C367.025 238.381 367.659 239.462 368.344 239.03C374.797 234.985 379.397 228.688 383.948 222.764C389.315 215.771 394.767 208.865 399.699 201.557C409.589 186.903 416.649 170.824 423.818 154.764C425.798 150.325 428.082 146.017 429.979 141.546C430.823 139.559 431.404 137.529 431.996 135.46C432.564 133.48 433.205 131.49 434.489 129.838C434.981 129.202 433.888 128.581 433.401 129.21L433.396 129.205Z" fill="#873312"/>
<path d="M390.272 170.848C385.53 165.049 379.792 160.184 374.683 154.724C370.229 149.96 365.826 144.972 362.242 139.512C360.314 136.574 358.586 133.425 357.738 129.995C357.547 129.221 356.348 129.55 356.539 130.324C358.09 136.593 362.25 142.076 366.273 146.99C370.702 152.401 375.504 157.439 380.503 162.323C383.587 165.338 386.658 168.38 389.39 171.721C389.895 172.339 390.773 171.456 390.269 170.843L390.272 170.848Z" fill="#873312"/>
<path d="M382.543 96.3261C382.509 96.0758 382.407 95.8181 382.306 95.5826C381.355 93.3498 380.481 91.0847 379.643 88.8073C379.33 87.9548 379.018 87.0973 378.712 86.2399C378.52 85.7021 378.371 85.1495 378.142 84.6266C377.971 84.24 377.67 83.5758 377.171 83.5436C376.867 83.5263 376.729 83.8584 376.65 84.1012C376.393 84.8942 376.259 85.7219 376.045 86.5273C375.815 87.3798 375.588 88.2348 375.358 89.0873C374.782 91.2384 374.204 93.3919 373.629 95.5455C373.505 96.0014 373.365 96.5714 373.582 97.0225C373.772 97.4115 374.148 97.4685 374.538 97.4512C376.65 97.3545 378.767 97.357 380.878 97.4561C381.17 97.4685 381.466 97.4834 381.75 97.419C382.244 97.305 382.612 96.849 382.541 96.3236L382.543 96.3261ZM376.292 90.2694C376.637 89.0774 376.998 87.8904 377.319 86.6934C378.287 89.972 379.806 93.0648 381.19 96.1923C379.043 96.2121 376.897 96.0708 374.755 96.1972C375.316 94.2345 375.728 92.2321 376.294 90.2694H376.292Z" fill="#BB661E"/>
<path d="M352.809 280.605C352.787 279.985 352.787 278.917 352.196 278.524C352.206 278.131 351.909 277.741 351.449 277.921C348.23 279.187 344.751 279.377 341.339 279.589C337.751 279.812 334.094 280.437 330.514 279.832C330.096 279.762 329.807 280.075 329.747 280.402L329.577 280.597C329.144 281.345 329.292 282.4 329.332 283.223C329.369 284.034 329.196 285.019 329.409 285.799C329.607 286.537 330.289 286.725 330.964 286.785C332.529 286.922 334.131 286.967 335.701 286.955C338.846 286.932 342.066 286.327 345.156 285.769C346.749 285.482 348.331 285.132 349.882 284.659C350.732 284.401 352.05 284.161 352.582 283.333C353.056 282.596 352.841 281.435 352.811 280.6L352.809 280.605Z" fill="#BB661E"/>
<path d="M351.372 274.359C350.165 275.24 348.656 275.616 347.212 275.897C345.592 276.211 343.937 276.361 342.29 276.414C340.492 276.471 338.694 276.524 336.896 276.587C334.792 276.66 332.666 276.642 330.65 275.975C329.88 275.719 329.549 276.936 330.317 277.189C332.333 277.859 334.481 277.919 336.585 277.856C338.559 277.798 340.534 277.741 342.508 277.668C345.572 277.553 349.441 277.324 352.008 275.448C352.655 274.976 352.028 273.883 351.374 274.362L351.372 274.359Z" fill="#BB661E"/>
<path d="M356.925 203.859C355.699 208.951 355.753 214.164 355.449 219.332C355.144 224.516 353.808 229.694 354.153 234.898C354.204 235.695 355.647 235.7 355.595 234.898C355.256 229.801 356.555 224.737 356.871 219.66C357.193 214.497 357.089 209.279 358.316 204.192C358.506 203.409 357.115 203.074 356.925 203.862V203.859Z" fill="#873312"/>
<path d="M435.055 245.211C434.047 245.525 432.971 245.464 431.927 245.597C430.629 245.763 429.329 245.918 428.031 246.086C425.36 246.434 422.714 246.94 420.038 247.26C414.689 247.904 409.304 248.263 403.92 248.47C398.573 248.675 393.216 248.598 387.872 248.837C382.503 249.078 377.166 249.76 371.789 249.89C368.816 249.96 365.845 249.975 362.875 250.143C361.609 250.216 360.359 250.356 359.101 250.495C357.897 250.628 356.644 250.748 355.471 250.394C354.7 250.16 354.37 251.327 355.139 251.561C357.206 252.188 359.413 251.597 361.507 251.44C364.118 251.243 366.744 251.161 369.36 251.132C374.857 251.067 380.296 250.512 385.775 250.165C391.234 249.82 396.718 249.924 402.183 249.746C407.627 249.567 413.071 249.251 418.485 248.654C421.433 248.328 424.361 247.897 427.285 247.417C428.717 247.183 430.165 247.08 431.6 246.87C432.851 246.687 434.177 246.759 435.39 246.381C436.154 246.142 435.827 244.975 435.058 245.216L435.055 245.211Z" fill="#A47E2A"/>
<path d="M403.738 107.679C401.741 107.679 399.861 107.442 397.892 107.143C396.092 106.872 394.218 106.624 392.581 105.755C391.184 105.013 389.804 103.909 388.63 102.836C387.355 101.67 386.43 100.314 386.188 98.5422C386.075 97.7221 384.866 98.0703 384.978 98.8852C385.223 100.662 386.128 102.165 387.372 103.396C388.63 104.641 390.172 105.845 391.689 106.727C393.398 107.723 395.35 108.056 397.267 108.347C399.449 108.677 401.526 108.974 403.738 108.971C404.545 108.971 404.545 107.676 403.738 107.676V107.679Z" fill="#BC4120"/>
<path d="M401.994 51.1676C398.863 57.3191 393.092 62.0252 387.662 65.9987C387.023 66.4663 387.637 67.554 388.286 67.0814C393.885 62.9829 399.825 58.1493 403.057 51.8003C403.423 51.0851 402.36 50.45 401.994 51.1676Z" fill="#C8813D"/>
<path d="M384.491 55.849C381.468 58.3578 378.475 60.7721 374.517 61.7926C373.741 61.9934 374.07 63.1368 374.848 62.936C379.019 61.8588 382.189 59.3287 385.374 56.6877C385.98 56.1845 385.092 55.3482 384.488 55.849H384.491Z" fill="#C8813D"/>
<path d="M377.522 32.7083C373.826 33.5517 370.101 34.8615 367.135 37.3155C364.145 39.7923 362.607 43.3293 362.571 47.2077C362.564 48.0308 363.832 48.0308 363.839 47.2077C363.87 43.551 365.367 40.3275 368.227 38.0621C370.997 35.8655 374.463 34.7163 377.858 33.9416C378.653 33.7607 378.315 32.5273 377.522 32.7083Z" fill="#C8813D"/>
<path d="M536.209 95.8249C536.209 95.8249 522.659 93.8249 516.541 93.8355C510.224 93.8461 496.98 95.6079 496.98 95.6079C496.98 95.6079 495.467 97.5206 495.808 98.9676C496.172 100.51 497.641 101.351 499.062 101.034C504.809 99.756 510.533 99.5285 516.416 99.5179C519.351 99.5126 522.285 99.4994 525.217 99.5549C528.107 99.6078 530.804 99.7824 533.512 100.61C534.855 101.023 536.496 100.206 536.85 98.7057C537.201 97.2243 536.207 95.8222 536.207 95.8222L536.209 95.8249Z" fill="#FCF2E6"/>
<path d="M573.58 283.621C573.965 263.567 574.273 243.512 574.493 223.457C574.978 222.819 575.191 221.976 574.988 221.172C574.901 220.818 574.74 220.499 574.53 220.224V219.987C574.568 216.545 569.21 216.408 569.157 219.848C550.364 224.44 531.821 230.046 513.639 236.649C509.887 238.011 505.096 239.216 502.65 242.564C501.8 243.016 501.127 243.874 501.214 244.847C504.479 280.735 508.053 316.596 511.945 352.424C515.825 388.13 535.911 523.059 535.911 523.059L565.853 517.142C565.853 517.142 572.859 321.221 573.577 283.621H573.58Z" fill="#D65938"/>
<path d="M512.894 348.523C513.212 334.207 513.624 319.892 514.126 305.581C514.382 305.194 514.535 304.737 514.525 304.231C514.211 286.836 513.897 269.443 513.584 252.051C513.506 247.764 513.594 243.437 513.345 239.155C513.285 238.107 513.127 237.143 512.552 236.245C511.762 235.007 510.359 234.301 508.891 234.286C507.915 234.276 506.946 234.526 505.992 234.71C504.933 234.915 503.864 235.087 502.795 235.227C494.817 236.28 486.358 235.559 478.199 235.691C475.986 235.726 473.767 235.803 471.564 236.023C469.21 236.26 466.944 236.734 465.034 238.204C462.226 240.365 461.428 245.206 464.101 247.671C464.203 282.708 465.007 317.741 466.525 352.745C468.071 388.406 470.352 424.037 473.368 459.606C475.065 479.649 479.271 524.875 479.271 524.875L506.364 520.286C506.364 520.286 512.276 376.366 512.894 348.523Z" fill="#D65938"/>
<path d="M557.846 252.568C555.664 254.183 553.182 255.285 550.651 256.211C548.087 257.147 545.478 258.063 542.857 258.815C537.163 260.45 531.215 261.248 525.411 262.387C519.374 263.57 513.289 264.652 507.14 264.999C500.959 265.351 494.802 264.737 488.671 263.982C485.317 263.572 481.781 263.426 478.544 262.395C477.088 261.929 475.739 261.265 474.383 260.571C473.16 259.945 471.759 259.326 470.932 258.171C470.467 257.522 469.369 258.126 469.841 258.782C471.215 260.697 473.717 261.736 475.794 262.674C478.492 263.894 481.242 264.327 484.152 264.684C490.661 265.484 497.188 266.42 503.761 266.37C510.02 266.322 516.251 265.379 522.395 264.241C525.466 263.673 528.522 263.021 531.595 262.458C534.651 261.897 537.719 261.394 540.743 260.669C543.92 259.909 547.021 258.817 550.104 257.736C553.023 256.709 555.935 255.529 558.445 253.67C559.083 253.197 558.489 252.085 557.841 252.566L557.846 252.568Z" fill="#873312"/>
<path d="M535.714 59.3773C535.736 57.8009 534.554 56.2618 533.085 56.3015C532.027 56.3313 531.058 56.9892 530.596 57.9946C521.744 59.2606 512.754 59.9259 503.789 60.0277C502.646 60.0401 501.428 60.8792 501.134 62.18C500.137 66.6013 499.585 71.1442 499.534 75.6995C499.437 75.9949 499.384 76.3127 499.391 76.6503C499.637 89.2041 499.884 101.758 500.13 114.312C500.155 115.551 500.863 116.985 502.046 117.263C509.331 118.969 516.762 120.647 524.238 119.478C527.532 118.961 530.691 117.469 532.768 114.461C533.883 112.845 534.561 110.869 534.767 108.838C534.933 108.468 535.031 108.053 535.036 107.604C535.262 91.5277 535.485 75.4513 535.711 59.3773H535.714Z" fill="#F3965E"/>
<path d="M537.928 30.9444C536.261 25.6522 532.975 21.0061 527.301 17.735C521.207 14.2217 513.966 13.0964 506.935 13.3534C498.617 13.6603 491.119 14.8131 483.576 18.3662C482.489 18.8777 482.856 21.3305 482.696 23.5687C482.669 24.1675 482.644 24.7689 482.622 25.3702C482.437 30.1734 482.392 34.9841 482.489 39.7923C482.654 47.8617 483.049 56.0409 484.223 64.033C485.093 69.949 486.832 76.2219 490.987 80.7182C493.198 83.1111 496.171 84.8951 499.375 85.5564C503.445 86.3972 507.612 85.8558 511.573 84.7155C518.781 82.642 525.505 79.0689 530.11 73.0206C534.347 67.4564 536.314 60.4773 537.808 53.7553C539.499 46.1376 540.141 37.9684 537.928 30.9419V30.9444Z" fill="#F3965E"/>
<path d="M543.576 20.8442C543.624 18.868 543.479 16.9441 542.753 15.2662C539.931 8.74369 533.171 13.4616 528.702 10.2948C528.231 10.0462 527.764 9.78272 527.308 9.51675C522.989 7.00617 518.628 4.0233 513.634 3.77721C507.893 3.49136 502.038 6.90177 496.619 5.00019C493.658 3.96116 491.378 1.46798 488.404 0.46623C484.906 -0.712003 480.885 0.436401 478.106 2.85998C472.096 8.09989 470.387 20.0587 476.956 25.6143C477.679 26.2258 478.502 26.7378 479.099 27.4736C480.181 28.8084 480.341 30.6404 480.456 32.3531C480.715 36.1935 480.975 40.034 481.234 43.8769C481.319 45.1098 481.731 46.6932 482.968 46.7802C483.07 42.5744 483.17 38.371 483.272 34.1652C483.312 32.4898 483.484 30.5559 484.864 29.5964C486.451 28.4903 488.599 29.3329 490.39 30.0613C497.707 33.0391 505.992 33.6034 513.651 31.6447C517.097 30.7622 521.238 29.5417 523.83 31.9703C525.512 33.5438 525.781 36.0668 525.886 38.3636C526.088 42.8279 526.093 49.4648 525.823 53.9242C525.773 54.7793 525.706 55.6567 525.352 56.4373C524.998 57.2178 524.379 57.8442 523.748 58.4283C520.722 61.2223 516.638 63.4694 512.606 62.5869C509.086 61.8164 506.352 58.8136 502.807 58.1574C499.099 57.4713 495.484 59.4823 491.767 60.1112C488.771 60.6207 486.259 60.1087 483.499 58.841C482.447 65.1622 480.715 69.5544 481.766 75.8756C482.813 82.1968 486.366 88.4708 492.234 91.0932C495.928 92.7437 500.135 92.8059 504.166 92.4479C513.549 91.6152 523.189 88.3365 529.279 81.1752C530.057 80.2604 530.785 79.2587 531.077 78.0979C531.357 76.9942 531.222 75.8358 531.085 74.7048C530.401 69.0747 529.718 63.4445 529.034 57.8144C528.832 56.1464 528.635 54.4139 529.144 52.8131C529.625 51.3042 531.329 46.4919 533.073 46.5242C534.308 46.5466 535.216 48.8061 535.775 50.8469C535.915 51.3589 536.032 51.8536 536.127 52.301C536.222 52.746 536.296 53.1412 536.346 53.4445C536.808 55.2516 536.047 57.1954 535.678 58.9031C535.393 60.0391 535.179 61.2148 535.017 62.4154C534.368 67.2104 534.573 72.3782 534.622 77.0762C534.647 79.5495 536.099 77.3323 536.571 76.5492C537.721 74.6328 538.257 71.9333 538.918 69.8055C540.273 65.443 541.348 60.9961 542.137 56.4969C544.217 44.6027 543.284 32.8179 543.576 20.8442Z" fill="#FACFA6"/>
<path d="M538.747 43.4347C536.921 41.6692 534.232 42.3023 532.616 43.9668C531.322 45.301 530.397 47.0892 529.754 48.7967C529.059 50.6404 528.85 52.6278 529.271 54.5597C529.353 54.9355 529.477 55.2659 529.635 55.556C529.738 55.9091 529.891 56.2521 530.11 56.585C530.893 57.7628 532.347 58.2874 533.729 58.0705C535.803 57.7452 537.143 55.8561 538.003 54.1335C538.791 52.5496 539.292 50.8346 539.638 49.112C540.028 47.175 540.335 44.9681 538.747 43.4322V43.4347Z" fill="#F3965E"/>
<path d="M567.147 115.603C560.077 111.718 552.654 108.472 544.993 105.926C542.762 102.642 536.671 95.4966 536.323 95.8853C529.46 103.546 522.07 110.724 514.213 117.376C507.992 111.158 497.645 95.098 496.979 95.6661C493.994 98.2273 487.164 103.063 487.124 103.285C478.91 106.287 462.461 113.834 462.461 113.834C462.461 113.834 463.783 149.155 464.457 164.425C465.165 180.487 466.207 196.535 467.581 212.555C468.357 221.591 469.239 230.618 470.223 239.634C470.258 239.945 470.33 240.257 470.44 240.551C470.055 240.77 469.719 241.074 469.487 241.453C468.695 242.728 469.159 244.33 470.368 245.138C480.615 251.997 493.333 254.142 505.486 253.571C512.245 253.252 518.953 252.188 525.577 250.851C531.471 249.66 537.397 248.401 543.137 246.6C549.549 244.587 555.673 241.794 560.88 237.506C561.797 236.751 561.909 235.364 561.399 234.34C562.53 219.787 563.659 205.232 564.791 190.68C565.945 175.806 567.102 160.929 568.259 146.053C568.912 137.637 569.565 129.223 570.219 120.807C570.306 119.684 568.076 116.111 567.149 115.603H567.147Z" fill="#FEDE8D"/>
<path d="M473.286 203.163C473.429 195.413 473.36 187.66 473.08 179.913C472.368 160.247 469.699 140.926 467.089 121.452C466.844 119.617 467.008 114.912 465.466 113.672C463.745 112.287 461.228 114.311 460.165 115.643C452.134 125.699 447.592 138.512 444.967 151.064C442.652 162.14 440.213 208.376 446.393 218.497C449.779 224.041 454.334 228.668 458.258 233.794C462.579 239.438 467.966 237.41 471.867 243.367C471.867 243.367 472.741 218.086 472.918 214.588C473.11 210.785 473.215 206.974 473.286 203.165V203.163Z" fill="#FEDE8D"/>
<path d="M512.903 118.068C512.327 118.75 511.581 119.249 510.951 119.877C510.313 120.511 509.724 121.192 509.084 121.823C508.034 122.851 506.921 123.838 506.059 125.039C505.367 124.398 504.828 123.597 504.252 122.851C503.609 122.022 502.88 121.274 502.188 120.49C500.593 118.689 499.056 116.84 497.563 114.949C494.572 111.164 491.774 107.221 489.082 103.206C488.632 102.537 487.542 103.148 487.997 103.824C490.748 107.93 493.611 111.96 496.666 115.832C498.193 117.766 499.768 119.658 501.402 121.498C502.156 122.347 502.927 123.167 503.614 124.075C504.244 124.907 504.867 125.703 505.676 126.359C505.802 126.464 505.93 126.497 506.049 126.487C506.294 126.576 506.583 126.527 506.763 126.237C507.651 124.802 508.961 123.729 510.135 122.553C510.706 121.981 511.235 121.368 511.806 120.798C512.436 120.17 513.183 119.674 513.759 118.989C514.278 118.374 513.425 117.445 512.903 118.066V118.068Z" fill="#A24E22"/>
<path d="M543.237 106.011C542.326 106.429 541.65 107.168 541.003 107.913C540.312 108.71 539.566 109.442 538.83 110.197C537.007 112.066 535.283 114.029 533.455 115.89C531.607 117.77 529.642 119.537 527.715 121.335C526.748 122.237 525.76 123.116 524.818 124.043C524.32 124.532 523.8 124.98 523.417 125.54C523.038 125.188 522.602 124.899 522.193 124.552C521.378 123.863 520.583 123.131 519.811 122.394C518.364 121.009 517.222 119.335 515.66 118.066C515.031 117.554 514.104 118.428 514.739 118.942C516.219 120.145 517.311 121.715 518.661 123.047C519.38 123.757 520.147 124.413 520.895 125.089C521.512 125.643 522.434 126.127 522.871 126.829C523.135 127.249 523.65 127.188 523.917 126.917C524.072 126.859 524.209 126.74 524.285 126.548C524.643 125.671 525.76 124.873 526.435 124.238C527.357 123.367 528.304 122.526 529.228 121.66C531.023 119.983 532.851 118.329 534.567 116.569C536.233 114.86 537.817 113.069 539.477 111.352C540.226 110.577 541.011 109.842 541.714 109.027C542.344 108.3 542.96 107.53 543.854 107.12C544.598 106.778 543.979 105.666 543.237 106.008V106.011Z" fill="#A24E22"/>
<path d="M505.373 240.062C505.677 235.946 505.904 231.833 506.038 227.709C506.313 219.099 506.333 210.481 506.507 201.87C506.677 193.292 507.036 184.724 507.854 176.186C508.666 167.709 509.852 159.278 511.207 150.879C511.972 146.128 512.47 141.36 512.949 136.572C513.173 134.318 513.425 132.077 513.573 129.816C513.721 127.565 513.867 125.292 514.497 123.12C514.719 122.353 513.59 121.925 513.367 122.697C512.295 126.397 512.401 130.379 511.989 134.194C511.525 138.504 511.187 142.832 510.582 147.127C509.393 155.566 507.948 163.947 507.031 172.428C505.177 189.604 505.371 206.845 504.942 224.094C504.825 228.825 504.648 233.553 504.304 238.275C503.961 242.976 503.56 247.682 503.638 252.403C503.653 253.2 504.849 253.304 504.835 252.5C504.765 248.347 505.069 244.203 505.376 240.067L505.373 240.062Z" fill="#A24E22"/>
<path d="M466.051 176.609C464.334 184.69 462.877 192.828 460.67 200.802C460.454 201.58 461.694 201.939 461.91 201.161C464.117 193.187 465.572 185.049 467.289 176.968C467.456 176.185 466.216 175.821 466.051 176.606V176.609Z" fill="#A24E22"/>
<path d="M531.973 543.272C531.741 505.429 532.377 467.607 533.252 429.765C533.77 407.324 534.097 384.878 534.519 362.434C534.732 351.015 534.949 339.597 535.162 328.178C535.346 318.422 533.491 307.233 536.688 297.849C538.133 293.612 532.558 294.385 530.907 296.779C528.587 300.141 530.364 310.353 530.296 314.417C530.077 327.774 529.859 341.13 529.642 354.487C529.258 378.097 529.177 401.745 528.25 425.318C527.88 434.71 527.448 444.096 527.079 453.488C526.709 462.881 526.405 472.278 526.289 481.679C525.983 506.739 527.556 531.603 525.472 556.65C524.743 565.446 532.221 567.615 532.098 557.593C532.04 552.82 531.998 548.05 531.97 543.277L531.973 543.272Z" fill="#873312"/>
<path d="M560.117 285.159C559.821 284.787 559.464 284.449 559.042 284.164C554.199 280.845 541.505 284.075 536.387 285.563C525.522 288.721 526.808 302.878 528.032 311.825C527.779 312.204 527.62 312.638 527.61 313.074C527.575 314.606 528.608 315.675 530.092 315.897C532.289 316.224 534.796 315.949 536.203 314.025C539.222 309.889 536.69 301.939 536.948 297.084C537.062 294.931 556.684 293.571 559.365 291.544C561.509 289.918 561.648 287.078 560.122 285.159H560.117Z" fill="#873312"/>
<path d="M584.836 243.291C582.689 242.567 580.379 242.126 578.145 241.776C575.349 241.34 572.576 240.773 569.775 240.379C566.496 239.92 563.196 239.63 559.922 239.141C559.4 239.061 559.113 239.396 559.064 239.798C554.647 244.431 551.405 249.99 548.01 255.375C544.302 261.261 540.07 266.81 536.526 272.801C535.326 274.833 533.67 276.729 532.513 278.832C530.316 280.107 528.647 282.133 527.139 284.137C525.63 286.138 524.355 288.723 524.979 291.286C525.104 291.797 525.585 291.994 526.064 291.937C526.398 291.895 526.68 291.76 526.922 291.57L526.909 291.665C526.762 293.185 526.981 296.236 528.598 296.997C530.343 297.818 531.269 295.39 531.498 294.12C531.683 293.095 531.665 291.955 532.224 291.041C532.323 290.879 532.433 290.727 532.543 290.577C532.234 291.722 531.947 292.86 531.91 294.083C531.87 295.448 531.895 297.349 533.229 298.14C534.728 299.031 535.645 297.407 536.062 296.211C536.144 295.969 536.68 292.174 536.75 291.922C536.84 292.75 536.179 295.563 536.917 297.823C537.162 298.574 537.88 299.211 538.745 299.033C539.426 298.894 539.888 298.257 540.209 297.691C540.611 296.98 540.903 296.204 541.187 295.44C541.514 294.562 541.681 294.168 542.177 293.309C542.828 292.189 543.634 291.109 544.788 290.47C547.197 289.135 550.18 289.132 552.193 287.134C554.589 284.756 556.886 282.271 559.161 279.778C563.316 275.224 567.314 270.531 571.296 265.83C573.873 262.788 576.352 259.457 579.058 256.445C580.372 254.983 581.828 253.601 583.34 252.341C584.809 251.118 586.622 250.207 587.729 248.603C588.173 247.962 588.485 247.176 588.353 246.41C588.078 244.815 586.225 243.76 584.836 243.291Z" fill="#F3965E"/>
<path d="M493.233 36.3472C489.267 36.1357 484.27 37.3713 483.691 39.9468C483.357 41.4371 485.189 42.0128 486.322 42.1886C488.648 42.5478 491.026 42.3695 493.319 41.8753C494.845 41.5466 497.702 41.0957 498.131 39.2615C498.555 37.4604 496.178 36.5051 493.233 36.3472Z" fill="#FACFA6"/>
<path d="M520.518 39.1988C520.391 38.6924 520.059 38.1809 519.462 37.7072C517.492 36.1475 513.918 36.2432 511.586 36.4171C510.007 36.5355 507.355 37.0722 506.756 38.8914C505.815 41.7513 511.791 42.0385 513.29 42.1721C514.656 42.293 516.074 42.4215 517.443 42.3636C519.303 42.2855 520.912 40.7736 520.521 39.1988H520.518Z" fill="#FACFA6"/>
<path d="M590.596 148.841C587.346 140.436 583.063 132.454 577.55 125.211C574.954 121.648 566.988 115.63 566.988 115.63C566.988 115.63 555.728 143.29 551.958 157.697C550.901 161.734 549.935 165.797 549.055 169.874C548.934 170.438 549.312 170.85 549.747 170.977C552.745 186.8 555.517 202.665 558.049 218.569C558.733 222.854 559.398 227.141 560.046 231.428C557.403 235.653 554.516 239.72 551.392 243.607C551.256 243.78 551.201 243.952 551.206 244.112C551.012 244.554 551.12 245.178 551.704 245.418C562.086 249.692 572.758 253.245 583.639 256.049C584.107 256.169 584.471 255.942 584.653 255.612C584.859 255.687 585.1 255.67 585.349 255.505C588.554 253.378 591.044 250.414 592.553 246.921C600.611 237.682 598.951 215.713 599.226 204.347C599.673 185.916 597.402 166.448 590.593 148.841H590.596Z" fill="#FEDE8D"/>
<path d="M501.005 46.7926C501.208 48.3318 501.459 50.2449 500.323 51.5017C499.511 52.3972 498.336 52.7762 497.829 53.9618C496.857 56.2412 498.814 58.3757 501.083 58.0908C501.882 57.9915 501.572 56.7526 500.777 56.8543C499.459 57.0197 498.393 55.6281 499.015 54.379C499.456 53.4937 500.536 53.1171 501.193 52.4252C502.71 50.8275 502.494 48.4997 502.226 46.4823C502.118 45.6707 500.9 45.9862 501.008 46.7926H501.005Z" fill="#BC4120"/>
<path d="M504.175 66.592C505.867 66.5084 507.334 65.19 507.837 63.2361C508.059 62.3749 506.945 61.9735 506.722 62.832C506.379 64.1671 505.373 65.1343 504.202 65.1928C503.458 65.2291 503.426 66.6283 504.175 66.592Z" fill="#BC4120"/>
<path d="M532.79 50.4282C533.247 48.5867 534.39 45.0947 537.312 46.2015C538.11 46.5036 538.492 45.3388 537.699 45.0391C536.282 44.5026 534.696 44.9038 533.613 45.8439C532.325 46.9603 531.874 48.5602 531.495 50.0778C531.307 50.8366 532.597 51.1895 532.788 50.4282H532.79Z" fill="#BC4120"/>
<path d="M515.101 48.7206C514.756 48.9003 514.272 48.9602 513.639 49.0249C512.878 49.1016 512.474 48.7997 512.252 48.1287C511.897 47.0623 512.12 44.9774 513.558 44.824C514.465 44.7282 515.233 44.8768 515.536 45.7778C515.654 46.1277 515.702 46.5039 515.724 46.8777L515.732 47.0527C515.768 48.0208 515.561 48.4785 515.101 48.7206Z" fill="#873312"/>
<path d="M493.246 47.3337C492.945 48.5614 491.116 48.6114 490.092 48.1988C488.772 47.6687 488.951 45.9185 489.572 44.8608C490.138 43.8956 490.875 44.2207 491.872 44.3607C492.872 44.5007 493.153 45.1158 493.289 45.9635C493.365 46.4335 493.349 46.9161 493.248 47.3312L493.246 47.3337Z" fill="#873312"/>
<path d="M519.552 46.5943C520.543 46.3137 521.535 46.0331 522.527 45.7525C523.338 45.5223 523.025 43.9869 522.212 44.217C521.22 44.4976 520.228 44.7782 519.237 45.0589C518.426 45.289 518.738 46.8244 519.552 46.5911V46.5943Z" fill="#BC4120"/>
<path d="M520.236 49.0607C521.081 49.6253 521.97 50.0259 522.914 50.2356C523.592 50.3861 523.908 49.093 523.226 48.9424C522.374 48.7542 521.568 48.4209 520.804 47.9128C520.193 47.5041 519.623 48.6521 520.238 49.0607H520.236Z" fill="#BC4120"/>
<path d="M483.947 45.4612C484.132 45.6088 484.317 45.7619 484.504 45.9095C484.628 46.0106 484.846 46.0297 484.993 45.9915C485.142 45.9505 485.304 45.8302 485.377 45.6853C485.557 45.3354 485.456 44.9718 485.17 44.7422C484.985 44.5946 484.8 44.4415 484.616 44.2939C484.492 44.1928 484.271 44.1736 484.127 44.2119C483.978 44.2529 483.816 44.3732 483.74 44.5181C483.56 44.868 483.664 45.2315 483.947 45.4612Z" fill="#BC4120"/>
<path d="M484.241 48.863L484.419 48.7034L484.515 48.6324L484.552 48.6172L484.772 48.5134H484.777L484.927 48.4728C485.285 48.3867 485.553 48.0345 485.44 47.7026C485.333 47.3757 484.964 47.1477 484.58 47.2414C484.08 47.3605 483.612 47.5987 483.259 47.9433C483.008 48.189 482.949 48.5944 483.237 48.8427C483.499 49.0682 483.97 49.124 484.238 48.863H484.241Z" fill="#BC4120"/>
<path d="M493.853 59.0404C494.259 58.3808 494.797 57.8597 495.455 57.4871C496.135 57.1019 495.553 55.9942 494.874 56.3819C494.042 56.8552 493.345 57.54 492.831 58.3783C492.41 59.0631 493.434 59.7227 493.853 59.0404Z" fill="#BC4120"/>
<path d="M506.354 56.8907C507.475 57.583 508.369 58.5028 509.016 59.6117C509.436 60.3322 510.619 59.7139 510.199 58.9908C509.442 57.6929 508.375 56.6122 507.065 55.8023C506.335 55.35 505.627 56.4436 506.357 56.8932L506.354 56.8907Z" fill="#BC4120"/>
<path d="M560.947 230.919C560.923 227.641 560.101 224.454 559.82 221.203C559.532 217.865 559.182 214.55 558.673 211.239C558.165 207.928 557.544 204.642 556.91 201.357C556.27 198.021 555.946 194.631 555.272 191.303C554.54 187.683 553.257 184.168 553.353 180.42C553.375 179.616 552.17 179.586 552.151 180.39C552.067 183.581 552.931 186.605 553.672 189.67C554.471 192.978 554.857 196.356 555.402 199.714C556.491 206.44 557.956 213.056 558.515 219.869C558.822 223.586 559.743 227.287 559.746 231.018L559.801 231.29C558.421 233.274 557.414 235.524 555.838 237.361C554.109 239.38 552.377 241.371 550.95 243.641C550.525 244.316 551.552 244.968 551.974 244.296C553.461 241.931 555.332 239.96 557.054 237.797C558.573 235.89 559.594 233.635 561.022 231.663C561.228 231.379 561.142 231.096 560.943 230.921L560.947 230.919Z" fill="#A24E22"/>
<path d="M589.147 240.342C580.909 238.921 573.654 234.471 565.581 232.491C564.789 232.297 564.423 233.495 565.214 233.689C573.288 235.669 580.542 240.118 588.781 241.54C589.577 241.677 589.949 240.482 589.147 240.342Z" fill="#A24E22"/>
<path d="M510.7 339.296C510.277 335.055 509.93 330.821 509.26 326.612C508.592 322.411 507.874 318.235 507.505 313.991C507.132 309.73 506.979 305.451 506.625 301.188C506.227 296.435 505.6 291.705 505.433 286.935C505.407 286.129 504.205 286.169 504.234 286.977C504.382 291.223 504.892 295.439 505.285 299.668C505.682 303.924 505.847 308.198 506.177 312.459C506.5 316.653 507.099 320.787 507.781 324.933C508.482 329.197 508.944 333.468 509.348 337.774C509.786 342.435 510.727 347.075 510.904 351.755C510.933 352.559 512.134 352.519 512.103 351.713C511.947 347.549 511.112 343.44 510.7 339.301V339.296Z" fill="#873312"/>
<path d="M487.577 25.9732C483.845 27.9494 478.092 27.713 476.409 22.8576C476.134 22.0661 474.937 22.3769 475.217 23.1817C477.194 28.8949 483.647 29.535 488.173 27.1393C488.885 26.7621 488.288 25.5961 487.577 25.9732Z" fill="#C8813D"/>
<path d="M503.629 18.5162C500.381 18.7034 497.008 19.1752 494.176 17.2557C491.379 15.3613 489.959 11.7895 491.851 8.81672C492.289 8.13032 491.186 7.47387 490.75 8.16027C488.735 11.3277 489.779 15.3038 492.616 17.6576C494.062 18.8582 495.748 19.602 497.634 19.8566C499.611 20.1236 501.618 19.8815 503.598 19.7667C504.422 19.7193 504.458 18.4663 503.626 18.5137L503.629 18.5162Z" fill="#C8813D"/>
<path d="M497.589 84.0654C494.564 84.1247 491.923 82.9892 490.519 80.1262C489.231 77.4949 489.098 74.359 489.156 71.4702C489.174 70.6386 487.916 70.6077 487.898 71.4393C487.835 74.6756 488.031 78.2107 489.6 81.102C491.251 84.1427 494.266 85.4223 497.558 85.3579C498.365 85.3425 498.398 84.05 497.589 84.0654Z" fill="#C8813D"/>
</svg>
