<svg width="459" height="408" viewBox="0 0 459 408" fill="none" xmlns="http://www.w3.org/2000/svg">
<path d="M85.9508 216.193C106.848 220.179 105.32 225.569 129.053 225.985C153.894 226.423 204.159 231.466 259.792 225.985C335.796 223.042 403.876 236.642 444.677 307.857C485.483 379.067 417.991 406.886 349.425 399.213C299.721 393.649 262.44 373.962 221.7 367.839C183.895 362.154 128.15 363.452 93.0401 357.831C28.2664 346.223 13.5415 319.337 4.13011 288.818C-4.84012 259.734 1.72793 236.952 85.9508 216.193Z" fill="#C3D87A"/>
<path d="M172.721 230.287C172.552 225.652 168.74 221.944 164.06 221.944C163.11 221.944 162.201 222.099 161.345 222.381C161.783 221.361 162.025 220.238 162.025 219.059C162.025 215.606 159.952 212.639 156.982 211.33C159.423 209.117 160.953 205.924 160.953 202.376C160.953 195.703 155.537 190.292 148.858 190.292C143.252 190.292 138.54 194.103 137.168 199.273C135.901 198.207 134.268 197.564 132.484 197.564C128.668 197.564 125.541 200.498 125.231 204.23C124.096 203.273 122.632 202.696 121.031 202.696C117.424 202.696 114.503 205.616 114.503 209.22C114.503 209.815 114.588 210.389 114.738 210.938C113.765 210.455 112.668 210.18 111.505 210.18C107.484 210.18 104.225 213.436 104.225 217.453C104.225 218.782 104.584 220.026 105.208 221.1C100.374 221.314 96.52 225.295 96.52 230.179V230.287H172.718H172.721Z" fill="#7FAB53"/>
<path d="M134.148 230.287C134.589 228.942 134.832 227.509 134.832 226.018C134.832 218.478 128.722 212.363 121.188 212.363C119.983 212.363 118.815 212.521 117.702 212.814C117.079 207.514 112.581 203.402 107.118 203.402C103.059 203.402 99.5298 205.673 97.7303 209.015L97.739 208.842C97.739 205.128 94.7329 202.119 91.0247 202.119C88.8698 202.119 86.9576 203.14 85.7285 204.719C85.2795 201.562 82.5767 199.133 79.3002 199.133C75.7081 199.133 72.7974 202.046 72.7974 205.64C72.7974 205.842 72.8095 206.038 72.8269 206.235C71.0967 205.116 69.0389 204.467 66.8285 204.467C60.7054 204.467 55.7437 209.435 55.7437 215.563C55.7437 217.581 56.2846 219.471 57.226 221.102C53.6183 222.48 50.0416 221.27 50.0416 225.365C50.0416 225.365 48.3763 224.63 48.5549 227.843C48.7372 231.123 52.0238 230.287 52.0238 230.287H134.15H134.148Z" fill="#90C25E"/>
<path d="M232.241 230.287C232.682 228.942 232.924 227.509 232.924 226.018C232.924 218.478 226.815 212.363 219.281 212.363C218.076 212.363 216.906 212.521 215.795 212.814C215.174 207.514 210.673 203.402 205.211 203.402C201.151 203.402 197.623 205.673 195.822 209.015L195.83 208.842C195.83 205.128 192.826 202.119 189.116 202.119C186.963 202.119 185.049 203.14 183.821 204.719C183.372 201.562 180.67 199.133 177.391 199.133C173.801 199.133 170.89 202.046 170.89 205.64C170.89 205.842 170.902 206.038 170.922 206.235C169.191 205.116 167.134 204.467 164.923 204.467C158.8 204.467 153.837 209.435 153.837 215.563C153.837 217.581 154.378 219.471 155.317 221.102C151.71 222.48 149.146 225.976 149.146 230.072L149.151 230.287H232.243H232.241Z" fill="#90C25E"/>
<path d="M122.201 137.242C122.201 155.381 107.497 170.084 89.362 170.084C71.2269 170.084 56.5249 155.379 56.5249 137.242C56.5249 119.106 71.2234 104.408 89.362 104.408C107.501 104.408 122.201 119.109 122.201 137.242Z" fill="#90C25E"/>
<path d="M88.991 121.357V229.877C88.991 230.104 89.1742 230.287 89.4006 230.287C89.627 230.287 89.8085 230.104 89.8085 229.877V121.357C89.8085 121.129 89.6253 120.946 89.4006 120.946C89.1759 120.946 88.991 121.129 88.991 121.357ZM89.6218 158.939L107.603 147.169C107.792 147.045 107.845 146.79 107.723 146.598C107.6 146.409 107.346 146.355 107.157 146.478L89.1759 158.248C88.9875 158.372 88.9339 158.626 89.0566 158.817C89.1794 159.008 89.4334 159.062 89.6218 158.937V158.939ZM89.6218 132.511L107.603 120.741C107.792 120.618 107.845 120.364 107.723 120.173C107.6 119.982 107.346 119.928 107.157 120.053L89.1759 131.823C88.9875 131.946 88.9339 132.2 89.0566 132.391C89.1794 132.583 89.4334 132.636 89.6218 132.511ZM89.6218 145.425L116.122 128.079C116.311 127.955 116.364 127.7 116.241 127.508C116.119 127.319 115.866 127.265 115.676 127.389L89.1759 144.735C88.9875 144.858 88.9339 145.114 89.0566 145.305C89.1794 145.495 89.4334 145.548 89.6218 145.425ZM94.7014 155.483L104.726 157.557C104.947 157.602 105.163 157.459 105.208 157.237C105.253 157.014 105.111 156.797 104.89 156.75L94.8655 154.676C94.6443 154.631 94.4283 154.775 94.3833 154.996C94.3384 155.219 94.4801 155.436 94.7014 155.481V155.483ZM102.626 149.979L104.489 144.033C104.556 143.815 104.437 143.586 104.223 143.518C104.008 143.449 103.779 143.57 103.709 143.786L101.846 149.733C101.779 149.948 101.898 150.179 102.112 150.247C102.327 150.315 102.557 150.195 102.624 149.979H102.626ZM101.686 137.467L113.398 135.395C113.621 135.355 113.77 135.143 113.73 134.919C113.692 134.696 113.48 134.547 113.257 134.585L101.544 136.657C101.321 136.697 101.172 136.911 101.212 137.133C101.252 137.356 101.463 137.505 101.686 137.467ZM95.3668 141.455L97.6741 135.96C97.7622 135.751 97.6637 135.51 97.4563 135.421C97.2489 135.333 97.0087 135.432 96.9205 135.64L94.6132 141.137C94.5251 141.345 94.6219 141.587 94.831 141.674C95.0384 141.762 95.2786 141.665 95.3668 141.455ZM98.1684 126.841L108.018 126.481C108.245 126.472 108.421 126.281 108.412 126.055C108.404 125.828 108.215 125.65 107.989 125.659L98.139 126.017C97.9126 126.026 97.7363 126.217 97.7449 126.443C97.7536 126.671 97.942 126.848 98.1684 126.839V126.841ZM95.1818 128.59L96.1583 124.174C96.2067 123.954 96.0685 123.733 95.8472 123.684C95.626 123.634 95.4082 123.775 95.3598 123.997L94.3833 128.411C94.335 128.631 94.4732 128.852 94.6944 128.901C94.9157 128.951 95.1334 128.81 95.1818 128.59ZM89.5492 158.248L71.5677 146.478C71.3793 146.355 71.1253 146.409 71.0026 146.598C70.8798 146.79 70.9334 147.043 71.1218 147.169L89.1033 158.939C89.2917 159.062 89.5458 159.008 89.6685 158.819C89.7912 158.627 89.7376 158.374 89.5492 158.25V158.248ZM89.5492 131.821L71.5677 120.051C71.3793 119.928 71.1253 119.982 71.0026 120.171C70.8798 120.362 70.9334 120.616 71.1218 120.74L89.1033 132.51C89.2917 132.633 89.5458 132.579 89.6685 132.39C89.7912 132.198 89.7376 131.945 89.5492 131.821ZM89.5492 144.735L63.0505 127.389C62.8621 127.265 62.6081 127.319 62.4854 127.508C62.3627 127.7 62.4162 127.953 62.6046 128.079L89.1033 145.425C89.2917 145.548 89.5458 145.495 89.6685 145.305C89.7912 145.114 89.7376 144.86 89.5492 144.735ZM83.8613 154.676L73.8353 156.75C73.6141 156.795 73.4723 157.014 73.5173 157.237C73.5622 157.459 73.7782 157.602 73.9995 157.557L84.0255 155.483C84.2467 155.438 84.3884 155.22 84.3435 154.998C84.2986 154.775 84.0825 154.633 83.8613 154.678V154.676ZM76.8789 149.731L75.0157 143.784C74.9483 143.567 74.7185 143.447 74.5041 143.516C74.2881 143.584 74.1688 143.815 74.238 144.031L76.1011 149.978C76.1685 150.193 76.3984 150.315 76.6127 150.245C76.8287 150.178 76.948 149.946 76.8789 149.731ZM77.1813 136.655L65.4719 134.583C65.249 134.545 65.0381 134.695 64.9983 134.917C64.9586 135.141 65.1072 135.353 65.3302 135.393L77.0396 137.465C77.2625 137.504 77.4734 137.354 77.5132 137.132C77.5529 136.909 77.4043 136.695 77.1813 136.655ZM84.1136 141.135L81.8063 135.638C81.7182 135.43 81.4779 135.331 81.2705 135.419C81.0631 135.508 80.9646 135.748 81.0528 135.958L83.3601 141.453C83.4482 141.663 83.6885 141.761 83.8959 141.672C84.1033 141.585 84.2018 141.344 84.1136 141.135ZM80.5861 126.019L70.7381 125.661C70.5117 125.652 70.3233 125.829 70.3147 126.057C70.306 126.283 70.4823 126.474 70.7087 126.483L80.5567 126.843C80.7831 126.851 80.9715 126.674 80.9802 126.446C80.9888 126.22 80.8125 126.029 80.5861 126.02V126.019ZM84.3435 128.412L83.3687 123.999C83.3203 123.778 83.1008 123.637 82.8813 123.686C82.6618 123.736 82.5218 123.955 82.5702 124.176L83.545 128.591C83.5934 128.812 83.8129 128.953 84.0324 128.903C84.2519 128.852 84.3919 128.633 84.3435 128.412Z" fill="#873312"/>
<path d="M167.669 161.426C167.669 172.021 159.095 180.609 148.514 180.609C137.934 180.609 129.358 172.021 129.358 161.426V123.587C129.358 112.995 137.934 104.408 148.514 104.408C159.095 104.408 167.669 112.995 167.669 123.587V161.426Z" fill="#C6D76B"/>
<path d="M148.158 123.342V229.877C148.158 230.105 148.344 230.287 148.573 230.287C148.802 230.287 148.985 230.105 148.985 229.877V123.342C148.985 123.115 148.802 122.932 148.573 122.932C148.344 122.932 148.158 123.115 148.158 123.342ZM149.282 135.982L158.03 129.204C158.21 129.065 158.241 128.806 158.101 128.627C157.962 128.448 157.701 128.417 157.521 128.556L148.774 135.335C148.594 135.474 148.562 135.732 148.702 135.911C148.842 136.09 149.102 136.121 149.282 135.982ZM149.094 151.115L165.387 139.819C165.574 139.69 165.62 139.433 165.49 139.248C165.361 139.062 165.102 139.017 164.915 139.145L148.62 150.441C148.433 150.57 148.387 150.827 148.517 151.013C148.648 151.199 148.905 151.244 149.094 151.115ZM149.083 168.672L161.605 160.504C161.796 160.381 161.85 160.126 161.724 159.936C161.6 159.745 161.343 159.693 161.152 159.818L148.63 167.986C148.44 168.111 148.386 168.365 148.511 168.556C148.636 168.745 148.893 168.799 149.083 168.674V168.672ZM153.912 165.426L160.086 166.818C160.308 166.868 160.53 166.729 160.581 166.508C160.631 166.288 160.492 166.067 160.27 166.017L154.096 164.626C153.874 164.575 153.652 164.714 153.601 164.935C153.55 165.155 153.69 165.376 153.912 165.426ZM156.427 145.931L159.512 140.198C159.621 139.998 159.544 139.748 159.343 139.642C159.142 139.534 158.892 139.611 158.783 139.81L155.697 145.543C155.589 145.743 155.666 145.992 155.867 146.099C156.07 146.207 156.32 146.131 156.427 145.931ZM153.753 132.412L160.1 133.627C160.324 133.671 160.542 133.525 160.584 133.303C160.628 133.08 160.481 132.865 160.257 132.821L153.911 131.607C153.687 131.564 153.47 131.71 153.426 131.932C153.383 132.155 153.529 132.37 153.753 132.413V132.412ZM148.254 135.333L139.507 128.554C139.327 128.415 139.066 128.446 138.927 128.625C138.787 128.804 138.818 129.063 138.998 129.202L147.746 135.981C147.926 136.12 148.184 136.088 148.326 135.909C148.466 135.731 148.434 135.472 148.254 135.333ZM148.408 150.44L132.113 139.143C131.926 139.013 131.667 139.06 131.538 139.246C131.407 139.432 131.452 139.689 131.639 139.817L147.934 151.113C148.122 151.244 148.38 151.197 148.511 151.011C148.643 150.825 148.595 150.568 148.408 150.44ZM148.398 167.985L135.876 159.816C135.685 159.691 135.428 159.745 135.304 159.935C135.178 160.124 135.232 160.379 135.423 160.503L147.943 168.671C148.136 168.796 148.391 168.742 148.517 168.553C148.643 168.362 148.588 168.108 148.398 167.983V167.985ZM142.934 164.624L136.759 166.015C136.537 166.065 136.397 166.286 136.447 166.507C136.498 166.727 136.72 166.866 136.942 166.816L143.118 165.425C143.34 165.374 143.479 165.154 143.429 164.933C143.378 164.713 143.156 164.574 142.934 164.624ZM141.331 145.543L138.245 139.81C138.136 139.611 137.886 139.534 137.685 139.642C137.484 139.75 137.407 139.998 137.516 140.198L140.602 145.931C140.71 146.131 140.96 146.207 141.161 146.099C141.362 145.992 141.437 145.743 141.331 145.543ZM143.119 131.606L136.773 132.82C136.549 132.863 136.402 133.079 136.444 133.301C136.488 133.523 136.704 133.669 136.928 133.626L143.275 132.41C143.499 132.368 143.646 132.151 143.602 131.929C143.56 131.706 143.341 131.561 143.118 131.604L143.119 131.606Z" fill="#873312"/>
<path d="M231.682 317.01C231.673 317.091 231.679 317.176 231.699 317.255C232.012 321.519 232.327 325.785 232.642 330.049L235.632 370.662L236.123 377.338C236.136 377.508 236.203 377.641 236.299 377.738C236.947 377.94 255.308 383.755 263.943 385.979C264.409 386.1 265.19 386.124 265.32 385.707C265.449 385.292 264.949 384.627 264.596 384.367C258.549 379.932 252.761 375.144 247.266 370.034L248.041 358.665C248.965 345.185 249.89 331.704 250.813 318.224C251.179 318.02 251.334 317.416 250.863 317.131C249.537 316.335 248.046 315.962 246.532 315.734C244.956 315.495 243.366 315.357 241.772 315.332C238.73 315.284 235.687 315.64 232.733 316.363C232.385 315.99 231.617 316.118 231.663 316.75L231.684 317.012" fill="#F3965E"/>
<path d="M206.823 314.752C206.819 319.136 206.835 323.52 206.868 327.903C206.931 336.607 207.061 345.308 207.259 354.008C207.358 358.36 207.472 362.709 207.603 367.058C207.64 368.288 207.631 369.534 207.619 370.786C207.591 373.464 207.553 376.165 207.94 378.765C207.994 379.124 208.645 379.26 208.704 379.277C212.767 380.499 216.842 381.683 220.928 382.831C222.95 383.397 224.977 383.956 227.004 384.507C228.989 385.045 234.87 386.545 236.95 386.476C237.436 386.46 237.631 386 237.529 385.644C237.529 385.498 237.487 385.338 237.345 385.236C230.968 380.541 226.088 377.249 220.002 371.014L219.93 370.939C220.023 370.778 220.735 364.661 221.348 360.487C223.489 345.938 225.932 331.435 228.668 316.985C228.87 316.671 228.81 316.164 228.343 316.016C221.751 313.922 214.751 313.2 207.866 313.91C207.665 313.929 207.516 314.025 207.416 314.153C207.115 314.169 206.826 314.368 206.826 314.752" fill="#F3965E"/>
<path d="M294.803 195.325C294.946 192.735 293.095 189.932 291.848 187.921C286.422 179.17 281.87 170.031 277.548 160.71C277.397 160.388 277.235 160.076 277.059 159.779C276.173 158.288 274.919 157.145 273.019 156.755C269.759 156.084 265.259 157.837 263.694 160.836C260.288 167.367 267.642 177.034 271.051 182.263C273.707 186.338 277.701 190.127 280.995 193.716C283.406 196.346 294.354 203.513 294.801 195.323L294.803 195.325Z" fill="#F3965E"/>
<path d="M248.479 87.4513C248.211 87.1008 247.802 86.8271 247.202 86.665C242.122 85.2878 236.943 83.8356 231.714 83.1679C227.663 82.6502 223.556 83.0564 219.566 83.8409C215.853 84.5696 211.727 85.3471 208.248 86.8672C207.382 87.2438 207.597 87.4024 208.133 88.1643C209.265 89.7733 209.661 91.7241 210.357 93.5302C211.14 95.5577 212.213 97.5032 213.307 99.3755C215.523 103.169 218.114 106.724 220.562 110.365C221.602 111.912 230.66 125.748 232.44 124.05C236.261 122.551 238.22 117.78 239.932 114.391C242.238 109.823 244.491 105.074 246.176 100.186C247.038 97.688 247.759 95.141 248.272 92.5487C248.596 90.91 249.434 88.696 248.479 87.4513Z" fill="#F3965E"/>
<path d="M281.759 164.261C281.759 164.261 280.687 140.751 278.682 129.141C277.237 120.773 275.256 112.255 271.753 104.503C270.011 100.65 267.904 96.6176 264.968 93.5663C263.931 92.4885 262.607 91.7088 261.343 90.936C261.343 90.936 258.392 118.834 257.681 131.19C257.111 141.039 256.199 151.29 257.905 161.064C258.145 162.438 261.757 166.716 261.757 166.716L281.76 164.262L281.759 164.261Z" fill="#D65938"/>
<path d="M260.979 164.81C260.969 162.053 260.99 159.297 261.099 156.538C261.837 137.98 263.076 119.412 263.731 100.848C263.748 100.345 263.765 99.8443 263.783 99.3419C263.849 98.8864 263.903 98.4274 263.941 97.9719C263.979 97.5164 264.003 97.0643 264.007 96.6193C264.813 90.9149 258.587 89.5432 254.256 88.4896C253.986 88.4148 253.719 88.3401 253.453 88.2671C249.468 87.1683 245.972 86.3042 245.972 86.3042C245.972 86.3042 233.65 113.011 232.045 116.175C231.991 116.281 231.939 116.387 231.885 116.493C226.082 109.895 220.058 103.481 214.763 96.4593C212.909 94.0027 211.155 91.4696 209.559 88.8391L209.491 88.6061C209.164 87.9385 208.461 86.6328 208.461 86.6328C208.461 86.6328 188.529 91.5773 188.328 98.3092C187.901 112.5 192.134 124.416 194.079 138.417C194.972 144.834 196.118 151.213 197.403 157.562C197.659 158.821 197.775 162.324 197.782 167.557L260.981 164.81H260.979Z" fill="#D65938"/>
<path d="M197.765 167.742C197.819 209.665 185.915 302.801 191.028 344.582C191.38 347.461 271.426 343.372 271.426 343.372C271.426 343.372 269.108 264.336 266.645 234.964C265.825 225.18 264.428 215.457 263.181 205.722C261.939 196.02 260.847 186.279 260.622 176.492C260.606 175.786 260.596 175.079 260.589 174.372C260.772 174.284 260.911 174.107 260.909 173.838C260.908 170.889 260.864 167.945 260.854 165L197.763 167.742" fill="#FEDE8D"/>
<path d="M201.132 160.139C198.765 158.305 196.008 157.134 192.997 157.042C191.489 156.997 190.065 157.106 188.587 157.392C187.409 157.618 186.11 157.857 185.168 158.651L185.022 158.824C184.858 158.917 184.736 159.089 184.736 159.336C184.726 172.841 183.642 186.338 184.301 199.84C184.521 204.356 184.842 208.866 185.264 213.368C185.345 214.243 185.569 215.452 186.513 215.795C187.267 216.07 187.859 215.561 188.171 214.911C188.613 213.989 188.284 212.921 188.591 211.965L188.679 211.804C189.142 211.407 189.26 212.714 189.265 212.894C189.297 213.937 189.323 216.804 190.936 216.79C191.541 216.783 191.855 216.212 191.968 215.691C192.086 215.15 192.123 214.553 192.173 213.985C192.202 213.632 192.166 213.273 192.235 212.921C192.26 212.8 192.254 212.553 192.379 212.48C192.867 212.202 192.884 213.85 192.907 214.077C192.938 214.383 192.979 214.715 193.051 215.039C193.122 215.362 193.219 215.679 193.363 215.954C193.689 216.752 194.683 217.124 195.181 216.503C195.689 215.868 195.779 215.357 195.679 214.548C195.625 214.131 195.599 213.703 195.609 213.283C195.613 213.103 195.594 212.677 195.758 212.553C196.008 212.364 196.242 212.745 196.345 212.916C196.716 213.535 196.716 214.309 196.858 214.996C196.983 215.603 197.118 216.728 197.916 216.752C200.059 216.814 199.686 212.437 199.491 209.769C199.457 209.293 199.377 208.823 199.325 208.349C199.294 208.07 199.264 207.79 199.236 207.509L199.342 207.553C200.152 207.833 200.78 207.26 200.723 206.449C200.662 205.599 200.329 204.634 200.05 203.843C199.698 202.842 199.228 201.887 198.749 200.94C198.298 191.461 198.855 181.854 199.563 172.497C199.851 168.689 200.104 164.836 201.002 161.113L201.013 161.056C201.342 160.862 201.512 160.431 201.132 160.137V160.139Z" fill="#F3965E"/>
<path d="M204.715 166.294C204.715 166.294 203.978 158.08 203.683 156.124C202.329 147.112 200.072 138.233 198.422 129.268C196.695 119.887 195.128 110.478 193.511 101.079C193.279 99.7243 188.864 96.8291 188.864 96.8291C188.864 96.8291 183.025 107.581 180.347 123.526C178.33 135.526 176.089 162.013 176.089 162.013L204.717 166.294H204.715Z" fill="#D65938"/>
<path d="M238.387 90.3679C237.374 81.939 236.984 73.4424 237.216 64.9562C237.512 64.5152 237.606 63.9405 237.516 63.3659C237.37 62.4405 237.306 61.4527 237.064 60.5464C236.719 59.2651 235.616 58.6071 234.353 58.5481C232.342 58.4544 230.29 58.6106 228.277 58.6436C224.186 58.7096 220.095 58.7738 216.004 58.8415C215.031 58.8572 214.096 59.6888 214.143 60.7079L214.155 60.8311C214.037 61.0707 213.971 61.3381 213.98 61.6297C214.175 67.6819 214.615 73.7201 215.282 79.7358C215.376 81.7966 215.468 83.8574 215.561 85.9182C215.618 87.1717 215.634 88.4338 215.734 89.6821C215.804 90.5397 216.136 91.295 216.912 91.7377C217.555 92.104 218.391 92.0519 219.108 92.0936C221.642 92.2429 224.178 92.3905 226.712 92.538L235.299 93.038C235.912 93.0745 236.508 92.7082 236.856 92.1908C237.675 92.0033 238.498 91.2845 238.387 90.3696V90.3679Z" fill="#F3965E"/>
<path d="M222.347 25.3644C222.637 19.675 221.81 13.1341 217.43 9.14443C215.966 7.81166 214.226 6.6814 212.267 6.38888C210.198 6.08079 208.059 6.75409 206.343 7.94839C204.199 9.43867 202.695 11.649 201.509 13.9355C200.117 16.6183 199.077 19.5885 199.266 22.6054C199.525 26.756 202.294 29.6258 206.161 30.8357C208.286 31.5003 210.52 31.6388 212.732 31.5505C216.935 31.3844 221.848 32.0075 222.273 26.5449C222.302 26.1571 222.328 25.7625 222.349 25.3644H222.347Z" fill="#FACFA6"/>
<path d="M250.581 34.209C250.398 32.9969 250.157 31.8144 249.847 30.6791C248.365 25.2698 242.765 23.331 237.329 23.6C234.575 23.7362 231.847 24.3039 229.148 24.8279C226.553 25.3326 223.952 25.9073 221.494 26.8959C217.066 28.6757 213.02 31.762 211.431 36.4028C210.564 38.9389 210.6 41.7405 210.617 44.3867C210.633 46.9542 210.777 49.5165 211.116 52.0614C211.777 57.0148 213.193 61.9159 215.939 66.1462C217.016 67.8055 218.285 69.3583 219.725 70.7207C220.012 70.9931 220.308 71.2586 220.61 71.5154C224.037 74.4305 228.614 75.5152 233.001 75.7265C235.247 75.8348 237.506 75.7859 239.739 75.5029C243.156 75.068 246.108 73.5554 247.676 70.3486C249.058 67.5243 249.355 64.321 249.939 61.2696C250.505 58.3038 250.924 55.3084 251.175 52.2989C251.677 46.2713 251.492 40.1913 250.585 34.209H250.581Z" fill="#F3965E"/>
<path d="M244.681 23.6286C242.655 22.5665 240.389 21.8556 238.514 21.4297C231.953 19.9383 225.099 20.7935 218.545 21.8538C216.667 22.158 214.978 22.9385 213.479 24.0232C197 35.9318 207.742 57.95 213.653 72.6137C214.004 73.4828 214.306 74.8369 214.97 75.3584C215.186 74.8108 215.265 74.2059 215.3 73.5976C215.607 68.3863 214.989 63.3941 214.699 58.2055C216.27 57.4859 218.692 55.148 220.05 54.1815C221.969 52.8187 223.844 51.3951 225.677 49.9176C229.207 47.0721 232.556 44.0059 235.698 40.7415C237.42 38.9546 239.075 37.1068 240.667 35.2069C243.205 38.4609 251.215 44.5743 251.889 44.769C252.441 44.9289 252.937 35.6363 249.658 28.44C249.527 28.1706 249.391 27.9012 249.246 27.6422C248.301 25.9526 246.599 24.6333 244.681 23.6268V23.6286Z" fill="#FACFA6"/>
<path d="M220.23 57.2355C219.664 53.5007 215.513 48.4404 213.23 48.049C211.62 47.7724 210.203 48.5447 209.61 50.1016C209.177 51.2306 209.332 52.6222 209.705 53.7477C210.54 56.2631 212.409 58.0443 214.476 59.5543C215.658 60.4171 216.964 61.4817 218.497 60.8572C220.045 60.2257 220.475 58.855 220.23 57.2355Z" fill="#F3965E"/>
<path d="M236.16 47.4676C235.758 46.712 234.589 46.7204 233.856 46.7338C232.27 46.764 230.516 47.0427 229.188 47.9579C229.027 48.0687 228.869 48.1963 228.779 48.3692C228.618 48.6765 228.773 48.9233 229.042 49.0829C229.808 49.5379 230.862 49.5916 231.729 49.6437C232.741 49.7024 233.783 49.7192 234.755 49.3968C235.543 49.1366 236.678 48.4398 236.162 47.4676H236.16Z" fill="#FACFA6"/>
<path d="M249.679 46.1924L249.589 46.1379C248.389 45.4456 246.679 45.3991 245.31 45.5193C244.836 45.561 244.359 45.6363 243.932 45.8334C243.413 46.0722 242.891 46.6459 243.06 47.2196C243.32 48.0962 244.54 47.9969 245.3 47.9841C246.276 47.9664 247.255 47.9264 248.229 47.8494C248.822 47.8014 250.507 47.5337 250.13 46.6635C250.044 46.4664 249.871 46.3142 249.679 46.1924Z" fill="#FACFA6"/>
<path d="M240.175 55.0393C239.92 56.3554 240.181 57.7244 240.991 58.8268C241.389 59.3652 242.02 59.7309 242.389 60.2762C243.116 61.3512 241.474 61.758 240.704 61.893C240.142 61.9939 240.381 62.8194 240.94 62.7202C241.788 62.5698 242.71 62.3442 243.198 61.5888C243.599 60.9667 243.498 60.2693 243.049 59.7036C242.547 59.0695 241.866 58.6491 241.46 57.9312C241.002 57.1194 240.857 56.1725 241.034 55.2667C241.139 54.7283 240.282 54.4958 240.175 55.0393Z" fill="#BC4120"/>
<path d="M238.543 66.6475C239.949 67.8265 242.104 67.5158 242.974 65.9104C243.242 65.415 242.447 64.9765 242.179 65.4737C241.594 66.5577 240.186 66.865 239.196 66.0347C238.756 65.6653 238.102 66.2764 238.545 66.6475H238.543Z" fill="#BC4120"/>
<path d="M233.338 54.082C233.269 54.7905 232.988 55.5954 232.191 55.5713C231.943 55.5627 231.695 55.5558 231.447 55.5472C231.266 55.5421 231.082 55.5352 230.914 55.4664C230.38 55.2446 230.37 54.278 230.415 53.7844C230.461 53.3167 230.673 52.3673 231.221 52.283C231.569 52.2297 231.923 52.2022 232.274 52.2039C232.368 52.2039 232.462 52.2074 232.549 52.2366C233.145 52.4481 233.393 53.5299 233.338 54.082Z" fill="#873312"/>
<path d="M248.257 54.1055C248.143 54.18 248.015 54.232 247.869 54.258C246.976 54.4089 246.303 54.265 246.05 53.2698C245.879 52.5902 245.955 51.3454 246.734 51.1305C247.047 51.0438 247.365 50.9831 247.686 50.9484C248.227 50.8877 248.595 51.1998 248.79 51.713C249.057 52.4255 248.937 53.6599 248.257 54.1072V54.1055Z" fill="#873312"/>
<path d="M210.912 51.1801C211.951 50.1434 213.555 50.418 214.617 51.2682C215.761 52.1834 216.36 53.5711 216.918 54.8756C217.127 55.3632 217.945 55.1485 217.734 54.6543C217.032 53.0154 216.267 51.2882 214.688 50.2932C213.332 49.4379 211.489 49.418 210.314 50.5894C209.931 50.9721 210.528 51.5628 210.912 51.1801Z" fill="#BC4120"/>
<path d="M225.134 53.1747C225.853 53.6625 226.639 53.9074 227.461 53.8866C228.008 53.8721 228.01 52.8302 227.461 52.8447C226.785 52.8634 226.155 52.6786 225.564 52.2739C225.085 51.948 224.655 52.8468 225.134 53.1726V53.1747Z" fill="#BC4120"/>
<path d="M225.883 55.9824C226.444 55.8649 227.003 55.7475 227.563 55.6281C228.105 55.5143 227.875 54.6257 227.335 54.7395C226.776 54.857 226.216 54.9745 225.655 55.0939C225.114 55.2077 225.343 56.0963 225.883 55.9824Z" fill="#BC4120"/>
<path d="M238.284 63.1284C238.666 62.6637 237.989 61.9981 237.603 62.4685C236.437 63.8925 235.448 65.4205 234.657 67.0676C234.398 67.6086 235.227 68.0845 235.488 67.5398C236.242 65.9671 237.17 64.4855 238.282 63.1265L238.284 63.1284Z" fill="#BC4120"/>
<path d="M245.185 65.7849C245.312 66.3314 246.089 66.0992 245.961 65.5527C245.692 64.4074 245.209 63.3825 244.535 62.4589C244.212 62.0172 243.645 62.6405 243.965 63.0787C244.551 63.8818 244.952 64.7949 245.185 65.7849Z" fill="#BC4120"/>
<path d="M231.209 118.177C229.079 124.484 225.462 130.172 222.399 136.056C220.8 139.128 219.161 142.16 217.396 145.14C215.685 148.029 214.124 151.01 212.176 153.754C210.102 156.674 207.809 159.497 206.435 162.829C206.222 163.345 207.07 163.569 207.28 163.059C208.537 160.009 210.638 157.371 212.559 154.714C214.5 152.023 216.085 149.128 217.748 146.27C221.172 140.389 224.324 134.362 227.541 128.369C229.268 125.152 230.888 121.868 232.057 118.409C232.235 117.879 231.391 117.651 231.212 118.179L231.209 118.177Z" fill="#873312"/>
<path d="M259.733 140.176C259.733 139.637 259.026 139.637 259.026 140.176C259.031 142.995 259.146 145.811 259.162 148.63C259.164 149.169 259.871 149.169 259.868 148.63C259.853 145.811 259.737 142.994 259.733 140.176Z" fill="#873312"/>
<path d="M255.232 89.8514C253.717 91.8017 253.41 94.3549 252.631 96.6248C251.638 99.5063 250.08 102.184 248.814 104.951C246.298 110.457 243.934 116.028 241.324 121.492C238.722 126.935 235.888 132.271 232.612 137.35C229.22 142.605 225.458 147.617 221.591 152.537C217.988 157.121 214.607 162.307 209.552 165.477C209.077 165.774 209.517 166.526 209.995 166.225C214.482 163.413 217.681 159.034 220.845 154.914C224.578 150.051 228.369 145.248 231.799 140.166C238.677 129.976 243.587 118.794 248.572 107.625C249.948 104.538 251.537 101.543 252.856 98.4335C253.443 97.0515 253.847 95.6402 254.259 94.2012C254.654 92.8244 255.1 91.4407 255.992 90.2919C256.335 89.8497 255.575 89.4178 255.236 89.8548L255.232 89.8514Z" fill="#873312"/>
<path d="M225.225 118.717C221.927 114.684 217.937 111.301 214.384 107.503C211.287 104.191 208.225 100.722 205.733 96.9249C204.391 94.8818 203.19 92.6925 202.601 90.3071C202.468 89.7688 201.633 89.9975 201.766 90.5358C202.845 94.8955 205.738 98.7084 208.535 102.126C211.616 105.889 214.955 109.392 218.432 112.788C220.576 114.885 222.712 117 224.611 119.324C224.963 119.754 225.573 119.14 225.223 118.713L225.225 118.717Z" fill="#873312"/>
<path d="M219.869 66.9872C219.845 66.8132 219.774 66.634 219.704 66.4702C219.042 64.9175 218.434 63.3423 217.852 61.7585C217.634 61.1657 217.417 60.5694 217.204 59.9731C217.071 59.5992 216.967 59.2149 216.808 58.8512C216.689 58.5824 216.48 58.1205 216.133 58.0981C215.921 58.086 215.825 58.317 215.77 58.4859C215.592 59.0373 215.499 59.6129 215.349 60.173C215.19 60.7659 215.032 61.3604 214.872 61.9533C214.472 63.4492 214.07 64.9468 213.669 66.4444C213.584 66.7615 213.486 67.1579 213.637 67.4715C213.769 67.7421 214.03 67.7817 214.302 67.7697C215.77 67.7024 217.242 67.7042 218.711 67.7731C218.914 67.7817 219.12 67.7921 219.317 67.7472C219.661 67.668 219.917 67.3509 219.867 66.9855L219.869 66.9872ZM215.521 62.7753C215.762 61.9464 216.012 61.1209 216.236 60.2885C216.909 62.5685 217.965 64.7193 218.927 66.8942C217.435 66.908 215.942 66.8097 214.453 66.8976C214.843 65.5327 215.13 64.1402 215.523 62.7753H215.521Z" fill="#BB661E"/>
<path d="M199.191 195.137C199.175 194.705 199.175 193.963 198.764 193.69C198.771 193.417 198.565 193.145 198.245 193.27C196.006 194.151 193.587 194.283 191.214 194.431C188.719 194.585 186.176 195.02 183.686 194.599C183.396 194.551 183.195 194.768 183.153 194.996L183.035 195.131C182.734 195.651 182.837 196.385 182.865 196.958C182.89 197.521 182.77 198.206 182.918 198.749C183.055 199.262 183.53 199.393 183.999 199.434C185.088 199.53 186.202 199.561 187.294 199.553C189.481 199.537 191.72 199.116 193.869 198.728C194.976 198.528 196.077 198.285 197.155 197.956C197.747 197.777 198.663 197.61 199.033 197.034C199.363 196.521 199.213 195.714 199.193 195.133L199.191 195.137Z" fill="#BB661E"/>
<path d="M198.191 190.794C197.352 191.406 196.302 191.668 195.298 191.863C194.171 192.081 193.02 192.186 191.875 192.223C190.625 192.263 189.374 192.299 188.124 192.343C186.661 192.393 185.183 192.381 183.781 191.917C183.245 191.739 183.015 192.585 183.549 192.762C184.951 193.227 186.445 193.269 187.908 193.226C189.28 193.185 190.654 193.145 192.027 193.095C194.157 193.015 196.848 192.856 198.633 191.551C199.083 191.223 198.647 190.462 198.192 190.796L198.191 190.794Z" fill="#BB661E"/>
<path d="M202.053 141.767C201.2 145.308 201.238 148.933 201.026 152.527C200.815 156.132 199.885 159.733 200.125 163.352C200.161 163.906 201.164 163.91 201.128 163.352C200.892 159.808 201.796 156.286 202.015 152.755C202.239 149.165 202.167 145.536 203.021 141.998C203.152 141.454 202.185 141.221 202.053 141.769V141.767Z" fill="#873312"/>
<path d="M256.386 170.524C255.685 170.742 254.936 170.7 254.211 170.792C253.308 170.908 252.404 171.015 251.501 171.133C249.644 171.374 247.804 171.726 245.943 171.949C242.223 172.397 238.478 172.646 234.734 172.791C231.016 172.933 227.29 172.879 223.574 173.045C219.84 173.213 216.129 173.687 212.39 173.778C210.322 173.827 208.256 173.837 206.191 173.954C205.31 174.004 204.441 174.102 203.566 174.199C202.729 174.291 201.858 174.375 201.042 174.128C200.506 173.966 200.276 174.777 200.811 174.94C202.248 175.376 203.783 174.965 205.239 174.856C207.055 174.718 208.881 174.661 210.7 174.641C214.523 174.596 218.305 174.21 222.116 173.969C225.912 173.729 229.726 173.801 233.526 173.677C237.312 173.553 241.098 173.334 244.863 172.918C246.913 172.692 248.949 172.392 250.982 172.058C251.979 171.895 252.985 171.823 253.983 171.678C254.853 171.55 255.775 171.6 256.619 171.337C257.15 171.171 256.922 170.36 256.388 170.528L256.386 170.524Z" fill="#A47E2A"/>
<path d="M234.608 74.8817C233.219 74.8817 231.912 74.7167 230.542 74.5086C229.291 74.3203 227.987 74.1482 226.849 73.5438C225.877 73.0273 224.918 72.2598 224.101 71.5137C223.215 70.7031 222.572 69.7598 222.403 68.5278C222.325 67.9575 221.484 68.1996 221.562 68.7663C221.732 70.0019 222.361 71.0474 223.227 71.9029C224.101 72.7691 225.173 73.6066 226.228 74.2199C227.417 74.9121 228.775 75.1435 230.108 75.3461C231.625 75.5757 233.069 75.7819 234.608 75.7801C235.169 75.7801 235.169 74.8799 234.608 74.8799V74.8817Z" fill="#BC4120"/>
<path d="M233.395 35.5831C231.218 39.8609 227.204 43.1336 223.429 45.8968C222.985 46.222 223.411 46.9784 223.862 46.6498C227.756 43.7996 231.887 40.4382 234.135 36.023C234.389 35.5257 233.65 35.084 233.395 35.5831Z" fill="#C8813D"/>
<path d="M221.223 38.8382C219.121 40.5828 217.039 42.2618 214.287 42.9715C213.747 43.1111 213.976 43.9062 214.517 43.7666C217.417 43.0175 219.622 41.258 221.837 39.4214C222.258 39.0715 221.641 38.4899 221.221 38.8382H221.223Z" fill="#C8813D"/>
<path d="M216.376 22.746C213.806 23.3325 211.216 24.2434 209.154 25.9499C207.074 27.6723 206.004 30.132 205.98 32.8291C205.974 33.4015 206.856 33.4015 206.861 32.8291C206.882 30.2862 207.924 28.0445 209.912 26.4691C211.839 24.9416 214.249 24.1424 216.61 23.6036C217.163 23.4778 216.928 22.6201 216.376 22.746Z" fill="#C8813D"/>
<path d="M326.73 66.6383C326.73 66.6383 317.307 65.2476 313.053 65.2549C308.659 65.2623 299.45 66.4875 299.45 66.4875C299.45 66.4875 298.397 67.8176 298.635 68.8239C298.888 69.8964 299.909 70.4814 300.898 70.2607C304.894 69.3721 308.874 69.2139 312.966 69.2065C315.007 69.2028 317.047 69.1937 319.086 69.2323C321.096 69.2691 322.971 69.3905 324.854 69.9663C325.789 70.2533 326.93 69.6848 327.176 68.6417C327.42 67.6115 326.728 66.6365 326.728 66.6365L326.73 66.6383Z" fill="#FCF2E6"/>
<path d="M352.718 197.235C352.986 183.289 353.2 169.342 353.353 155.396C353.691 154.952 353.838 154.366 353.698 153.807C353.637 153.561 353.525 153.339 353.379 153.148V152.983C353.405 150.589 349.679 150.493 349.643 152.886C336.574 156.08 323.679 159.978 311.034 164.57C308.425 165.517 305.094 166.355 303.392 168.683C302.801 168.997 302.333 169.594 302.394 170.27C304.664 195.228 307.15 220.166 309.857 245.081C312.555 269.912 326.523 363.744 326.523 363.744L347.345 359.629C347.345 359.629 352.217 223.382 352.716 197.235H352.718Z" fill="#D65938"/>
<path d="M310.516 242.369C310.738 232.413 311.024 222.458 311.373 212.506C311.551 212.237 311.657 211.919 311.65 211.567C311.432 199.47 311.214 187.375 310.996 175.28C310.942 172.299 311.003 169.29 310.83 166.312C310.788 165.583 310.678 164.913 310.279 164.289C309.729 163.428 308.753 162.937 307.733 162.926C307.054 162.92 306.38 163.093 305.717 163.221C304.98 163.364 304.237 163.484 303.494 163.581C297.946 164.313 292.063 163.811 286.389 163.903C284.85 163.928 283.307 163.982 281.775 164.134C280.138 164.299 278.562 164.629 277.234 165.651C275.281 167.154 274.726 170.52 276.585 172.235C276.656 196.6 277.215 220.962 278.271 245.305C279.346 270.104 280.932 294.883 283.03 319.618C284.209 333.556 287.134 365.006 287.134 365.006L305.975 361.815C305.975 361.815 310.087 261.731 310.516 242.369Z" fill="#D65938"/>
<path d="M341.777 175.64C340.26 176.763 338.534 177.53 336.773 178.173C334.99 178.824 333.176 179.461 331.353 179.984C327.393 181.121 323.257 181.676 319.221 182.469C315.023 183.291 310.792 184.043 306.515 184.285C302.217 184.529 297.935 184.103 293.671 183.578C291.339 183.293 288.88 183.191 286.629 182.474C285.617 182.15 284.678 181.688 283.735 181.205C282.885 180.77 281.911 180.339 281.335 179.536C281.012 179.085 280.249 179.505 280.577 179.962C281.532 181.293 283.272 182.015 284.717 182.668C286.593 183.517 288.505 183.817 290.529 184.066C295.055 184.622 299.594 185.273 304.166 185.238C308.518 185.205 312.851 184.549 317.124 183.758C319.259 183.363 321.384 182.909 323.522 182.518C325.647 182.127 327.78 181.778 329.883 181.274C332.093 180.745 334.249 179.986 336.393 179.234C338.423 178.52 340.448 177.699 342.193 176.406C342.637 176.078 342.224 175.304 341.773 175.638L341.777 175.64Z" fill="#873312"/>
<path d="M326.386 41.2923C326.401 40.1961 325.579 39.1257 324.557 39.1534C323.822 39.1741 323.148 39.6316 322.827 40.3307C316.671 41.2112 310.419 41.6738 304.184 41.7446C303.39 41.7532 302.543 42.3367 302.338 43.2413C301.645 46.316 301.261 49.4752 301.226 52.643C301.158 52.8485 301.121 53.0694 301.126 53.3042C301.298 62.0343 301.469 70.7645 301.64 79.4946C301.657 80.356 302.15 81.3539 302.972 81.5472C308.039 82.7332 313.206 83.9002 318.405 83.0871C320.696 82.728 322.893 81.6905 324.337 79.5982C325.113 78.4743 325.584 77.1002 325.727 75.688C325.843 75.4308 325.911 75.1425 325.914 74.83C326.071 63.6502 326.227 52.4704 326.384 41.2923H326.386Z" fill="#F3965E"/>
<path d="M327.926 21.5192C326.767 17.8388 324.482 14.6079 320.536 12.3331C316.298 9.88995 311.262 9.10738 306.373 9.28611C300.589 9.49953 295.374 10.3012 290.129 12.7721C289.373 13.1278 289.628 14.8335 289.517 16.39C289.498 16.8064 289.48 17.2246 289.465 17.6428C289.336 20.983 289.305 24.3284 289.373 27.6721C289.487 33.2837 289.762 38.9717 290.579 44.5295C291.183 48.6436 292.393 53.0058 295.282 56.1326C296.82 57.7967 298.888 59.0373 301.115 59.4972C303.946 60.0819 306.844 59.7054 309.598 58.9124C314.611 57.4705 319.286 54.9857 322.489 50.7796C325.436 46.9101 326.803 42.0568 327.842 37.3822C329.019 32.0847 329.465 26.4037 327.926 21.5174V21.5192Z" fill="#F3965E"/>
<path d="M331.853 14.4954C331.886 13.1211 331.786 11.7832 331.281 10.6164C329.319 6.0805 324.617 9.3614 321.51 7.15915C321.182 6.98629 320.857 6.80306 320.54 6.6181C317.537 4.8722 314.504 2.79787 311.031 2.62673C307.039 2.42794 302.967 4.7996 299.199 3.47721C297.14 2.75465 295.554 1.02085 293.486 0.324224C291.053 -0.495138 288.257 0.30348 286.324 1.98888C282.145 5.63279 280.956 13.9491 285.524 17.8126C286.027 18.2378 286.6 18.5939 287.015 19.1056C287.768 20.0338 287.879 21.3078 287.958 22.4988C288.139 25.1696 288.319 27.8403 288.5 30.5127C288.559 31.3701 288.845 32.4712 289.705 32.5317C289.777 29.6069 289.846 26.6838 289.917 23.759C289.945 22.5939 290.065 21.2491 291.024 20.5818C292.127 19.8126 293.621 20.3986 294.867 20.9051C299.955 22.9759 305.717 23.3683 311.043 22.0062C313.439 21.3925 316.319 20.5438 318.122 22.2326C319.291 23.3269 319.478 25.0814 319.551 26.6786C319.692 29.7832 319.695 34.3986 319.508 37.4997C319.473 38.0944 319.426 38.7046 319.18 39.2474C318.933 39.7901 318.503 40.2258 318.064 40.632C315.96 42.5749 313.12 44.1376 310.316 43.5239C307.868 42.9881 305.967 40.8999 303.501 40.4436C300.923 39.9665 298.409 41.3649 295.824 41.8022C293.741 42.1566 291.994 41.8005 290.075 40.9189C289.343 45.3148 288.139 48.3692 288.869 52.7651C289.598 57.161 292.068 61.524 296.149 63.3477C298.718 64.4955 301.643 64.5387 304.447 64.2897C310.972 63.7107 317.676 61.4306 321.911 56.4505C322.452 55.8144 322.958 55.1177 323.161 54.3105C323.356 53.543 323.262 52.7374 323.167 51.9509C322.691 48.0356 322.216 44.1203 321.741 40.205C321.6 39.0451 321.463 37.8403 321.817 36.727C322.152 35.6778 323.337 32.3312 324.549 32.3537C325.408 32.3692 326.04 33.9405 326.428 35.3597C326.525 35.7158 326.607 36.0598 326.673 36.371C326.739 36.6804 326.791 36.9552 326.826 37.1661C327.147 38.4228 326.617 39.7746 326.361 40.9621C326.163 41.7521 326.014 42.5698 325.901 43.4047C325.45 46.7392 325.592 50.3329 325.627 53.6C325.644 55.32 326.654 53.7781 326.982 53.2336C327.782 51.9008 328.155 50.0235 328.614 48.5438C329.556 45.5101 330.304 42.4176 330.852 39.2888C332.299 31.0174 331.65 22.8221 331.853 14.4954Z" fill="#FACFA6"/>
<path d="M328.495 30.2044C327.226 28.9767 325.356 29.4169 324.231 30.5745C323.332 31.5023 322.689 32.7459 322.241 33.9333C321.758 35.2154 321.613 36.5975 321.906 37.941C321.963 38.2023 322.049 38.4321 322.159 38.6338C322.231 38.8793 322.337 39.1179 322.489 39.3494C323.033 40.1685 324.045 40.5333 325.006 40.3824C326.448 40.1562 327.38 38.8425 327.978 37.6446C328.526 36.5431 328.874 35.3504 329.115 34.1525C329.386 32.8055 329.6 31.2708 328.495 30.2027V30.2044Z" fill="#F3965E"/>
<path d="M348.245 80.3915C343.328 77.6904 338.166 75.4328 332.838 73.6621C331.287 71.3786 327.051 66.4095 326.809 66.6798C322.037 72.0075 316.897 76.9991 311.434 81.6251C307.107 77.3005 299.912 66.1323 299.449 66.5273C297.373 68.3084 292.624 71.6714 292.596 71.8256C286.883 73.9133 275.445 79.1613 275.445 79.1613C275.445 79.1613 276.364 103.724 276.832 114.343C277.325 125.513 278.049 136.673 279.005 147.813C279.545 154.098 280.158 160.375 280.842 166.645C280.866 166.862 280.917 167.078 280.994 167.283C280.725 167.435 280.492 167.646 280.33 167.91C279.78 168.797 280.102 169.911 280.943 170.472C288.069 175.242 296.914 176.734 305.365 176.337C310.065 176.115 314.73 175.375 319.337 174.445C323.435 173.617 327.556 172.742 331.548 171.489C336.007 170.089 340.266 168.147 343.887 165.165C344.524 164.64 344.603 163.675 344.247 162.963C345.034 152.843 345.82 142.721 346.606 132.601C347.409 122.258 348.213 111.912 349.018 101.567C349.472 95.7145 349.927 89.8635 350.381 84.0109C350.442 83.2295 348.891 80.7449 348.247 80.3915H348.245Z" fill="#FEDE8D"/>
<path d="M282.973 141.283C283.072 135.893 283.024 130.502 282.83 125.115C282.335 111.438 280.479 98.0024 278.664 84.4601C278.493 83.1837 278.607 79.9118 277.535 79.0498C276.338 78.0869 274.588 79.4939 273.849 80.4202C268.263 87.4134 265.105 96.3237 263.279 105.053C261.669 112.755 259.974 144.908 264.271 151.947C266.626 155.802 269.793 159.02 272.522 162.584C275.527 166.509 279.273 165.099 281.986 169.242C281.986 169.242 282.594 151.661 282.717 149.229C282.85 146.583 282.924 143.933 282.973 141.285V141.283Z" fill="#FEDE8D"/>
<path d="M310.523 82.1066C310.123 82.5808 309.604 82.9275 309.165 83.3645C308.722 83.805 308.313 84.2792 307.868 84.7179C307.137 85.4327 306.363 86.1191 305.764 86.9542C305.282 86.5083 304.907 85.951 304.507 85.4327C304.06 84.8559 303.553 84.3358 303.072 83.7909C301.963 82.5383 300.894 81.2521 299.855 79.9376C297.776 77.3051 295.83 74.5629 293.958 71.7712C293.645 71.3059 292.887 71.7305 293.203 72.2011C295.116 75.0565 297.107 77.8589 299.231 80.5515C300.294 81.8961 301.389 83.2124 302.525 84.4915C303.049 85.0824 303.586 85.6521 304.063 86.2836C304.502 86.8622 304.935 87.4159 305.497 87.8724C305.585 87.9449 305.674 87.9679 305.757 87.9608C305.927 88.0227 306.128 87.9891 306.253 87.7874C306.871 86.7896 307.782 86.043 308.598 85.2257C308.995 84.8276 309.363 84.4012 309.76 84.005C310.198 83.568 310.718 83.223 311.118 82.7471C311.479 82.3189 310.886 81.6732 310.523 82.1049V82.1066Z" fill="#A24E22"/>
<path d="M331.617 73.7214C330.983 74.012 330.514 74.5263 330.064 75.0441C329.583 75.5989 329.064 76.1079 328.552 76.6327C327.285 77.9325 326.086 79.2974 324.815 80.5919C323.529 81.8987 322.163 83.1281 320.823 84.3785C320.15 85.0055 319.463 85.6167 318.808 86.2613C318.462 86.6012 318.1 86.9129 317.834 87.3021C317.571 87.0573 317.267 86.8566 316.983 86.6153C316.416 86.1362 315.863 85.6272 315.327 85.1147C314.32 84.1513 313.526 82.9872 312.44 82.1048C312.002 81.749 311.358 82.3567 311.799 82.7142C312.828 83.5508 313.587 84.6427 314.527 85.5691C315.026 86.0622 315.56 86.5184 316.08 86.9886C316.509 87.3744 317.15 87.7107 317.454 88.1986C317.638 88.491 317.996 88.4487 318.181 88.2602C318.289 88.2197 318.384 88.137 318.437 88.0031C318.686 87.3937 319.463 86.8389 319.933 86.3969C320.574 85.791 321.232 85.2063 321.875 84.604C323.123 83.438 324.394 82.288 325.588 81.0639C326.746 79.8751 327.848 78.6299 329.002 77.4358C329.523 76.8969 330.069 76.3862 330.558 75.819C330.996 75.3136 331.425 74.7782 332.046 74.4928C332.564 74.2551 332.133 73.4819 331.617 73.7197V73.7214Z" fill="#A24E22"/>
<path d="M305.287 166.943C305.498 164.081 305.656 161.22 305.749 158.353C305.94 152.365 305.954 146.372 306.075 140.384C306.193 134.418 306.443 128.46 307.012 122.522C307.576 116.628 308.401 110.764 309.343 104.924C309.876 101.62 310.222 98.3038 310.555 94.9739C310.711 93.4068 310.886 91.8484 310.989 90.2761C311.092 88.7107 311.194 87.1297 311.631 85.6198C311.786 85.0864 311.001 84.7886 310.846 85.3254C310.1 87.8986 310.174 90.6674 309.887 93.3202C309.565 96.3177 309.33 99.3272 308.909 102.314C308.082 108.183 307.077 114.011 306.44 119.909C305.15 131.854 305.285 143.843 304.987 155.838C304.906 159.128 304.782 162.417 304.543 165.7C304.305 168.969 304.025 172.242 304.08 175.525C304.09 176.079 304.922 176.152 304.912 175.593C304.864 172.704 305.075 169.823 305.288 166.947L305.287 166.943Z" fill="#A24E22"/>
<path d="M277.941 122.816C276.747 128.436 275.734 134.096 274.199 139.641C274.049 140.182 274.911 140.431 275.062 139.89C276.596 134.345 277.608 128.686 278.802 123.066C278.918 122.522 278.056 122.269 277.941 122.815V122.816Z" fill="#A24E22"/>
<path d="M323.785 377.8C323.624 351.483 324.066 325.181 324.674 298.865C325.034 283.259 325.262 267.65 325.555 252.042C325.704 244.102 325.854 236.161 326.003 228.22C326.13 221.436 324.84 213.655 327.064 207.129C328.069 204.183 324.192 204.72 323.043 206.385C321.43 208.723 322.666 215.824 322.619 218.651C322.467 227.939 322.315 237.227 322.164 246.515C321.897 262.935 321.841 279.38 321.196 295.773C320.939 302.304 320.638 308.831 320.381 315.362C320.124 321.895 319.913 328.429 319.832 334.967C319.619 352.394 320.713 369.685 319.264 387.103C318.757 393.22 323.958 394.729 323.872 387.759C323.832 384.44 323.802 381.122 323.783 377.803L323.785 377.8Z" fill="#873312"/>
<path d="M343.356 198.304C343.15 198.045 342.902 197.811 342.608 197.612C339.241 195.304 330.413 197.55 326.854 198.585C319.298 200.781 320.193 210.626 321.044 216.848C320.868 217.112 320.757 217.413 320.75 217.716C320.726 218.782 321.444 219.525 322.476 219.68C324.004 219.907 325.747 219.716 326.726 218.378C328.825 215.501 327.064 209.973 327.244 206.597C327.323 205.1 340.969 204.154 342.833 202.744C344.324 201.614 344.421 199.638 343.359 198.304H343.356Z" fill="#873312"/>
<path d="M360.546 169.188C359.053 168.685 357.447 168.378 355.893 168.135C353.948 167.831 352.02 167.437 350.072 167.163C347.792 166.844 345.497 166.643 343.22 166.302C342.857 166.247 342.658 166.479 342.623 166.759C339.552 169.981 337.297 173.847 334.937 177.592C332.358 181.685 329.415 185.544 326.95 189.71C326.116 191.123 324.964 192.441 324.16 193.904C322.632 194.791 321.471 196.2 320.422 197.593C319.373 198.985 318.487 200.783 318.92 202.565C319.007 202.92 319.342 203.057 319.675 203.017C319.907 202.988 320.103 202.894 320.271 202.762L320.263 202.828C320.16 203.885 320.313 206.007 321.437 206.536C322.651 207.107 323.294 205.419 323.454 204.536C323.582 203.823 323.57 203.03 323.958 202.395C324.028 202.282 324.104 202.176 324.18 202.072C323.965 202.868 323.766 203.659 323.74 204.51C323.712 205.459 323.73 206.781 324.657 207.331C325.7 207.951 326.338 206.821 326.628 205.99C326.685 205.822 327.058 203.182 327.106 203.007C327.169 203.583 326.709 205.539 327.222 207.111C327.392 207.633 327.892 208.076 328.494 207.952C328.967 207.855 329.288 207.413 329.512 207.019C329.791 206.524 329.994 205.985 330.192 205.454C330.419 204.843 330.535 204.569 330.88 203.972C331.333 203.193 331.893 202.441 332.696 201.997C334.371 201.069 336.446 201.067 337.845 199.677C339.512 198.024 341.109 196.295 342.691 194.562C345.58 191.395 348.36 188.131 351.13 184.862C352.922 182.747 354.646 180.43 356.527 178.336C357.441 177.319 358.454 176.358 359.505 175.482C360.527 174.631 361.788 173.998 362.558 172.882C362.866 172.436 363.083 171.89 362.991 171.357C362.801 170.248 361.512 169.514 360.546 169.188Z" fill="#F3965E"/>
<path d="M296.844 25.2769C294.086 25.1298 290.611 25.9891 290.208 27.7801C289.976 28.8165 291.25 29.2169 292.038 29.3391C293.655 29.5889 295.309 29.4649 296.903 29.1212C297.965 28.8927 299.951 28.5791 300.25 27.3036C300.545 26.0511 298.891 25.3867 296.844 25.2769Z" fill="#FACFA6"/>
<path d="M315.818 27.26C315.73 26.9078 315.498 26.5521 315.084 26.2226C313.713 25.138 311.228 25.2046 309.606 25.3255C308.508 25.4078 306.664 25.7811 306.247 27.0462C305.593 29.035 309.749 29.2347 310.791 29.3276C311.741 29.4117 312.727 29.5011 313.679 29.4608C314.973 29.4064 316.092 28.3551 315.82 27.26H315.818Z" fill="#FACFA6"/>
<path d="M364.552 103.506C362.293 97.6613 359.314 92.1103 355.48 87.0732C353.675 84.5954 348.135 80.4109 348.135 80.4109C348.135 80.4109 340.305 99.6459 337.683 109.665C336.948 112.472 336.276 115.297 335.664 118.133C335.58 118.525 335.843 118.812 336.145 118.9C338.23 129.903 340.158 140.936 341.919 151.996C342.395 154.976 342.857 157.957 343.308 160.938C341.47 163.876 339.462 166.705 337.289 169.408C337.195 169.528 337.156 169.648 337.16 169.759C337.025 170.066 337.1 170.5 337.506 170.667C344.726 173.64 352.148 176.11 359.714 178.06C360.04 178.144 360.293 177.986 360.419 177.756C360.563 177.809 360.731 177.796 360.904 177.682C363.132 176.202 364.864 174.141 365.913 171.712C371.517 165.288 370.363 150.01 370.554 142.106C370.865 129.289 369.286 115.75 364.551 103.506H364.552Z" fill="#FEDE8D"/>
<path d="M302.249 32.5409C302.39 33.6112 302.565 34.9416 301.775 35.8156C301.21 36.4384 300.393 36.702 300.041 37.5264C299.364 39.1116 300.726 40.5959 302.303 40.3978C302.859 40.3288 302.643 39.4672 302.09 39.5379C301.174 39.6529 300.433 38.6852 300.865 37.8165C301.172 37.2009 301.923 36.939 302.38 36.4578C303.434 35.3468 303.284 33.728 303.098 32.325C303.023 31.7607 302.176 31.98 302.251 32.5409H302.249Z" fill="#BC4120"/>
<path d="M304.453 46.3093C305.63 46.2512 306.65 45.3343 307 43.9756C307.155 43.3766 306.379 43.0975 306.225 43.6945C305.986 44.623 305.286 45.2956 304.472 45.3363C303.955 45.3615 303.932 46.3345 304.453 46.3093Z" fill="#BC4120"/>
<path d="M324.353 35.0687C324.671 33.7881 325.465 31.3597 327.497 32.1294C328.052 32.3395 328.318 31.5295 327.766 31.3211C326.781 30.948 325.678 31.227 324.925 31.8807C324.03 32.6571 323.716 33.7697 323.452 34.8251C323.321 35.3528 324.218 35.5981 324.351 35.0687H324.353Z" fill="#BC4120"/>
<path d="M312.052 33.8811C311.812 34.006 311.475 34.0477 311.035 34.0927C310.506 34.146 310.225 33.936 310.071 33.4694C309.824 32.7278 309.979 31.278 310.979 31.1713C311.61 31.1047 312.144 31.208 312.354 31.8346C312.436 32.0779 312.47 32.3395 312.485 32.5995L312.49 32.7212C312.516 33.3944 312.371 33.7127 312.052 33.8811Z" fill="#873312"/>
<path d="M296.853 32.9171C296.643 33.7708 295.372 33.8056 294.659 33.5187C293.742 33.1501 293.866 31.9329 294.298 31.1974C294.692 30.5262 295.204 30.7522 295.897 30.8496C296.593 30.947 296.789 31.3747 296.883 31.9642C296.936 32.2911 296.924 32.6267 296.854 32.9153L296.853 32.9171Z" fill="#873312"/>
<path d="M315.146 32.4029C315.836 32.2077 316.526 32.0126 317.215 31.8175C317.779 31.6574 317.562 30.5896 316.996 30.7497C316.306 30.9448 315.617 31.14 314.927 31.3351C314.363 31.4952 314.581 32.5629 315.146 32.4007V32.4029Z" fill="#BC4120"/>
<path d="M315.622 34.1178C316.21 34.5104 316.828 34.789 317.485 34.9348C317.956 35.0395 318.176 34.1402 317.702 34.0355C317.109 33.9047 316.548 33.6728 316.017 33.3195C315.593 33.0353 315.196 33.8336 315.624 34.1178H315.622Z" fill="#BC4120"/>
<path d="M290.386 31.6149C290.515 31.7175 290.643 31.824 290.774 31.9266C290.86 31.997 291.011 32.0103 291.113 31.9837C291.217 31.9552 291.33 31.8715 291.381 31.7708C291.506 31.5274 291.435 31.2746 291.237 31.1149C291.108 31.0123 290.98 30.9058 290.851 30.8032C290.765 30.7328 290.612 30.7195 290.511 30.7461C290.408 30.7746 290.295 30.8583 290.242 30.959C290.117 31.2024 290.189 31.4552 290.386 31.6149Z" fill="#BC4120"/>
<path d="M290.591 33.9801L290.714 33.8691L290.781 33.8197L290.807 33.8092L290.96 33.7369H290.964L291.068 33.7087C291.317 33.6488 291.503 33.4039 291.425 33.1731C291.35 32.9458 291.093 32.7872 290.826 32.8524C290.479 32.9352 290.153 33.1008 289.908 33.3405C289.733 33.5114 289.692 33.7933 289.892 33.966C290.075 34.1228 290.402 34.1615 290.589 33.9801H290.591Z" fill="#BC4120"/>
<path d="M297.275 41.058C297.558 40.5993 297.932 40.2369 298.39 39.9778C298.862 39.7099 298.458 38.9396 297.986 39.2092C297.407 39.5384 296.923 40.0146 296.565 40.5976C296.272 41.0738 296.984 41.5325 297.275 41.058Z" fill="#BC4120"/>
<path d="M305.968 39.5626C306.748 40.0441 307.37 40.6837 307.819 41.4548C308.112 41.9558 308.934 41.5259 308.642 41.023C308.116 40.1205 307.374 39.3689 306.463 38.8057C305.955 38.4912 305.463 39.2516 305.97 39.5643L305.968 39.5626Z" fill="#BC4120"/>
<path d="M343.934 160.585C343.917 158.305 343.345 156.089 343.15 153.829C342.95 151.507 342.706 149.202 342.353 146.899C341.999 144.597 341.567 142.312 341.127 140.027C340.681 137.707 340.456 135.35 339.987 133.035C339.478 130.518 338.586 128.074 338.653 125.467C338.668 124.908 337.83 124.887 337.817 125.446C337.759 127.665 338.359 129.769 338.875 131.9C339.43 134.2 339.699 136.549 340.077 138.884C340.835 143.562 341.854 148.163 342.242 152.901C342.456 155.485 343.097 158.059 343.098 160.654L343.137 160.843C342.177 162.223 341.477 163.787 340.381 165.065C339.178 166.469 337.974 167.854 336.981 169.432C336.686 169.901 337.4 170.355 337.694 169.888C338.728 168.243 340.029 166.872 341.227 165.368C342.283 164.042 342.993 162.474 343.986 161.103C344.129 160.905 344.069 160.708 343.931 160.587L343.934 160.585Z" fill="#A24E22"/>
<path d="M363.544 167.138C357.815 166.149 352.77 163.055 347.155 161.678C346.605 161.543 346.35 162.376 346.9 162.511C352.515 163.888 357.56 166.982 363.289 167.971C363.843 168.066 364.101 167.235 363.544 167.138Z" fill="#A24E22"/>
<path d="M308.992 235.952C308.697 233.003 308.456 230.059 307.99 227.132C307.526 224.21 307.026 221.306 306.77 218.355C306.51 215.391 306.404 212.416 306.158 209.451C305.881 206.146 305.445 202.857 305.329 199.539C305.31 198.979 304.475 199.007 304.495 199.569C304.598 202.522 304.953 205.454 305.226 208.394C305.502 211.354 305.617 214.326 305.846 217.289C306.071 220.206 306.487 223.081 306.961 225.964C307.449 228.929 307.77 231.899 308.052 234.894C308.356 238.135 309.01 241.362 309.133 244.617C309.153 245.175 309.989 245.148 309.967 244.587C309.859 241.691 309.278 238.834 308.992 235.956V235.952Z" fill="#873312"/>
<path d="M292.911 18.0625C290.316 19.4367 286.315 19.2723 285.145 15.8959C284.953 15.3454 284.121 15.5615 284.315 16.1212C285.69 20.0943 290.178 20.5394 293.325 18.8733C293.82 18.6111 293.406 17.8002 292.911 18.0625Z" fill="#C8813D"/>
<path d="M304.073 12.8765C301.815 13.0066 299.469 13.3347 297.5 11.9999C295.555 10.6825 294.568 8.19857 295.883 6.13128C296.188 5.65394 295.421 5.19744 295.118 5.67477C293.716 7.87746 294.442 10.6425 296.415 12.2794C297.421 13.1143 298.593 13.6315 299.905 13.8086C301.279 13.9943 302.676 13.8259 304.052 13.7461C304.625 13.7131 304.651 12.8417 304.072 12.8747L304.073 12.8765Z" fill="#C8813D"/>
<path d="M299.873 58.4604C297.77 58.5016 295.933 57.712 294.957 55.721C294.061 53.8912 293.969 51.7104 294.009 49.7015C294.021 49.1231 293.147 49.1017 293.134 49.68C293.091 51.9306 293.227 54.3889 294.318 56.3996C295.466 58.5141 297.562 59.404 299.852 59.3592C300.413 59.3485 300.436 58.4497 299.873 58.4604Z" fill="#C8813D"/>
<path d="M101.665 58.5448C99.0143 72.0778 103.39 85.2392 114.565 93.4964C124.54 100.863 137.919 102.721 149.415 97.5484C160.196 92.7002 167.649 82.2489 171.689 71.5499C174.77 63.393 175.955 54.0623 173.284 45.7167C163.78 16.0143 117.343 16.5864 101.468 40.7505C95.9542 49.1405 94.9302 59.4236 96.2955 69.058C96.7604 72.3491 101.492 71.3583 101.03 68.0937C99.8588 59.8306 100.78 51.3227 105.273 44.0475C109.06 37.9165 115.103 33.6228 121.736 30.9893C134.562 25.8994 150.957 27.4122 161.491 36.3388C175.561 48.2617 169.929 70.4677 159.54 83.1484C151.96 92.3994 140.452 97.4687 128.65 94.5286C114.68 91.0488 104.946 79.1584 105.682 64.6965C105.758 63.219 105.964 61.7386 106.25 60.2847C106.85 57.2266 102.316 55.2331 101.665 58.5448Z" fill="white"/>
<path d="M157.333 40.1876C156.964 39.8012 156.488 39.5986 155.951 39.5986H155.818C154.799 39.5986 153.962 40.4034 153.911 41.4294V41.44C153.808 44.1795 153.257 46.2687 152.18 48.0168C151.354 49.3546 150.178 50.5191 149.022 51.641C145.876 48.5178 141.351 46.743 136.472 46.743C131.593 46.743 127.057 48.5178 123.911 51.641C122.752 50.5191 121.58 49.3546 120.753 48.0168C119.676 46.2687 119.125 44.1795 119.024 41.4427C118.987 40.4087 118.152 39.5986 117.115 39.5986H116.982C116.44 39.5986 115.967 39.8038 115.608 40.1902C115.241 40.5633 115.057 41.043 115.076 41.5839C115.363 48.8402 118.376 51.7689 121.29 54.5989L121.51 54.8121C120.519 56.6295 119.998 58.6361 119.998 60.6507C119.998 63.3849 120.936 66.0337 122.707 68.3041C124.414 70.4919 126.804 72.2241 129.623 73.3167C130.439 73.6311 130.947 74.3666 130.947 75.2353V76.9275C130.947 77.4418 131.045 77.9161 131.247 78.3718L132.042 80.1866C132.165 80.4957 132.218 80.7382 132.218 81.0233V83.475C132.218 83.9067 132.566 84.2558 132.997 84.2558H139.947C140.378 84.2558 140.726 83.9067 140.726 83.475V81.0233C140.726 80.7169 140.777 80.477 140.899 80.1946L141.686 78.3745C141.891 77.9135 141.989 77.4418 141.989 76.9275V75.2353C141.989 74.3666 142.497 73.6311 143.316 73.3167C146.132 72.2267 148.522 70.4946 150.229 68.3068C152.002 66.0337 152.938 63.3875 152.938 60.6534C152.938 58.6388 152.417 56.6349 151.425 54.8148L151.627 54.6203C153.092 53.1999 154.605 51.7316 155.759 49.7356C157.06 47.4812 157.727 44.8936 157.86 41.5919C157.892 41.067 157.711 40.582 157.336 40.1902L157.333 40.1876Z" fill="#F28D75"/>
<path d="M157.333 40.1873C156.964 39.8009 156.488 39.5984 155.951 39.5984H155.818C155.674 39.5984 155.533 39.6144 155.397 39.6464C155.512 39.7236 155.615 39.8142 155.714 39.9182C156.086 40.3152 156.27 40.8056 156.238 41.3385C156.105 44.6855 155.437 47.3104 154.137 49.5968C152.986 51.6194 151.47 53.109 150.005 54.5481C149.888 54.6653 149.859 54.8412 149.933 54.9851C150.843 56.7625 151.321 58.7105 151.321 60.6638C151.321 63.4379 150.383 66.1214 148.612 68.4238C146.905 70.6436 144.515 72.3997 141.699 73.5056C140.88 73.8254 140.372 74.5715 140.372 75.4509V77.1671C140.372 77.6894 140.274 78.1691 140.069 78.6354L139.282 80.4795C139.168 80.7459 139.109 81.0311 139.109 81.3189V83.8052C139.109 83.9704 139.059 84.1249 138.974 84.2529H139.947C140.378 84.2529 140.726 83.9038 140.726 83.4721V81.0204C140.726 80.714 140.776 80.4741 140.899 80.1917L141.686 78.3716C141.89 77.9106 141.989 77.4389 141.989 76.9246V75.2324C141.989 74.3637 142.497 73.6282 143.316 73.3138C146.131 72.2238 148.522 70.4917 150.229 68.3039C152.002 66.0308 152.938 63.3846 152.938 60.6505C152.938 58.6359 152.417 56.6319 151.425 54.8119L151.627 54.6173C153.092 53.197 154.605 51.7287 155.759 49.7327C157.059 47.4783 157.729 44.8907 157.86 41.589C157.891 41.064 157.711 40.579 157.336 40.1873H157.333Z" fill="#EE765E"/>
<path d="M117.533 41.3225C117.653 44.3285 118.285 46.6255 119.527 48.5442C120.269 49.6874 121.271 50.732 122.308 51.718C122.766 52.1524 123.486 52.1177 123.904 51.6461L123.912 51.6381C123.691 51.4302 123.483 51.225 123.281 51.0225C122.34 50.0871 121.428 49.1118 120.753 48.0166C119.676 46.2684 119.126 44.1792 119.025 41.4424C118.987 40.4085 118.152 39.5984 117.115 39.5984H117.046C116.876 39.5984 116.714 39.6144 116.557 39.649C117.126 40.0114 117.506 40.619 117.533 41.3225Z" fill="#EE765E"/>
<path d="M136.469 49.1328C128.703 49.1328 122.38 54.2999 122.38 60.6475C122.38 63.2484 123.412 65.7027 125.36 67.7439C127.216 69.6866 129.833 71.115 132.734 71.7652C133.683 71.973 134.345 72.7991 134.345 73.7718V84.2525H138.591V73.7718C138.591 72.7965 139.248 71.9704 140.197 71.7652C143.092 71.115 145.711 69.6866 147.567 67.7439C149.516 65.7027 150.548 63.2484 150.548 60.6475C150.548 54.2972 144.233 49.1328 136.472 49.1328H136.469Z" fill="#FFD934"/>
<path d="M150.524 61.3169C150.537 61.0957 150.548 60.8719 150.548 60.6507C150.548 54.3004 144.233 49.136 136.469 49.136C128.705 49.136 122.38 54.3031 122.38 60.6507C122.38 60.8745 122.388 61.0984 122.404 61.3196H122.414C125.563 61.3196 126.28 59.6141 129.442 59.6141C132.603 59.6141 133.308 61.3169 136.469 61.3169C139.631 61.3169 140.335 59.6141 143.497 59.6141C146.658 59.6141 147.363 61.3169 150.524 61.3169Z" fill="#D65938"/>
<path d="M148.389 61.0054C148.277 63.441 147.259 65.7354 145.419 67.6594C143.563 69.6021 140.947 71.0304 138.049 71.6807C137.102 71.8885 136.443 72.7146 136.443 73.6899V84.1707H134.345V84.2586H138.591V73.7779C138.591 72.8025 139.248 71.9765 140.197 71.7713C143.092 71.121 145.711 69.6927 147.567 67.75C149.349 65.8847 150.362 63.6755 150.524 61.3198C149.662 61.3198 148.984 61.1919 148.389 61.008V61.0054Z" fill="#FDC502"/>
<path d="M150.524 61.3169C150.537 61.0957 150.548 60.8719 150.548 60.6507C150.548 54.3004 144.233 49.136 136.469 49.136C136.344 49.136 136.217 49.136 136.094 49.1413C143.023 49.8555 148.399 54.7081 148.399 60.5681C148.399 60.7173 148.397 60.8639 148.389 61.0104C148.984 61.1943 149.662 61.3222 150.524 61.3222V61.3169Z" fill="#D65938"/>
<path d="M130.277 64.6823C130.657 64.6823 130.973 64.3732 130.973 63.9842C130.973 63.5951 130.657 63.2966 130.277 63.2966C129.896 63.2966 129.58 63.6058 129.58 63.9842C129.58 64.3626 129.896 64.6823 130.277 64.6823Z" fill="#FDC502"/>
<path d="M136.47 64.6823C136.85 64.6823 137.156 64.3732 137.156 63.9842C137.156 63.5951 136.847 63.2966 136.47 63.2966C136.092 63.2966 135.773 63.6058 135.773 63.9842C135.773 64.3626 136.079 64.6823 136.47 64.6823Z" fill="#FDC502"/>
<path d="M142.651 64.6823C143.042 64.6823 143.348 64.3732 143.348 63.9842C143.348 63.5951 143.04 63.2966 142.651 63.2966C142.263 63.2966 141.965 63.6058 141.965 63.9842C141.965 64.3626 142.274 64.6823 142.651 64.6823Z" fill="#FDC502"/>
<path d="M133.446 66.9609C133.837 66.9609 134.143 67.2781 134.143 67.6591C134.143 68.0402 133.834 68.3573 133.446 68.3573C133.058 68.3573 132.76 68.0402 132.76 67.6591C132.76 67.2781 133.069 66.9609 133.446 66.9609ZM139.485 66.9609C139.865 66.9609 140.181 67.2781 140.181 67.6591C140.181 68.0402 139.865 68.3573 139.485 68.3573C139.104 68.3573 138.788 68.0402 138.788 67.6591C138.788 67.2781 139.096 66.9609 139.485 66.9609Z" fill="#FDC502"/>
</svg>
