<svg width="858" height="860" viewBox="0 0 858 860" fill="none" xmlns="http://www.w3.org/2000/svg">
<path d="M160.947 500.833C200.078 508.296 197.216 518.389 241.657 519.169C288.174 519.988 382.298 529.432 486.473 519.169C628.793 513.658 756.276 539.125 832.678 672.478C909.089 805.822 782.707 857.914 654.315 843.545C561.242 833.127 491.431 796.262 415.143 784.796C344.351 774.152 239.967 776.582 174.222 766.056C52.9301 744.32 25.357 693.974 7.73383 636.825C-9.06336 582.365 3.23563 539.704 160.947 500.833Z" fill="#C3D87A"/>
<path d="M323.428 527.223C323.112 518.544 315.973 511.6 307.211 511.6C305.431 511.6 303.729 511.89 302.126 512.418C302.947 510.509 303.4 508.405 303.4 506.197C303.4 499.733 299.518 494.177 293.957 491.724C298.527 487.582 301.392 481.602 301.392 474.959C301.392 462.462 291.251 452.331 278.743 452.331C268.247 452.331 259.423 459.466 256.854 469.148C254.481 467.152 251.423 465.947 248.082 465.947C240.937 465.947 235.082 471.441 234.502 478.43C232.376 476.639 229.635 475.558 226.636 475.558C219.882 475.558 214.412 481.026 214.412 487.774C214.412 488.888 214.572 489.962 214.852 490.992C213.03 490.086 210.976 489.572 208.798 489.572C201.268 489.572 195.166 495.668 195.166 503.191C195.166 505.68 195.838 508.008 197.008 510.021C187.956 510.421 180.738 517.876 180.738 527.021V527.223H323.422H323.428Z" fill="#7FAB53"/>
<path d="M251.199 527.223C252.023 524.705 252.478 522.021 252.478 519.229C252.478 505.111 241.038 493.66 226.929 493.66C224.673 493.66 222.485 493.955 220.401 494.504C219.236 484.581 210.812 476.879 200.583 476.879C192.983 476.879 186.374 481.133 183.004 487.391L183.02 487.066C183.02 480.113 177.391 474.478 170.447 474.478C166.412 474.478 162.832 476.389 160.53 479.346C159.689 473.435 154.628 468.886 148.493 468.886C141.766 468.886 136.316 474.342 136.316 481.071C136.316 481.448 136.339 481.815 136.371 482.186C133.131 480.09 129.278 478.875 125.139 478.875C113.673 478.875 104.382 488.178 104.382 499.651C104.382 503.431 105.395 506.969 107.158 510.024C100.402 512.604 93.7046 510.338 93.7046 518.007C93.7046 518.007 90.5863 516.63 90.9207 522.646C91.2621 528.789 97.4164 527.223 97.4164 527.223H251.202H251.199Z" fill="#90C25E"/>
<path d="M434.882 527.223C435.707 524.705 436.161 522.021 436.161 519.229C436.161 505.111 424.721 493.66 410.613 493.66C408.357 493.66 406.166 493.955 404.085 494.504C402.923 484.581 394.495 476.879 384.266 476.879C376.663 476.879 370.057 481.133 366.684 487.391L366.701 487.066C366.701 480.113 361.075 474.478 354.128 474.478C350.096 474.478 346.512 476.389 344.214 479.346C343.373 473.435 338.312 468.886 332.173 468.886C325.45 468.886 320 474.342 320 481.071C320 481.448 320.022 481.815 320.058 482.186C316.818 480.09 312.965 478.875 308.826 478.875C297.36 478.875 288.066 488.178 288.066 499.651C288.066 503.431 289.079 506.969 290.838 510.024C284.083 512.604 279.281 519.151 279.281 526.82L279.291 527.223H434.886H434.882Z" fill="#90C25E"/>
<path d="M228.827 352.993C228.827 386.958 201.294 414.49 167.335 414.49C133.376 414.49 105.846 386.954 105.846 352.993C105.846 319.031 133.37 291.509 167.335 291.509C201.3 291.509 228.827 319.038 228.827 352.993Z" fill="#90C25E"/>
<path d="M166.639 323.246V526.455C166.639 526.881 166.982 527.223 167.406 527.223C167.83 527.223 168.17 526.881 168.17 526.455V323.246C168.17 322.82 167.827 322.478 167.406 322.478C166.986 322.478 166.639 322.82 166.639 323.246ZM167.821 393.62L201.492 371.58C201.845 371.349 201.945 370.871 201.715 370.513C201.485 370.158 201.01 370.057 200.657 370.288L166.986 392.328C166.633 392.559 166.533 393.034 166.762 393.392C166.992 393.75 167.468 393.851 167.821 393.617V393.62ZM167.821 344.134L201.492 322.094C201.845 321.863 201.945 321.388 201.715 321.03C201.485 320.672 201.01 320.571 200.657 320.805L166.986 342.845C166.633 343.076 166.533 343.551 166.762 343.909C166.992 344.267 167.468 344.368 167.821 344.134ZM167.821 368.316L217.444 335.834C217.797 335.602 217.897 335.124 217.667 334.766C217.437 334.411 216.965 334.31 216.609 334.541L166.986 367.023C166.633 367.254 166.533 367.733 166.762 368.091C166.992 368.446 167.468 368.547 167.821 368.316ZM177.332 387.149L196.103 391.032C196.517 391.117 196.922 390.85 197.006 390.434C197.09 390.017 196.825 389.61 196.411 389.522L177.64 385.639C177.225 385.554 176.821 385.824 176.737 386.238C176.653 386.654 176.918 387.061 177.332 387.146V387.149ZM192.171 376.844L195.66 365.708C195.786 365.301 195.563 364.872 195.161 364.745C194.76 364.615 194.33 364.842 194.2 365.246L190.711 376.382C190.585 376.785 190.809 377.218 191.21 377.345C191.611 377.472 192.042 377.247 192.168 376.844H192.171ZM190.41 353.414L212.343 349.534C212.761 349.459 213.039 349.062 212.965 348.642C212.894 348.225 212.495 347.946 212.078 348.017L190.145 351.897C189.728 351.972 189.449 352.372 189.524 352.789C189.598 353.206 189.993 353.486 190.41 353.414ZM178.578 360.881L182.899 350.592C183.064 350.201 182.879 349.749 182.491 349.583C182.103 349.417 181.653 349.602 181.488 349.993L177.167 360.285C177.002 360.676 177.183 361.128 177.575 361.291C177.963 361.457 178.413 361.275 178.578 360.881ZM183.824 333.516L202.269 332.842C202.692 332.826 203.023 332.468 203.006 332.045C202.99 331.618 202.637 331.286 202.214 331.303L183.769 331.973C183.345 331.989 183.015 332.347 183.032 332.771C183.048 333.197 183.4 333.529 183.824 333.513V333.516ZM178.232 336.791L180.061 328.523C180.151 328.109 179.892 327.696 179.478 327.605C179.064 327.51 178.656 327.774 178.565 328.191L176.737 336.455C176.646 336.869 176.905 337.282 177.319 337.373C177.734 337.468 178.141 337.204 178.232 336.791ZM167.685 392.328L134.013 370.288C133.661 370.057 133.185 370.158 132.955 370.513C132.725 370.871 132.826 371.346 133.178 371.58L166.85 393.62C167.202 393.851 167.678 393.75 167.908 393.396C168.138 393.038 168.037 392.562 167.685 392.331V392.328ZM167.685 342.842L134.013 320.802C133.661 320.571 133.185 320.672 132.955 321.026C132.725 321.384 132.826 321.86 133.178 322.091L166.85 344.131C167.202 344.362 167.678 344.261 167.908 343.906C168.138 343.548 168.037 343.073 167.685 342.842ZM167.685 367.023L118.065 334.541C117.712 334.31 117.236 334.411 117.006 334.766C116.777 335.124 116.877 335.599 117.23 335.834L166.85 368.316C167.202 368.547 167.678 368.446 167.908 368.091C168.138 367.733 168.037 367.258 167.685 367.023ZM157.034 385.639L138.26 389.522C137.845 389.607 137.58 390.017 137.664 390.434C137.748 390.85 138.153 391.117 138.567 391.032L157.341 387.149C157.755 387.065 158.021 386.658 157.937 386.241C157.853 385.824 157.448 385.557 157.034 385.642V385.639ZM143.959 376.378L140.47 365.243C140.344 364.836 139.913 364.611 139.512 364.742C139.108 364.868 138.884 365.301 139.014 365.705L142.502 376.84C142.629 377.244 143.059 377.472 143.46 377.342C143.865 377.215 144.088 376.782 143.959 376.378ZM144.525 351.894L122.599 348.014C122.181 347.942 121.786 348.222 121.712 348.639C121.638 349.059 121.916 349.456 122.333 349.531L144.26 353.411C144.677 353.482 145.072 353.202 145.147 352.786C145.221 352.369 144.943 351.969 144.525 351.894ZM157.506 360.282L153.186 349.99C153.021 349.599 152.571 349.414 152.182 349.58C151.794 349.746 151.61 350.195 151.775 350.589L156.095 360.878C156.26 361.272 156.71 361.454 157.098 361.288C157.487 361.125 157.671 360.673 157.506 360.282ZM150.901 331.976L132.46 331.306C132.036 331.29 131.683 331.622 131.667 332.048C131.651 332.471 131.981 332.829 132.405 332.845L150.846 333.519C151.27 333.535 151.623 333.203 151.639 332.777C151.655 332.354 151.325 331.996 150.901 331.98V331.976ZM157.937 336.458L156.111 328.194C156.021 327.781 155.61 327.517 155.199 327.608C154.788 327.702 154.526 328.113 154.616 328.526L156.442 336.794C156.532 337.207 156.943 337.471 157.354 337.376C157.765 337.282 158.027 336.872 157.937 336.458Z" fill="#873312"/>
<path d="M313.968 398.278C313.968 418.117 297.913 434.198 278.1 434.198C258.288 434.198 242.229 418.117 242.229 398.278V327.423C242.229 307.59 258.288 291.509 278.1 291.509C297.913 291.509 313.968 307.59 313.968 327.423V398.278Z" fill="#C6D76B"/>
<path d="M277.434 326.963V526.455C277.434 526.881 277.781 527.223 278.21 527.223C278.639 527.223 278.982 526.881 278.982 526.455V326.963C278.982 326.537 278.639 326.196 278.21 326.196C277.781 326.196 277.434 326.537 277.434 326.963ZM279.539 350.633L295.919 337.94C296.256 337.679 296.315 337.195 296.053 336.86C295.791 336.525 295.303 336.466 294.966 336.727L278.586 349.42C278.249 349.68 278.19 350.165 278.452 350.5C278.714 350.835 279.202 350.893 279.539 350.633ZM279.185 378.97L309.696 357.817C310.046 357.577 310.131 357.095 309.889 356.747C309.647 356.399 309.162 356.315 308.812 356.555L278.298 377.708C277.948 377.949 277.863 378.43 278.105 378.778C278.351 379.126 278.832 379.21 279.185 378.97ZM279.166 411.847L302.614 396.551C302.971 396.321 303.072 395.842 302.837 395.488C302.604 395.13 302.123 395.033 301.766 395.267L278.318 410.562C277.961 410.796 277.859 411.271 278.095 411.629C278.328 411.983 278.809 412.084 279.166 411.85V411.847ZM288.209 405.768L299.769 408.373C300.185 408.468 300.601 408.207 300.695 407.794C300.79 407.381 300.529 406.968 300.113 406.874L288.552 404.269C288.136 404.175 287.721 404.435 287.626 404.848C287.531 405.261 287.793 405.674 288.209 405.768ZM292.917 369.262L298.695 358.526C298.898 358.152 298.754 357.684 298.378 357.486C298.001 357.284 297.533 357.427 297.33 357.801L291.551 368.537C291.348 368.911 291.492 369.376 291.869 369.577C292.249 369.779 292.717 369.636 292.917 369.262ZM287.911 343.947L299.795 346.223C300.214 346.304 300.623 346.031 300.702 345.615C300.784 345.199 300.509 344.795 300.09 344.714L288.205 342.441C287.786 342.359 287.38 342.633 287.298 343.049C287.216 343.465 287.491 343.868 287.911 343.95V343.947ZM277.614 349.417L261.234 336.723C260.897 336.463 260.409 336.522 260.147 336.857C259.885 337.192 259.944 337.676 260.281 337.936L276.661 350.63C276.998 350.89 277.483 350.831 277.748 350.497C278.01 350.162 277.951 349.677 277.614 349.417ZM277.902 377.705L247.388 356.552C247.038 356.308 246.554 356.396 246.311 356.744C246.066 357.092 246.151 357.573 246.501 357.814L277.015 378.967C277.365 379.21 277.85 379.123 278.095 378.775C278.341 378.427 278.252 377.945 277.902 377.705ZM277.882 410.559L254.434 395.264C254.077 395.029 253.596 395.13 253.363 395.485C253.128 395.839 253.229 396.317 253.586 396.548L277.031 411.843C277.391 412.078 277.869 411.977 278.105 411.622C278.341 411.265 278.239 410.79 277.882 410.556V410.559ZM267.651 404.266L256.087 406.871C255.672 406.965 255.41 407.378 255.505 407.791C255.6 408.204 256.015 408.464 256.431 408.37L267.995 405.765C268.411 405.671 268.673 405.258 268.578 404.845C268.483 404.432 268.067 404.171 267.651 404.266ZM264.649 368.537L258.87 357.801C258.667 357.427 258.199 357.284 257.823 357.486C257.446 357.687 257.302 358.152 257.505 358.526L263.284 369.262C263.487 369.636 263.955 369.779 264.331 369.577C264.708 369.376 264.849 368.911 264.649 368.537ZM267.998 342.437L256.114 344.711C255.695 344.792 255.419 345.195 255.498 345.612C255.58 346.028 255.986 346.301 256.405 346.22L268.29 343.943C268.709 343.865 268.984 343.459 268.902 343.042C268.823 342.626 268.414 342.353 267.995 342.434L267.998 342.437Z" fill="#873312"/>
<path d="M433.836 689.617C433.82 689.769 433.829 689.928 433.868 690.076C434.454 698.061 435.043 706.049 435.632 714.034L441.232 790.083L442.153 802.585C442.175 802.902 442.301 803.151 442.481 803.333C443.695 803.712 478.076 814.601 494.246 818.765C495.119 818.991 496.58 819.037 496.825 818.256C497.067 817.479 496.13 816.233 495.47 815.747C484.145 807.442 473.308 798.476 463.017 788.908L464.469 767.618C466.198 742.375 467.93 717.133 469.659 691.89C470.345 691.508 470.635 690.378 469.753 689.843C467.27 688.354 464.479 687.655 461.642 687.227C458.693 686.78 455.714 686.521 452.73 686.476C447.034 686.385 441.335 687.052 435.803 688.406C435.153 687.706 433.713 687.946 433.8 689.131L433.839 689.62" fill="#F3965E"/>
<path d="M387.285 685.388C387.279 693.597 387.308 701.807 387.37 710.013C387.488 726.312 387.731 742.605 388.101 758.897C388.288 767.045 388.501 775.189 388.747 783.334C388.816 785.636 388.799 787.97 388.776 790.315C388.724 795.328 388.652 800.387 389.376 805.254C389.478 805.927 390.697 806.181 390.809 806.213C398.416 808.502 406.047 810.72 413.698 812.869C417.483 813.929 421.279 814.976 425.075 816.007C428.792 817.014 439.805 819.824 443.699 819.693C444.61 819.664 444.974 818.803 444.784 818.136C444.784 817.863 444.705 817.564 444.44 817.372C432.499 808.58 423.36 802.416 411.964 790.74L411.829 790.601C412.003 790.298 413.337 778.844 414.484 771.028C418.493 743.785 423.069 716.626 428.192 689.569C428.569 688.98 428.457 688.031 427.582 687.755C415.238 683.834 402.13 682.481 389.239 683.811C388.862 683.847 388.583 684.025 388.396 684.266C387.832 684.295 387.292 684.669 387.292 685.388" fill="#F3965E"/>
<path d="M552.033 461.755C552.301 456.904 548.835 451.655 546.5 447.891C536.339 431.504 527.814 414.389 519.721 396.935C519.44 396.334 519.136 395.749 518.805 395.192C517.147 392.401 514.799 390.26 511.241 389.53C505.136 388.275 496.709 391.557 493.779 397.172C487.402 409.403 501.173 427.503 507.556 437.296C512.53 444.925 520.009 452.02 526.176 458.741C530.692 463.666 551.192 477.087 552.029 461.752L552.033 461.755Z" fill="#F3965E"/>
<path d="M465.289 259.757C464.786 259.101 464.022 258.588 462.898 258.284C453.384 255.705 443.687 252.986 433.896 251.736C426.31 250.766 418.619 251.527 411.147 252.996C404.195 254.361 396.468 255.816 389.954 258.663C388.333 259.368 388.735 259.665 389.738 261.092C391.858 264.105 392.6 267.758 393.903 271.14C395.37 274.936 397.38 278.579 399.428 282.085C403.577 289.189 408.429 295.845 413.013 302.664C414.96 305.56 431.923 331.47 435.255 328.29C442.41 325.483 446.079 316.548 449.284 310.202C453.603 301.649 457.821 292.757 460.977 283.603C462.591 278.925 463.94 274.156 464.901 269.302C465.508 266.233 467.076 262.087 465.289 259.757Z" fill="#F3965E"/>
<path d="M527.606 403.586C527.606 403.586 525.599 359.564 521.845 337.822C519.139 322.154 515.43 306.203 508.87 291.687C505.608 284.471 501.662 276.921 496.165 271.207C494.222 269.189 491.743 267.729 489.377 266.282C489.377 266.282 483.851 318.523 482.519 341.66C481.453 360.102 479.744 379.297 482.939 397.6C483.389 400.173 490.151 408.184 490.151 408.184L527.609 403.589L527.606 403.586Z" fill="#D65938"/>
<path d="M488.697 404.616C488.677 399.453 488.716 394.292 488.921 389.126C490.303 354.376 492.622 319.606 493.849 284.843C493.881 283.902 493.914 282.964 493.946 282.023C494.07 281.17 494.171 280.311 494.242 279.458C494.314 278.605 494.359 277.759 494.366 276.925C495.875 266.244 484.218 263.675 476.106 261.702C475.602 261.562 475.101 261.422 474.603 261.285C467.142 259.228 460.595 257.61 460.595 257.61C460.595 257.61 437.522 307.619 434.516 313.544C434.415 313.743 434.318 313.941 434.217 314.14C423.35 301.785 412.071 289.775 402.154 276.626C398.683 272.025 395.398 267.282 392.409 262.356L392.282 261.92C391.671 260.67 390.354 258.225 390.354 258.225C390.354 258.225 353.031 267.484 352.654 280.09C351.854 306.662 359.78 328.976 363.423 355.193C365.095 367.209 367.241 379.154 369.648 391.043C370.126 393.4 370.344 399.96 370.357 409.76L488.7 404.616H488.697Z" fill="#D65938"/>
<path d="M370.755 409.375C370.856 487.879 348.565 662.28 358.14 740.518C358.8 745.908 508.688 738.252 508.688 738.252C508.688 738.252 504.347 590.253 499.737 535.252C498.201 516.932 495.584 498.725 493.249 480.496C490.924 462.328 488.879 444.088 488.457 425.761C488.427 424.438 488.408 423.115 488.395 421.792C488.739 421.626 488.999 421.294 488.996 420.79C488.992 415.27 488.911 409.756 488.892 404.242L370.752 409.375" fill="#FEDE8D"/>
<path d="M376.63 395.869C372.196 392.435 367.034 390.242 361.395 390.07C358.572 389.986 355.906 390.19 353.138 390.724C350.933 391.149 348.5 391.596 346.736 393.083L346.463 393.407C346.154 393.582 345.927 393.902 345.927 394.366C345.907 419.655 343.877 444.928 345.112 470.211C345.524 478.667 346.125 487.113 346.914 495.542C347.067 497.182 347.486 499.446 349.253 500.088C350.666 500.603 351.774 499.65 352.358 498.432C353.187 496.705 352.57 494.706 353.145 492.915L353.31 492.614C354.178 491.872 354.398 494.318 354.408 494.655C354.467 496.608 354.515 501.976 357.536 501.95C358.67 501.938 359.258 500.868 359.469 499.893C359.69 498.879 359.758 497.762 359.852 496.699C359.907 496.038 359.839 495.364 359.969 494.706C360.015 494.48 360.005 494.016 360.239 493.88C361.152 493.359 361.184 496.446 361.226 496.871C361.285 497.444 361.363 498.066 361.496 498.672C361.629 499.278 361.811 499.871 362.081 500.386C362.691 501.879 364.553 502.576 365.485 501.413C366.437 500.224 366.605 499.268 366.417 497.752C366.316 496.971 366.268 496.171 366.287 495.384C366.294 495.047 366.258 494.25 366.566 494.016C367.034 493.663 367.473 494.376 367.664 494.697C368.359 495.857 368.359 497.305 368.626 498.591C368.86 499.728 369.113 501.834 370.607 501.879C374.619 501.996 373.921 493.799 373.557 488.804C373.492 487.913 373.342 487.032 373.245 486.144C373.186 485.622 373.131 485.097 373.079 484.573L373.277 484.654C374.794 485.178 375.97 484.106 375.863 482.587C375.749 480.996 375.126 479.188 374.603 477.708C373.943 475.832 373.063 474.043 372.166 472.271C371.322 454.521 372.365 436.531 373.69 419.01C374.229 411.88 374.703 404.665 376.386 397.693L376.405 397.586C377.023 397.223 377.341 396.416 376.63 395.866V395.869Z" fill="#F3965E"/>
<path d="M383.339 407.395C383.339 407.395 381.959 392.014 381.407 388.351C378.87 371.476 374.643 354.85 371.554 338.063C368.321 320.496 365.386 302.877 362.359 285.278C361.924 282.74 353.657 277.319 353.657 277.319C353.657 277.319 342.722 297.453 337.708 327.31C333.932 349.781 329.735 399.378 329.735 399.378L383.342 407.395H383.339Z" fill="#D65938"/>
<path d="M446.391 265.219C444.493 249.435 443.764 233.525 444.198 217.634C444.753 216.808 444.928 215.732 444.759 214.656C444.487 212.924 444.367 211.074 443.913 209.377C443.267 206.977 441.201 205.745 438.837 205.635C435.072 205.459 431.229 205.752 427.46 205.814C419.799 205.937 412.139 206.057 404.478 206.184C402.656 206.214 400.904 207.771 400.992 209.679L401.015 209.91C400.794 210.359 400.671 210.859 400.687 211.405C401.054 222.738 401.877 234.045 403.126 245.31C403.301 249.169 403.473 253.028 403.648 256.887C403.755 259.234 403.784 261.597 403.972 263.935C404.102 265.541 404.725 266.955 406.178 267.784C407.381 268.47 408.948 268.372 410.29 268.45C415.035 268.73 419.783 269.006 424.528 269.283L440.608 270.219C441.756 270.287 442.872 269.601 443.524 268.632C445.058 268.281 446.598 266.935 446.391 265.222V265.219Z" fill="#F3965E"/>
<path d="M416.356 143.497C416.898 132.844 415.35 120.595 407.148 113.124C404.406 110.629 401.147 108.512 397.48 107.965C393.605 107.388 389.6 108.648 386.387 110.885C382.372 113.675 379.555 117.814 377.335 122.096C374.729 127.12 372.782 132.681 373.136 138.331C373.619 146.103 378.805 151.477 386.046 153.742C390.025 154.987 394.209 155.246 398.35 155.081C406.22 154.77 415.421 155.937 416.216 145.708C416.271 144.982 416.32 144.243 416.359 143.497H416.356Z" fill="#FACFA6"/>
<path d="M469.225 160.059C468.881 157.789 468.43 155.575 467.85 153.449C465.075 143.32 454.588 139.689 444.41 140.193C439.252 140.448 434.143 141.511 429.089 142.492C424.23 143.437 419.361 144.513 414.758 146.365C406.466 149.697 398.89 155.477 395.914 164.167C394.29 168.916 394.358 174.162 394.39 179.117C394.42 183.925 394.689 188.723 395.324 193.488C396.562 202.764 399.214 211.941 404.355 219.863C406.372 222.97 408.748 225.878 411.445 228.429C411.983 228.939 412.537 229.436 413.101 229.917C419.52 235.376 428.091 237.407 436.305 237.802C440.51 238.005 444.74 237.914 448.922 237.384C455.321 236.569 460.848 233.737 463.785 227.732C466.372 222.443 466.929 216.445 468.022 210.731C469.082 205.178 469.866 199.568 470.336 193.933C471.277 182.646 470.93 171.261 469.231 160.059H469.225Z" fill="#F3965E"/>
<path d="M458.176 140.246C454.383 138.257 450.14 136.926 446.629 136.129C434.343 133.336 421.509 134.937 409.236 136.923C405.718 137.492 402.557 138.954 399.749 140.985C368.891 163.284 389.006 204.515 400.076 231.973C400.733 233.601 401.298 236.136 402.541 237.113C402.946 236.087 403.093 234.955 403.159 233.815C403.734 224.057 402.577 214.709 402.034 204.993C404.976 203.645 409.511 199.268 412.054 197.458C415.647 194.906 419.158 192.24 422.591 189.474C429.201 184.145 435.471 178.404 441.356 172.291C444.579 168.945 447.678 165.485 450.66 161.927C455.413 168.02 470.412 179.468 471.674 179.832C472.707 180.132 473.636 162.731 467.496 149.256C467.251 148.751 466.996 148.247 466.725 147.762C464.956 144.598 461.769 142.127 458.176 140.243V140.246Z" fill="#FACFA6"/>
<path d="M412.391 203.177C411.331 196.183 403.558 186.708 399.284 185.975C396.269 185.457 393.616 186.903 392.504 189.818C391.693 191.932 391.985 194.538 392.683 196.646C394.247 201.356 397.746 204.691 401.616 207.519C403.83 209.135 406.275 211.128 409.145 209.959C412.045 208.776 412.849 206.209 412.391 203.177Z" fill="#F3965E"/>
<path d="M442.221 184.886C441.469 183.471 439.28 183.487 437.906 183.512C434.937 183.569 431.653 184.091 429.165 185.804C428.864 186.012 428.569 186.251 428.401 186.575C428.099 187.15 428.388 187.612 428.892 187.911C430.327 188.763 432.3 188.864 433.924 188.961C435.819 189.071 437.77 189.103 439.591 188.499C441.066 188.012 443.192 186.707 442.224 184.886H442.221Z" fill="#FACFA6"/>
<path d="M467.536 182.497L467.368 182.395C465.121 181.099 461.919 181.012 459.355 181.237C458.468 181.315 457.574 181.456 456.774 181.825C455.803 182.272 454.825 183.346 455.142 184.421C455.628 186.062 457.914 185.876 459.335 185.852C461.165 185.819 462.997 185.744 464.82 185.6C465.93 185.51 469.087 185.009 468.381 183.379C468.22 183.01 467.896 182.725 467.536 182.497Z" fill="#FACFA6"/>
<path d="M449.74 199.065C449.261 201.529 449.75 204.092 451.268 206.157C452.012 207.165 453.194 207.85 453.885 208.871C455.247 210.884 452.171 211.646 450.73 211.898C449.677 212.087 450.125 213.633 451.171 213.447C452.759 213.166 454.487 212.743 455.4 211.329C456.151 210.164 455.961 208.858 455.121 207.799C454.181 206.611 452.905 205.824 452.145 204.48C451.288 202.96 451.015 201.186 451.348 199.49C451.543 198.482 449.939 198.047 449.74 199.065Z" fill="#BC4120"/>
<path d="M446.682 220.8C449.315 223.008 453.35 222.426 454.98 219.42C455.481 218.492 453.993 217.671 453.491 218.602C452.395 220.632 449.758 221.208 447.906 219.653C447.081 218.961 445.857 220.105 446.686 220.8H446.682Z" fill="#BC4120"/>
<path d="M436.936 197.271C436.807 198.598 436.28 200.105 434.787 200.06C434.323 200.044 433.859 200.031 433.395 200.015C433.056 200.006 432.711 199.993 432.398 199.864C431.397 199.448 431.378 197.638 431.463 196.714C431.548 195.838 431.946 194.061 432.971 193.903C433.624 193.803 434.286 193.751 434.944 193.755C435.12 193.755 435.295 193.761 435.459 193.816C436.575 194.212 437.039 196.238 436.936 197.271Z" fill="#873312"/>
<path d="M464.873 197.315C464.659 197.454 464.42 197.552 464.146 197.6C462.475 197.883 461.214 197.613 460.742 195.75C460.421 194.477 460.562 192.146 462.022 191.744C462.608 191.581 463.202 191.468 463.803 191.403C464.817 191.289 465.506 191.874 465.871 192.835C466.371 194.169 466.148 196.48 464.873 197.318V197.315Z" fill="#873312"/>
<path d="M394.943 191.837C396.888 189.896 399.891 190.41 401.881 192.002C404.022 193.716 405.143 196.315 406.188 198.757C406.58 199.67 408.111 199.268 407.717 198.343C406.403 195.274 404.969 192.04 402.013 190.177C399.474 188.575 396.023 188.538 393.821 190.731C393.105 191.448 394.223 192.554 394.943 191.837Z" fill="#BC4120"/>
<path d="M421.574 195.572C422.92 196.486 424.393 196.944 425.932 196.906C426.956 196.878 426.959 194.927 425.932 194.955C424.666 194.989 423.486 194.644 422.379 193.886C421.482 193.275 420.677 194.958 421.574 195.569V195.572Z" fill="#BC4120"/>
<path d="M422.977 200.831C424.026 200.611 425.073 200.391 426.122 200.167C427.136 199.954 426.706 198.29 425.695 198.503C424.649 198.723 423.6 198.943 422.55 199.167C421.536 199.38 421.966 201.044 422.977 200.831Z" fill="#BC4120"/>
<path d="M446.198 214.212C446.913 213.342 445.645 212.096 444.924 212.976C442.74 215.643 440.887 218.504 439.407 221.588C438.923 222.601 440.474 223.493 440.962 222.473C442.374 219.528 444.112 216.753 446.195 214.209L446.198 214.212Z" fill="#BC4120"/>
<path d="M459.12 219.186C459.357 220.21 460.814 219.775 460.573 218.752C460.071 216.607 459.165 214.688 457.904 212.958C457.299 212.131 456.236 213.298 456.835 214.119C457.934 215.623 458.683 217.333 459.12 219.186Z" fill="#BC4120"/>
<path d="M432.95 317.294C428.962 329.104 422.189 339.755 416.452 350.773C413.458 356.525 410.389 362.202 407.084 367.783C403.881 373.192 400.958 378.775 397.31 383.913C393.427 389.381 389.132 394.667 386.559 400.906C386.16 401.873 387.749 402.293 388.141 401.336C390.495 395.627 394.43 390.686 398.026 385.71C401.661 380.672 404.629 375.25 407.744 369.899C414.154 358.887 420.058 347.6 426.082 336.378C429.315 330.355 432.348 324.206 434.539 317.727C434.872 316.735 433.29 316.308 432.956 317.297L432.95 317.294Z" fill="#873312"/>
<path d="M486.362 358.487C486.362 357.477 485.039 357.477 485.039 358.487C485.046 363.765 485.263 369.037 485.292 374.316C485.297 375.325 486.62 375.325 486.615 374.316C486.586 369.037 486.37 363.762 486.362 358.487Z" fill="#873312"/>
<path d="M477.935 264.251C475.098 267.903 474.522 272.684 473.063 276.935C471.204 282.33 468.286 287.344 465.917 292.527C461.205 302.836 456.778 313.268 451.89 323.5C447.018 333.692 441.711 343.685 435.576 353.195C429.226 363.035 422.181 372.419 414.94 381.632C408.194 390.217 401.862 399.928 392.397 405.864C391.507 406.42 392.331 407.827 393.225 407.265C401.627 401.998 407.618 393.798 413.543 386.083C420.532 376.977 427.632 367.985 434.055 358.468C446.933 339.386 456.127 318.447 465.462 297.534C468.04 291.753 471.014 286.144 473.485 280.322C474.584 277.734 475.34 275.091 476.112 272.396C476.852 269.818 477.686 267.227 479.358 265.076C479.999 264.248 478.576 263.439 477.941 264.258L477.935 264.251Z" fill="#873312"/>
<path d="M421.778 318.478C415.604 310.926 408.131 304.592 401.479 297.481C395.678 291.278 389.945 284.783 385.278 277.672C382.767 273.846 380.517 269.747 379.413 265.28C379.165 264.272 377.602 264.7 377.851 265.708C379.871 273.872 385.288 281.012 390.526 287.411C396.295 294.457 402.547 301.017 409.058 307.377C413.073 311.303 417.072 315.264 420.629 319.615C421.288 320.42 422.43 319.27 421.775 318.472L421.778 318.478Z" fill="#873312"/>
<path d="M411.714 221.437C411.669 221.111 411.537 220.776 411.406 220.469C410.167 217.561 409.029 214.612 407.938 211.646C407.53 210.536 407.124 209.42 406.726 208.303C406.475 207.603 406.282 206.883 405.983 206.202C405.761 205.699 405.368 204.834 404.719 204.792C404.323 204.769 404.143 205.202 404.04 205.518C403.705 206.551 403.532 207.628 403.252 208.677C402.953 209.787 402.657 210.901 402.358 212.011C401.608 214.812 400.856 217.616 400.106 220.421C399.945 221.014 399.762 221.757 400.045 222.344C400.293 222.851 400.782 222.925 401.29 222.902C404.04 222.776 406.796 222.78 409.546 222.909C409.926 222.925 410.312 222.944 410.682 222.86C411.325 222.712 411.804 222.118 411.711 221.434L411.714 221.437ZM403.573 213.55C404.024 211.998 404.493 210.452 404.912 208.893C406.172 213.163 408.15 217.19 409.952 221.263C407.157 221.289 404.362 221.105 401.573 221.269C402.303 218.714 402.84 216.106 403.577 213.55H403.573Z" fill="#BB661E"/>
<path d="M372.994 461.403C372.965 460.596 372.965 459.205 372.196 458.694C372.209 458.182 371.822 457.674 371.223 457.909C367.031 459.557 362.501 459.804 358.058 460.081C353.386 460.371 348.624 461.185 343.962 460.397C343.417 460.306 343.041 460.713 342.963 461.14L342.741 461.394C342.178 462.367 342.371 463.742 342.423 464.813C342.471 465.868 342.245 467.152 342.522 468.168C342.78 469.128 343.669 469.373 344.548 469.451C346.586 469.63 348.672 469.689 350.717 469.672C354.812 469.643 359.004 468.855 363.029 468.129C365.103 467.754 367.163 467.298 369.182 466.683C370.29 466.347 372.006 466.035 372.698 464.956C373.316 463.996 373.036 462.485 372.997 461.397L372.994 461.403Z" fill="#BB661E"/>
<path d="M371.122 453.271C369.552 454.417 367.586 454.907 365.705 455.273C363.596 455.681 361.441 455.877 359.296 455.946C356.955 456.021 354.613 456.09 352.272 456.171C349.533 456.266 346.764 456.243 344.139 455.374C343.136 455.041 342.705 456.625 343.704 456.955C346.33 457.828 349.128 457.906 351.867 457.824C354.437 457.749 357.01 457.674 359.58 457.579C363.57 457.429 368.608 457.132 371.951 454.688C372.794 454.074 371.978 452.65 371.125 453.274L371.122 453.271Z" fill="#BB661E"/>
<path d="M378.355 361.465C376.757 368.095 376.828 374.884 376.432 381.615C376.035 388.364 374.295 395.108 374.744 401.884C374.811 402.922 376.69 402.929 376.622 401.884C376.181 395.247 377.872 388.652 378.284 382.042C378.703 375.318 378.568 368.522 380.166 361.899C380.413 360.879 378.602 360.442 378.355 361.468V361.465Z" fill="#873312"/>
<path d="M480.095 415.314C478.782 415.722 477.381 415.643 476.022 415.816C474.332 416.033 472.639 416.233 470.948 416.453C467.47 416.905 464.025 417.564 460.54 417.982C453.574 418.82 446.563 419.288 439.551 419.558C432.588 419.825 425.613 419.724 418.653 420.035C411.661 420.349 404.712 421.237 397.71 421.407C393.838 421.498 389.97 421.516 386.102 421.736C384.454 421.83 382.826 422.012 381.187 422.195C379.62 422.367 377.989 422.524 376.461 422.063C375.457 421.758 375.027 423.277 376.029 423.582C378.72 424.398 381.594 423.629 384.321 423.425C387.721 423.168 391.14 423.061 394.547 423.023C401.705 422.938 408.788 422.216 415.923 421.764C423.032 421.316 430.173 421.451 437.289 421.218C444.378 420.986 451.468 420.575 458.518 419.796C462.357 419.373 466.17 418.811 469.976 418.186C471.842 417.881 473.727 417.747 475.597 417.473C477.225 417.235 478.951 417.329 480.531 416.836C481.526 416.525 481.1 415.006 480.099 415.32L480.095 415.314Z" fill="#A47E2A"/>
<path d="M439.314 236.22C436.714 236.22 434.267 235.911 431.702 235.521C429.359 235.169 426.918 234.846 424.786 233.715C422.967 232.747 421.17 231.31 419.64 229.913C417.981 228.395 416.776 226.629 416.461 224.322C416.314 223.254 414.739 223.707 414.885 224.768C415.204 227.082 416.383 229.04 418.003 230.642C419.64 232.264 421.648 233.832 423.624 234.981C425.85 236.277 428.392 236.71 430.888 237.089C433.729 237.519 436.434 237.906 439.314 237.902C440.366 237.902 440.366 236.216 439.314 236.216V236.22Z" fill="#BC4120"/>
<path d="M437.043 162.631C432.966 170.641 425.451 176.77 418.38 181.944C417.549 182.553 418.348 183.969 419.193 183.354C426.484 178.017 434.22 171.722 438.428 163.455C438.905 162.524 437.52 161.696 437.043 162.631Z" fill="#C8813D"/>
<path d="M414.25 168.728C410.314 171.995 406.416 175.139 401.262 176.468C400.252 176.729 400.68 178.218 401.694 177.956C407.124 176.554 411.252 173.259 415.4 169.82C416.189 169.165 415.033 168.076 414.247 168.728H414.25Z" fill="#C8813D"/>
<path d="M405.176 138.594C400.364 139.692 395.512 141.398 391.651 144.593C387.756 147.818 385.753 152.424 385.707 157.475C385.697 158.547 387.348 158.547 387.358 157.475C387.398 152.713 389.348 148.515 393.072 145.565C396.68 142.705 401.192 141.208 405.613 140.2C406.649 139.964 406.208 138.358 405.176 138.594Z" fill="#C8813D"/>
<path d="M611.817 220.783C611.817 220.783 594.173 218.179 586.206 218.193C577.979 218.206 560.734 220.501 560.734 220.501C560.734 220.501 558.763 222.991 559.208 224.876C559.682 226.884 561.594 227.98 563.445 227.566C570.928 225.902 578.382 225.606 586.043 225.592C589.865 225.585 593.686 225.568 597.504 225.641C601.266 225.709 604.779 225.937 608.305 227.015C610.055 227.552 612.191 226.488 612.652 224.535C613.11 222.606 611.814 220.78 611.814 220.78L611.817 220.783Z" fill="#FCF2E6"/>
<path d="M660.482 465.332C660.984 439.217 661.384 413.102 661.671 386.987C662.303 386.155 662.58 385.057 662.316 384.011C662.202 383.55 661.993 383.134 661.72 382.776V382.468C661.769 377.985 654.791 377.806 654.723 382.286C630.251 388.267 606.104 395.566 582.427 404.165C577.541 405.939 571.303 407.508 568.117 411.867C567.01 412.455 566.134 413.573 566.248 414.84C570.498 461.573 575.153 508.271 580.221 554.927C585.274 601.423 611.43 777.127 611.43 777.127L650.42 769.422C650.42 769.422 659.544 514.294 660.479 465.332H660.482Z" fill="#D65938"/>
<path d="M581.456 549.848C581.871 531.206 582.407 512.564 583.061 493.929C583.394 493.425 583.594 492.83 583.58 492.171C583.172 469.519 582.764 446.87 582.355 424.222C582.254 418.639 582.368 413.005 582.045 407.429C581.966 406.064 581.76 404.81 581.012 403.64C579.983 402.028 578.156 401.108 576.244 401.089C574.973 401.076 573.711 401.401 572.47 401.641C571.09 401.908 569.698 402.132 568.306 402.314C557.918 403.685 546.901 402.746 536.277 402.918C533.395 402.964 530.506 403.065 527.637 403.351C524.572 403.659 521.621 404.277 519.134 406.191C515.477 409.005 514.438 415.309 517.918 418.519C518.052 464.144 519.098 509.763 521.075 555.346C523.088 601.784 526.059 648.183 529.987 694.5C532.196 720.6 537.673 779.493 537.673 779.493L572.953 773.517C572.953 773.517 580.652 586.106 581.456 549.848Z" fill="#D65938"/>
<path d="M639.994 424.896C637.153 426.999 633.921 428.434 630.625 429.639C627.286 430.858 623.889 432.051 620.476 433.03C613.06 435.16 605.315 436.198 597.757 437.682C589.896 439.222 581.973 440.631 573.965 441.083C565.916 441.541 557.899 440.742 549.914 439.759C545.547 439.225 540.943 439.035 536.727 437.692C534.831 437.086 533.075 436.221 531.308 435.317C529.716 434.501 527.892 433.695 526.814 432.191C526.209 431.346 524.779 432.132 525.394 432.988C527.183 435.481 530.441 436.834 533.146 438.056C536.659 439.644 540.241 440.208 544.029 440.673C552.506 441.715 561.005 442.934 569.565 442.868C577.715 442.806 585.829 441.577 593.83 440.097C597.829 439.356 601.808 438.508 605.81 437.774C609.789 437.043 613.785 436.388 617.722 435.445C621.86 434.455 625.898 433.033 629.913 431.625C633.714 430.288 637.506 428.752 640.774 426.331C641.605 425.715 640.832 424.267 639.987 424.892L639.994 424.896Z" fill="#873312"/>
<path d="M611.173 173.322C611.202 171.269 609.662 169.265 607.749 169.317C606.372 169.356 605.11 170.212 604.508 171.522C592.981 173.17 581.274 174.037 569.6 174.169C568.112 174.185 566.526 175.278 566.143 176.972C564.845 182.729 564.125 188.645 564.06 194.577C563.932 194.962 563.864 195.375 563.874 195.815C564.194 212.163 564.515 228.51 564.835 244.858C564.868 246.471 565.79 248.339 567.33 248.701C576.817 250.922 586.493 253.108 596.228 251.585C600.519 250.913 604.632 248.97 607.337 245.052C608.789 242.947 609.672 240.374 609.94 237.73C610.156 237.248 610.283 236.708 610.29 236.123C610.584 215.188 610.875 194.254 611.169 173.322H611.173Z" fill="#F3965E"/>
<path d="M614.056 136.296C611.886 129.405 607.608 123.355 600.219 119.095C592.283 114.52 582.854 113.055 573.698 113.389C562.867 113.789 553.102 115.29 543.28 119.917C541.864 120.583 542.343 123.777 542.134 126.692C542.099 127.471 542.066 128.254 542.037 129.038C541.796 135.292 541.737 141.557 541.864 147.818C542.079 158.326 542.593 168.977 544.122 179.384C545.255 187.088 547.519 195.257 552.93 201.112C555.809 204.228 559.681 206.551 563.852 207.412C569.153 208.507 574.58 207.802 579.737 206.317C589.124 203.617 597.879 198.964 603.876 191.088C609.394 183.842 611.954 174.754 613.9 166.001C616.103 156.081 616.939 145.443 614.056 136.293V136.296Z" fill="#F3965E"/>
<path d="M621.411 123.143C621.473 120.57 621.284 118.065 620.339 115.88C616.665 107.386 607.861 113.53 602.042 109.406C601.428 109.082 600.821 108.739 600.226 108.393C594.603 105.123 588.924 101.239 582.42 100.919C574.945 100.546 567.32 104.987 560.264 102.511C556.408 101.158 553.438 97.9116 549.566 96.6071C545.011 95.0728 539.774 96.5683 536.155 99.7243C528.329 106.548 526.104 122.12 534.658 129.355C535.6 130.151 536.672 130.818 537.448 131.776C538.858 133.514 539.066 135.9 539.216 138.13C539.554 143.131 539.891 148.132 540.229 153.136C540.34 154.742 540.876 156.804 542.487 156.917C542.62 151.44 542.75 145.967 542.883 140.49C542.935 138.308 543.16 135.79 544.956 134.54C547.022 133.1 549.819 134.197 552.152 135.146C561.68 139.024 572.469 139.758 582.443 137.208C586.929 136.059 592.322 134.469 595.698 137.632C597.887 139.681 598.238 142.966 598.374 145.957C598.638 151.77 598.644 160.413 598.293 166.22C598.228 167.334 598.141 168.476 597.679 169.493C597.218 170.509 596.412 171.325 595.59 172.085C591.65 175.724 586.332 178.65 581.082 177.501C576.498 176.497 572.937 172.587 568.321 171.732C563.493 170.839 558.786 173.458 553.945 174.277C550.044 174.94 546.772 174.273 543.179 172.623C541.808 180.854 539.554 186.574 540.921 194.805C542.286 203.037 546.912 211.207 554.553 214.621C559.364 216.771 564.841 216.852 570.091 216.386C582.31 215.301 594.863 211.032 602.793 201.706C603.806 200.515 604.755 199.211 605.135 197.699C605.499 196.262 605.323 194.753 605.145 193.281C604.255 185.949 603.365 178.617 602.474 171.286C602.211 169.114 601.955 166.858 602.617 164.773C603.244 162.808 605.463 156.542 607.734 156.584C609.342 156.613 610.525 159.555 611.252 162.213C611.434 162.88 611.587 163.524 611.71 164.106C611.834 164.686 611.931 165.2 611.996 165.595C612.597 167.949 611.606 170.48 611.126 172.704C610.755 174.183 610.476 175.714 610.265 177.277C609.42 183.521 609.686 190.251 609.751 196.369C609.784 199.589 611.675 196.702 612.289 195.682C613.786 193.187 614.485 189.671 615.346 186.901C617.11 181.22 618.51 175.429 619.537 169.57C622.246 154.082 621.031 138.735 621.411 123.143Z" fill="#FACFA6"/>
<path d="M615.123 152.56C612.745 150.261 609.244 151.085 607.139 153.253C605.454 154.99 604.25 157.319 603.412 159.542C602.508 161.943 602.235 164.531 602.783 167.047C602.891 167.536 603.052 167.966 603.258 168.344C603.392 168.804 603.591 169.251 603.876 169.684C604.895 171.218 606.789 171.901 608.588 171.619C611.289 171.195 613.034 168.735 614.154 166.492C615.18 164.429 615.833 162.196 616.283 159.953C616.791 157.43 617.191 154.557 615.123 152.556V152.56Z" fill="#F3965E"/>
<path d="M652.105 246.538C642.898 241.48 633.232 237.253 623.256 233.937C620.351 229.661 612.419 220.356 611.966 220.862C603.029 230.839 593.405 240.186 583.175 248.848C575.073 240.75 561.599 219.837 560.732 220.577C556.846 223.912 547.952 230.209 547.9 230.498C537.203 234.407 515.784 244.235 515.784 244.235C515.784 244.235 517.505 290.23 518.382 310.114C519.305 331.031 520.661 351.928 522.451 372.789C523.461 384.556 524.609 396.31 525.89 408.052C525.936 408.457 526.03 408.863 526.174 409.246C525.672 409.531 525.235 409.927 524.932 410.42C523.902 412.081 524.505 414.167 526.079 415.218C539.423 424.15 555.985 426.944 571.81 426.201C580.612 425.785 589.346 424.4 597.973 422.658C605.647 421.107 613.364 419.469 620.84 417.123C629.189 414.501 637.164 410.865 643.945 405.281C645.138 404.298 645.285 402.491 644.62 401.157C646.093 382.207 647.564 363.254 649.037 344.303C650.54 324.935 652.046 305.563 653.553 286.191C654.403 275.231 655.254 264.275 656.105 253.316C656.219 251.852 653.315 247.2 652.108 246.538H652.105Z" fill="#FEDE8D"/>
<path d="M529.88 360.56C530.066 350.468 529.976 340.373 529.612 330.284C528.684 304.675 525.209 279.515 521.81 254.157C521.491 251.767 521.705 245.64 519.697 244.026C517.456 242.222 514.178 244.857 512.794 246.592C502.336 259.687 496.421 276.372 493.003 292.718C489.988 307.14 486.813 367.349 494.86 380.528C499.269 387.748 505.2 393.773 510.31 400.448C515.937 407.798 522.952 405.157 528.032 412.914C528.032 412.914 529.17 379.994 529.401 375.439C529.65 370.486 529.788 365.523 529.88 360.563V360.56Z" fill="#FEDE8D"/>
<path d="M581.469 249.749C580.719 250.637 579.747 251.286 578.926 252.104C578.095 252.929 577.329 253.817 576.495 254.639C575.127 255.977 573.679 257.262 572.556 258.826C571.654 257.991 570.953 256.948 570.203 255.977C569.366 254.897 568.416 253.923 567.515 252.903C565.439 250.557 563.437 248.149 561.493 245.687C557.598 240.758 553.954 235.623 550.449 230.395C549.863 229.524 548.443 230.319 549.036 231.2C552.618 236.547 556.346 241.795 560.324 246.837C562.313 249.355 564.364 251.819 566.491 254.214C567.473 255.321 568.477 256.388 569.372 257.57C570.193 258.654 571.004 259.691 572.057 260.545C572.221 260.681 572.388 260.724 572.543 260.711C572.861 260.827 573.238 260.764 573.473 260.386C574.629 258.518 576.335 257.12 577.864 255.589C578.607 254.844 579.296 254.046 580.039 253.303C580.86 252.485 581.832 251.839 582.582 250.948C583.258 250.146 582.148 248.937 581.469 249.745V249.749Z" fill="#A24E22"/>
<path d="M620.969 234.047C619.782 234.591 618.903 235.554 618.06 236.524C617.16 237.562 616.188 238.516 615.23 239.498C612.856 241.932 610.611 244.488 608.231 246.912C605.824 249.359 603.265 251.661 600.756 254.003C599.496 255.177 598.21 256.321 596.984 257.528C596.336 258.165 595.658 258.748 595.159 259.477C594.666 259.019 594.097 258.643 593.565 258.191C592.504 257.294 591.469 256.341 590.464 255.381C588.58 253.577 587.092 251.397 585.059 249.745C584.239 249.079 583.032 250.217 583.858 250.886C585.786 252.453 587.208 254.497 588.966 256.232C589.902 257.156 590.9 258.01 591.876 258.89C592.679 259.613 593.879 260.242 594.448 261.156C594.792 261.703 595.463 261.624 595.81 261.271C596.012 261.196 596.19 261.041 596.289 260.79C596.755 259.649 598.21 258.61 599.089 257.782C600.29 256.648 601.523 255.553 602.726 254.425C605.064 252.242 607.444 250.088 609.679 247.796C611.848 245.57 613.911 243.238 616.073 241.002C617.048 239.993 618.07 239.037 618.985 237.975C619.805 237.028 620.609 236.026 621.772 235.491C622.741 235.046 621.934 233.598 620.969 234.043V234.047Z" fill="#A24E22"/>
<path d="M571.663 408.609C572.059 403.249 572.355 397.893 572.529 392.523C572.887 381.311 572.912 370.088 573.14 358.876C573.361 347.705 573.828 336.548 574.894 325.429C575.95 314.391 577.496 303.412 579.259 292.475C580.256 286.288 580.904 280.079 581.528 273.844C581.82 270.909 582.148 267.991 582.341 265.047C582.534 262.115 582.724 259.155 583.544 256.328C583.833 255.329 582.363 254.771 582.073 255.776C580.677 260.595 580.814 265.779 580.278 270.747C579.674 276.36 579.234 281.995 578.446 287.589C576.898 298.578 575.016 309.492 573.822 320.536C571.408 342.903 571.66 365.354 571.102 387.815C570.949 393.976 570.719 400.133 570.27 406.281C569.825 412.403 569.301 418.531 569.404 424.679C569.423 425.717 570.981 425.853 570.962 424.806C570.872 419.397 571.267 414.002 571.666 408.616L571.663 408.609Z" fill="#A24E22"/>
<path d="M520.459 325.981C518.223 336.504 516.326 347.102 513.452 357.485C513.17 358.498 514.785 358.966 515.067 357.953C517.941 347.569 519.834 336.971 522.07 326.448C522.289 325.429 520.674 324.955 520.459 325.978V325.981Z" fill="#A24E22"/>
<path d="M606.301 803.448C606 754.17 606.828 704.918 607.967 655.64C608.641 626.417 609.067 597.188 609.617 567.962C609.895 553.092 610.176 538.223 610.455 523.353C610.693 510.65 608.278 496.079 612.441 483.859C614.323 478.342 607.064 479.349 604.913 482.466C601.892 486.844 604.206 500.141 604.118 505.435C603.833 522.827 603.548 540.22 603.267 557.613C602.766 588.358 602.661 619.153 601.453 649.85C600.972 662.079 600.409 674.302 599.928 686.531C599.447 698.764 599.051 711 598.9 723.243C598.501 755.875 600.55 788.254 597.836 820.87C596.887 832.323 606.625 835.149 606.465 822.098C606.389 815.882 606.334 809.67 606.298 803.455L606.301 803.448Z" fill="#873312"/>
<path d="M642.95 467.334C642.566 466.85 642.1 466.41 641.551 466.038C635.245 461.717 618.715 465.923 612.05 467.86C597.902 471.972 599.576 490.408 601.17 502.059C600.84 502.553 600.633 503.117 600.62 503.685C600.575 505.68 601.92 507.072 603.853 507.361C606.713 507.788 609.978 507.428 611.81 504.923C615.741 499.537 612.444 489.186 612.78 482.863C612.929 480.059 638.48 478.289 641.971 475.649C644.764 473.531 644.945 469.833 642.957 467.334H642.95Z" fill="#873312"/>
<path d="M675.14 412.814C672.343 411.872 669.336 411.297 666.426 410.842C662.786 410.273 659.174 409.536 655.527 409.022C651.257 408.424 646.96 408.048 642.696 407.411C642.017 407.307 641.644 407.742 641.579 408.265C635.827 414.299 631.605 421.538 627.185 428.55C622.356 436.215 616.845 443.442 612.23 451.243C610.668 453.888 608.511 456.357 607.005 459.096C604.143 460.757 601.971 463.395 600.006 466.004C598.041 468.61 596.382 471.976 597.194 475.313C597.356 475.979 597.983 476.236 598.606 476.161C599.041 476.106 599.408 475.931 599.723 475.684L599.707 475.807C599.516 477.786 599.801 481.76 601.906 482.751C604.179 483.82 605.384 480.658 605.683 479.004C605.923 477.669 605.9 476.184 606.628 474.995C606.758 474.784 606.901 474.585 607.044 474.39C606.641 475.882 606.267 477.364 606.219 478.956C606.167 480.733 606.199 483.209 607.937 484.239C609.888 485.399 611.084 483.284 611.626 481.727C611.733 481.412 612.431 476.47 612.522 476.142C612.639 477.221 611.779 480.882 612.74 483.826C613.058 484.804 613.993 485.633 615.12 485.402C616.007 485.22 616.608 484.392 617.027 483.654C617.55 482.728 617.93 481.718 618.3 480.723C618.725 479.58 618.943 479.066 619.589 477.948C620.437 476.49 621.486 475.083 622.989 474.251C626.126 472.512 630.011 472.509 632.631 469.907C635.752 466.81 638.743 463.574 641.705 460.328C647.116 454.398 652.322 448.286 657.508 442.165C660.863 438.204 664.091 433.866 667.615 429.944C669.326 428.04 671.223 426.24 673.191 424.599C675.104 423.007 677.465 421.821 678.907 419.732C679.485 418.897 679.891 417.873 679.719 416.876C679.361 414.799 676.948 413.425 675.14 412.814Z" fill="#F3965E"/>
<path d="M555.854 143.331C550.689 143.056 544.183 144.665 543.428 148.018C542.993 149.959 545.379 150.709 546.855 150.938C549.884 151.405 552.98 151.173 555.965 150.53C557.953 150.102 561.673 149.515 562.232 147.126C562.785 144.781 559.688 143.537 555.854 143.331Z" fill="#FACFA6"/>
<path d="M591.385 147.044C591.219 146.385 590.786 145.719 590.009 145.102C587.444 143.071 582.79 143.196 579.753 143.422C577.697 143.576 574.243 144.275 573.463 146.644C572.238 150.368 580.02 150.742 581.972 150.916C583.751 151.074 585.597 151.241 587.38 151.166C589.803 151.064 591.897 149.095 591.388 147.044H591.385Z" fill="#FACFA6"/>
<path d="M682.641 289.819C678.409 278.875 672.831 268.48 665.652 259.048C662.272 254.409 651.899 246.573 651.899 246.573C651.899 246.573 637.235 282.591 632.326 301.352C630.95 306.609 629.693 311.899 628.546 317.208C628.389 317.943 628.88 318.48 629.447 318.646C633.351 339.249 636.96 359.909 640.259 380.62C641.149 386.199 642.014 391.782 642.859 397.364C639.417 402.865 635.657 408.162 631.589 413.224C631.412 413.449 631.34 413.673 631.347 413.881C631.094 414.457 631.235 415.269 631.995 415.582C645.515 421.148 659.412 425.775 673.581 429.426C674.19 429.582 674.665 429.286 674.901 428.857C675.17 428.954 675.484 428.932 675.808 428.717C679.981 425.947 683.224 422.088 685.189 417.539C695.683 405.509 693.521 376.9 693.878 362.1C694.461 338.098 691.504 312.748 682.637 289.819H682.641Z" fill="#FEDE8D"/>
<path d="M565.976 156.935C566.24 158.94 566.567 161.431 565.088 163.067C564.03 164.234 562.5 164.727 561.84 166.271C560.574 169.239 563.123 172.019 566.077 171.648C567.118 171.519 566.714 169.905 565.679 170.038C563.962 170.253 562.575 168.441 563.384 166.814C563.959 165.661 565.365 165.171 566.221 164.27C568.195 162.19 567.915 159.158 567.565 156.531C567.425 155.474 565.839 155.885 565.979 156.935H565.976Z" fill="#BC4120"/>
<path d="M570.102 182.717C572.306 182.608 574.216 180.892 574.871 178.347C575.161 177.226 573.709 176.703 573.419 177.821C572.973 179.56 571.663 180.819 570.138 180.895C569.169 180.942 569.127 182.765 570.102 182.717Z" fill="#BC4120"/>
<path d="M607.366 161.668C607.961 159.27 609.449 154.723 613.254 156.164C614.293 156.558 614.79 155.041 613.758 154.651C611.913 153.952 609.848 154.475 608.437 155.699C606.761 157.153 606.173 159.236 605.679 161.212C605.434 162.2 607.114 162.66 607.363 161.668H607.366Z" fill="#BC4120"/>
<path d="M584.331 159.444C583.882 159.678 583.251 159.756 582.427 159.841C581.436 159.941 580.911 159.547 580.621 158.674C580.159 157.285 580.449 154.57 582.322 154.37C583.503 154.246 584.503 154.439 584.898 155.612C585.051 156.068 585.114 156.558 585.143 157.045L585.153 157.272C585.2 158.533 584.93 159.129 584.331 159.444Z" fill="#873312"/>
<path d="M555.871 157.638C555.479 159.236 553.098 159.301 551.764 158.764C550.046 158.074 550.279 155.795 551.087 154.417C551.824 153.161 552.784 153.584 554.082 153.766C555.384 153.949 555.751 154.749 555.927 155.853C556.026 156.465 556.005 157.094 555.874 157.634L555.871 157.638Z" fill="#873312"/>
<path d="M590.127 156.675C591.418 156.309 592.71 155.944 594.001 155.579C595.057 155.279 594.65 153.279 593.591 153.579C592.299 153.945 591.008 154.31 589.717 154.675C588.661 154.975 589.068 156.974 590.127 156.671V156.675Z" fill="#BC4120"/>
<path d="M591.018 159.887C592.119 160.622 593.275 161.144 594.505 161.417C595.387 161.613 595.799 159.929 594.911 159.733C593.802 159.488 592.752 159.054 591.757 158.392C590.962 157.86 590.22 159.355 591.021 159.887H591.018Z" fill="#BC4120"/>
<path d="M543.762 155.199C544.003 155.391 544.243 155.591 544.487 155.783C544.649 155.915 544.932 155.94 545.123 155.89C545.318 155.836 545.529 155.68 545.624 155.491C545.858 155.035 545.726 154.562 545.354 154.263C545.113 154.071 544.873 153.871 544.632 153.679C544.471 153.548 544.184 153.523 543.996 153.572C543.802 153.626 543.591 153.782 543.492 153.971C543.258 154.427 543.393 154.9 543.762 155.199Z" fill="#BC4120"/>
<path d="M544.145 159.63L544.377 159.422L544.502 159.33L544.549 159.31L544.836 159.175H544.843L545.038 159.122C545.505 159.01 545.854 158.551 545.707 158.119C545.567 157.694 545.086 157.397 544.586 157.519C543.936 157.674 543.326 157.984 542.867 158.433C542.54 158.753 542.462 159.281 542.837 159.604C543.179 159.898 543.792 159.97 544.142 159.63H544.145Z" fill="#BC4120"/>
<path d="M556.661 172.884C557.191 172.025 557.891 171.346 558.748 170.861C559.633 170.359 558.876 168.917 557.991 169.422C556.907 170.038 556.001 170.93 555.331 172.021C554.783 172.913 556.116 173.772 556.661 172.884Z" fill="#BC4120"/>
<path d="M572.94 170.084C574.4 170.986 575.564 172.184 576.406 173.627C576.954 174.566 578.494 173.761 577.947 172.819C576.961 171.129 575.571 169.722 573.866 168.667C572.916 168.078 571.993 169.502 572.944 170.088L572.94 170.084Z" fill="#BC4120"/>
<path d="M644.032 396.702C644.001 392.433 642.929 388.284 642.564 384.051C642.189 379.704 641.733 375.386 641.071 371.075C640.409 366.764 639.6 362.485 638.775 358.206C637.941 353.863 637.519 349.448 636.642 345.114C635.689 340.401 634.018 335.824 634.143 330.942C634.171 329.895 632.603 329.856 632.578 330.903C632.468 335.059 633.593 338.997 634.558 342.988C635.598 347.296 636.101 351.694 636.81 356.067C638.228 364.826 640.137 373.441 640.865 382.313C641.264 387.153 642.464 391.973 642.467 396.832L642.539 397.185C640.743 399.769 639.431 402.699 637.379 405.091C635.127 407.72 632.871 410.313 631.013 413.27C630.46 414.148 631.797 414.997 632.347 414.122C634.283 411.043 636.72 408.475 638.962 405.659C640.94 403.176 642.27 400.239 644.129 397.671C644.397 397.302 644.285 396.932 644.026 396.706L644.032 396.702Z" fill="#A24E22"/>
<path d="M680.754 408.975C670.026 407.123 660.579 401.329 650.065 398.751C649.035 398.498 648.557 400.058 649.588 400.311C660.101 402.889 669.548 408.683 680.276 410.535C681.313 410.713 681.797 409.156 680.754 408.975Z" fill="#A24E22"/>
<path d="M578.601 537.832C578.049 532.309 577.597 526.796 576.725 521.315C575.855 515.844 574.92 510.406 574.44 504.88C573.954 499.331 573.755 493.759 573.293 488.207C572.776 482.018 571.96 475.859 571.741 469.647C571.707 468.598 570.143 468.649 570.18 469.702C570.373 475.231 571.037 480.722 571.548 486.229C572.066 491.771 572.281 497.336 572.711 502.885C573.131 508.346 573.911 513.729 574.799 519.129C575.712 524.681 576.313 530.243 576.84 535.85C577.41 541.919 578.635 547.962 578.866 554.056C578.903 555.102 580.468 555.05 580.427 554.001C580.225 548.579 579.137 543.228 578.601 537.838V537.832Z" fill="#873312"/>
<path d="M548.489 129.824C543.629 132.397 536.138 132.089 533.946 125.767C533.588 124.736 532.029 125.141 532.393 126.189C534.968 133.628 543.371 134.462 549.265 131.342C550.192 130.851 549.415 129.333 548.489 129.824Z" fill="#C8813D"/>
<path d="M569.392 120.113C565.163 120.357 560.77 120.971 557.082 118.472C553.441 116.005 551.591 111.353 554.055 107.482C554.625 106.588 553.189 105.734 552.622 106.627C549.997 110.752 551.357 115.93 555.052 118.995C556.934 120.558 559.129 121.527 561.586 121.858C564.16 122.206 566.774 121.891 569.351 121.741C570.425 121.68 570.472 120.048 569.388 120.11L569.392 120.113Z" fill="#C8813D"/>
<path d="M561.526 205.47C557.587 205.547 554.148 204.069 552.32 200.34C550.643 196.914 550.47 192.83 550.545 189.068C550.568 187.986 548.93 187.945 548.907 189.028C548.825 193.243 549.08 197.846 551.123 201.611C553.273 205.571 557.199 207.237 561.487 207.153C562.537 207.133 562.58 205.45 561.526 205.47Z" fill="#C8813D"/>
<path d="M147.023 64.56C142.208 89.1404 150.155 113.046 170.453 128.044C188.57 141.424 212.871 144.798 233.752 135.403C253.334 126.597 266.871 107.614 274.209 88.1816C279.804 73.3659 281.958 56.4184 277.105 41.2599C259.843 -12.6893 175.498 -11.6502 146.665 32.2398C136.65 47.4786 134.79 66.1562 137.27 83.6555C138.114 89.6331 146.708 87.8334 145.869 81.9039C143.742 66.8954 145.415 51.4423 153.575 38.2282C160.454 27.0923 171.431 19.2935 183.477 14.5103C206.773 5.2652 236.552 8.01301 255.685 24.2267C281.242 45.8824 271.013 86.2158 252.142 109.248C238.375 126.051 217.473 135.259 196.037 129.918C170.661 123.598 152.982 102.001 154.318 75.7334C154.457 73.0499 154.831 70.361 155.35 67.7203C156.44 62.1658 148.204 58.5449 147.023 64.56Z" fill="white"/>
<path d="M248.135 31.2171C247.464 30.5153 246.599 30.1475 245.624 30.1475H245.382C243.533 30.1475 242.012 31.6092 241.92 33.4727V33.492C241.731 38.4678 240.732 42.2625 238.776 45.4376C237.274 47.8674 235.139 49.9826 233.039 52.0203C227.325 46.3476 219.106 43.124 210.244 43.124C201.382 43.124 193.143 46.3476 187.43 52.0203C185.324 49.9826 183.195 47.8674 181.693 45.4376C179.737 42.2625 178.737 38.4677 178.554 33.4969C178.486 31.6189 176.97 30.1475 175.086 30.1475H174.845C173.859 30.1475 173 30.5202 172.348 31.222C171.681 31.8996 171.348 32.7708 171.382 33.7534C171.904 46.9332 177.375 52.2526 182.668 57.3929L183.069 57.7801C181.268 61.0811 180.321 64.7258 180.321 68.385C180.321 73.351 182.026 78.1622 185.242 82.286C188.343 86.2598 192.684 89.4059 197.803 91.3904C199.286 91.9615 200.209 93.2974 200.209 94.8753V97.9489C200.209 98.883 200.387 99.7446 200.754 100.572L202.198 103.868C202.42 104.43 202.517 104.87 202.517 105.388V109.841C202.517 110.625 203.15 111.259 203.932 111.259H216.556C217.338 111.259 217.971 110.625 217.971 109.841V105.388C217.971 104.832 218.063 104.396 218.285 103.883L219.714 100.577C220.086 99.7397 220.265 98.883 220.265 97.9489V94.8753C220.265 93.2974 221.187 91.9615 222.675 91.3904C227.789 89.4108 232.131 86.2646 235.231 82.2908C238.452 78.1622 240.152 73.3558 240.152 68.3898C240.152 64.7306 239.206 61.0908 237.404 57.785L237.771 57.4316C240.432 54.8518 243.18 52.1849 245.276 48.5596C247.638 44.4647 248.85 39.7649 249.091 33.7679C249.149 32.8144 248.821 31.9335 248.14 31.222L248.135 31.2171Z" fill="#F28D75"/>
<path d="M248.135 31.2171C247.464 30.5153 246.599 30.1475 245.624 30.1475H245.382C245.121 30.1475 244.866 30.1765 244.619 30.2346C244.827 30.375 245.015 30.5395 245.194 30.7283C245.87 31.4495 246.203 32.3401 246.145 33.3081C245.904 39.3874 244.692 44.155 242.33 48.3079C240.239 51.9816 237.486 54.6872 234.825 57.3009C234.613 57.5139 234.56 57.8334 234.695 58.0947C236.347 61.3231 237.216 64.8613 237.216 68.4092C237.216 73.4478 235.511 78.3219 232.295 82.5038C229.194 86.5357 224.853 89.7254 219.738 91.7341C218.251 92.3149 217.328 93.6701 217.328 95.2674V98.3845C217.328 99.3332 217.15 100.204 216.778 101.051L215.348 104.401C215.141 104.885 215.035 105.403 215.035 105.925V110.441C215.035 110.741 214.943 111.022 214.788 111.255H216.556C217.338 111.255 217.971 110.62 217.971 109.836V105.383C217.971 104.827 218.063 104.391 218.285 103.878L219.714 100.572C220.086 99.7349 220.265 98.8782 220.265 97.944V94.8705C220.265 93.2926 221.187 91.9567 222.675 91.3856C227.789 89.4059 232.13 86.2598 235.231 82.286C238.452 78.1573 240.152 73.351 240.152 68.385C240.152 64.7258 239.206 61.086 237.404 57.7801L237.771 57.4268C240.432 54.847 243.18 52.18 245.276 48.5547C247.638 44.4599 248.855 39.7601 249.091 33.7631C249.149 32.8096 248.821 31.9287 248.14 31.2171H248.135Z" fill="#EE765E"/>
<path d="M175.844 33.2791C176.061 38.7388 177.211 42.911 179.466 46.396C180.814 48.4724 182.634 50.3698 184.518 52.1606C185.348 52.9496 186.657 52.8867 187.415 52.03L187.43 52.0154C187.029 51.6379 186.652 51.2652 186.285 50.8974C184.576 49.1985 182.919 47.4269 181.693 45.4376C179.737 42.2625 178.737 38.4677 178.553 33.4969C178.486 31.6189 176.969 30.1475 175.086 30.1475H174.96C174.651 30.1475 174.357 30.1765 174.072 30.2394C175.105 30.8977 175.796 32.0013 175.844 33.2791Z" fill="#EE765E"/>
<path d="M210.239 47.4657C196.132 47.4657 184.648 56.8508 184.648 68.3802C184.648 73.1042 186.522 77.562 190.062 81.2696C193.433 84.7981 198.185 87.3924 203.454 88.5734C205.178 88.951 206.38 90.4514 206.38 92.2181V111.255H214.093V92.2181C214.093 90.4466 215.286 88.9461 217.01 88.5734C222.269 87.3924 227.026 84.7981 230.397 81.2696C233.937 77.562 235.81 73.1042 235.81 68.3802C235.81 56.846 224.341 47.4657 210.244 47.4657H210.239Z" fill="#FFD934"/>
<path d="M235.767 69.5953C235.791 69.1936 235.81 68.787 235.81 68.3853C235.81 56.8511 224.341 47.4708 210.239 47.4708C196.137 47.4708 184.648 56.856 184.648 68.3853C184.648 68.7919 184.663 69.1984 184.692 69.6002H184.711C190.429 69.6002 191.733 66.5025 197.475 66.5025C203.217 66.5025 204.497 69.5953 210.239 69.5953C215.981 69.5953 217.261 66.5025 223.003 66.5025C228.745 66.5025 230.025 69.5953 235.767 69.5953Z" fill="#D65938"/>
<path d="M231.889 69.0291C231.686 73.453 229.837 77.6204 226.495 81.115C223.124 84.6435 218.372 87.2379 213.108 88.4189C211.389 88.7964 210.191 90.2968 210.191 92.0684V111.105H206.38V111.265H214.093V92.2281C214.093 90.4566 215.286 88.9561 217.01 88.5834C222.269 87.4024 227.026 84.8081 230.397 81.2796C233.633 77.8914 235.473 73.8789 235.767 69.6002C234.203 69.6002 232.971 69.3679 231.889 69.0339V69.0291Z" fill="#FDC502"/>
<path d="M235.767 69.5953C235.791 69.1936 235.811 68.787 235.811 68.3853C235.811 56.8511 224.341 47.4708 210.239 47.4708C210.012 47.4708 209.78 47.4708 209.558 47.4805C222.144 48.7777 231.909 57.5917 231.909 68.2352C231.909 68.5063 231.904 68.7725 231.889 69.0387C232.971 69.3727 234.203 69.605 235.767 69.605V69.5953Z" fill="#D65938"/>
<path d="M198.992 75.7083C199.682 75.7083 200.257 75.1468 200.257 74.4402C200.257 73.7335 199.682 73.1914 198.992 73.1914C198.301 73.1914 197.726 73.7529 197.726 74.4402C197.726 75.1275 198.301 75.7083 198.992 75.7083Z" fill="#FDC502"/>
<path d="M210.239 75.7083C210.93 75.7083 211.485 75.1468 211.485 74.4402C211.485 73.7335 210.925 73.1914 210.239 73.1914C209.554 73.1914 208.974 73.7529 208.974 74.4402C208.974 75.1275 209.529 75.7083 210.239 75.7083Z" fill="#FDC502"/>
<path d="M221.467 75.7083C222.177 75.7083 222.733 75.1468 222.733 74.4402C222.733 73.7335 222.173 73.1914 221.467 73.1914C220.762 73.1914 220.221 73.7529 220.221 74.4402C220.221 75.1275 220.782 75.7083 221.467 75.7083Z" fill="#FDC502"/>
<path d="M204.748 79.8467C205.458 79.8467 206.013 80.4227 206.013 81.1148C206.013 81.807 205.453 82.3829 204.748 82.3829C204.043 82.3829 203.502 81.807 203.502 81.1148C203.502 80.4227 204.062 79.8467 204.748 79.8467ZM215.716 79.8467C216.406 79.8467 216.981 80.4227 216.981 81.1148C216.981 81.807 216.406 82.3829 215.716 82.3829C215.025 82.3829 214.45 81.807 214.45 81.1148C214.45 80.4227 215.011 79.8467 215.716 79.8467Z" fill="#FDC502"/>
<path d="M283.843 242.484C292.985 237.253 301.88 231.394 310.986 226.073L311.036 226.092L311.027 226.055L310.987 226.08C302.778 223.14 294.854 219.678 286.8 216.296C282.877 214.648 286.921 208.698 290.645 210.26C300.471 214.392 310.054 218.658 320.328 221.807C322.714 222.535 323.795 226.391 320.739 228.035C309.226 234.232 298.247 241.762 286.861 248.274C283.043 250.459 279.704 244.86 283.838 242.493L283.843 242.484ZM287.741 232.026C268.564 231.334 250.355 227.719 235.053 216.957C219.682 206.146 206.844 189.92 201.088 170.588C199.837 166.386 206.626 164.611 207.787 168.517C213.155 186.54 225.494 201.493 239.778 211.545C253.74 221.368 270.668 224.567 288.138 225.192C292.331 225.345 292.141 232.185 287.738 232.031L287.741 232.026Z" fill="white"/>
</svg>
