<svg width="616" height="471" viewBox="0 0 616 471" fill="none" xmlns="http://www.w3.org/2000/svg">
<path d="M109.202 235.587C109.202 235.587 138.964 224.804 170.989 225.366C204.51 225.956 272.338 232.762 347.409 225.366C449.968 221.395 541.835 239.746 596.893 335.844C651.956 431.935 560.882 469.473 468.36 459.119C401.289 451.612 350.982 425.046 296.007 416.783C244.993 409.113 169.771 410.864 122.393 403.279C34.9877 387.615 15.1178 351.335 2.41814 310.152C-9.68631 270.906 109.202 235.587 109.202 235.587Z" fill="#C3D87A"/>
<path d="M268.276 238.763C268.102 233.998 264.182 230.186 259.372 230.186C258.394 230.186 257.46 230.345 256.579 230.635C257.03 229.587 257.279 228.432 257.279 227.219C257.279 223.67 255.148 220.619 252.094 219.273C254.604 216.998 256.177 213.715 256.177 210.067C256.177 203.206 250.609 197.644 243.741 197.644C237.978 197.644 233.133 201.561 231.723 206.877C230.42 205.781 228.741 205.12 226.907 205.12C222.984 205.12 219.769 208.136 219.45 211.974C218.284 210.99 216.778 210.396 215.132 210.396C211.423 210.396 208.42 213.399 208.42 217.104C208.42 217.715 208.508 218.305 208.662 218.87C207.661 218.373 206.534 218.091 205.338 218.091C201.204 218.091 197.853 221.438 197.853 225.569C197.853 226.935 198.222 228.213 198.864 229.318C193.894 229.538 189.932 233.631 189.932 238.652V238.763H268.272H268.276Z" fill="#7FAB53"/>
<path d="M228.618 238.763C229.071 237.38 229.32 235.907 229.32 234.374C229.32 226.622 223.039 220.335 215.293 220.335C214.054 220.335 212.853 220.497 211.709 220.799C211.069 215.35 206.444 211.122 200.827 211.122C196.655 211.122 193.026 213.457 191.176 216.893L191.185 216.715C191.185 212.897 188.094 209.803 184.281 209.803C182.066 209.803 180.1 210.852 178.836 212.476C178.375 209.231 175.596 206.733 172.227 206.733C168.534 206.733 165.542 209.728 165.542 213.423C165.542 213.63 165.554 213.832 165.572 214.035C163.793 212.885 161.677 212.217 159.405 212.217C153.109 212.217 148.008 217.325 148.008 223.625C148.008 225.7 148.564 227.643 149.532 229.32C145.823 230.736 142.146 229.492 142.146 233.703C142.146 233.703 140.434 232.947 140.617 236.25C140.805 239.623 144.184 238.763 144.184 238.763H228.62H228.618Z" fill="#90C25E"/>
<path d="M329.469 238.763C329.922 237.38 330.172 235.907 330.172 234.374C330.172 226.622 323.891 220.335 316.144 220.335C314.906 220.335 313.703 220.497 312.56 220.799C311.922 215.35 307.295 211.122 301.679 211.122C297.504 211.122 293.877 213.457 292.025 216.893L292.034 216.715C292.034 212.897 288.945 209.803 285.131 209.803C282.917 209.803 280.95 210.852 279.688 212.476C279.226 209.231 276.447 206.733 273.077 206.733C269.386 206.733 266.393 209.728 266.393 213.423C266.393 213.63 266.405 213.832 266.425 214.035C264.646 212.885 262.531 212.217 260.258 212.217C253.963 212.217 248.86 217.325 248.86 223.625C248.86 225.7 249.416 227.643 250.382 229.32C246.673 230.736 244.037 234.331 244.037 238.542L244.042 238.763H329.471H329.469Z" fill="#90C25E"/>
<path d="M216.335 143.102C216.335 161.75 201.218 176.867 182.573 176.867C163.927 176.867 148.812 161.749 148.812 143.102C148.812 124.455 163.924 109.344 182.573 109.344C201.221 109.344 216.335 124.459 216.335 143.102Z" fill="#90C25E"/>
<path d="M182.191 126.77V238.342C182.191 238.576 182.379 238.763 182.612 238.763C182.845 238.763 183.031 238.576 183.031 238.342V126.77C183.031 126.536 182.843 126.348 182.612 126.348C182.381 126.348 182.191 126.536 182.191 126.77ZM182.839 165.409L201.327 153.308C201.52 153.181 201.575 152.918 201.449 152.721C201.323 152.527 201.062 152.471 200.868 152.598L182.381 164.699C182.187 164.826 182.132 165.087 182.258 165.283C182.385 165.48 182.646 165.535 182.839 165.407V165.409ZM182.839 138.238L201.327 126.137C201.52 126.01 201.575 125.749 201.449 125.553C201.323 125.356 201.062 125.301 200.868 125.429L182.381 137.53C182.187 137.657 182.132 137.918 182.258 138.115C182.385 138.311 182.646 138.367 182.839 138.238ZM182.839 151.515L210.085 133.681C210.279 133.554 210.334 133.291 210.208 133.095C210.082 132.9 209.822 132.844 209.627 132.971L182.381 150.806C182.187 150.932 182.132 151.195 182.258 151.392C182.385 151.587 182.646 151.642 182.839 151.515ZM188.062 161.856L198.368 163.988C198.596 164.034 198.818 163.888 198.864 163.659C198.91 163.43 198.764 163.207 198.537 163.159L188.231 161.026C188.003 160.98 187.781 161.128 187.735 161.355C187.689 161.584 187.834 161.807 188.062 161.854V161.856ZM196.209 156.197L198.125 150.084C198.194 149.86 198.071 149.624 197.851 149.554C197.631 149.483 197.394 149.608 197.323 149.83L195.408 155.944C195.338 156.165 195.461 156.403 195.681 156.473C195.902 156.542 196.138 156.419 196.207 156.197H196.209ZM195.242 143.333L207.285 141.203C207.514 141.162 207.667 140.944 207.626 140.713C207.587 140.485 207.368 140.331 207.139 140.37L195.097 142.5C194.868 142.542 194.715 142.761 194.756 142.99C194.796 143.219 195.013 143.373 195.242 143.333ZM188.746 147.433L191.118 141.784C191.209 141.569 191.108 141.321 190.894 141.23C190.681 141.139 190.434 141.241 190.343 141.455L187.971 147.106C187.881 147.321 187.98 147.569 188.195 147.658C188.408 147.749 188.655 147.649 188.746 147.433ZM191.626 132.408L201.753 132.038C201.986 132.029 202.167 131.833 202.158 131.6C202.149 131.366 201.956 131.184 201.723 131.193L191.596 131.561C191.363 131.57 191.182 131.767 191.191 131.999C191.2 132.233 191.394 132.415 191.626 132.406V132.408ZM188.556 134.206L189.56 129.667C189.61 129.44 189.467 129.213 189.24 129.163C189.013 129.111 188.789 129.256 188.739 129.484L187.735 134.022C187.685 134.249 187.827 134.476 188.055 134.526C188.282 134.578 188.506 134.433 188.556 134.206ZM182.765 164.699L164.278 152.598C164.084 152.471 163.823 152.527 163.697 152.721C163.57 152.918 163.626 153.179 163.819 153.308L182.306 165.409C182.5 165.535 182.761 165.48 182.887 165.285C183.014 165.089 182.959 164.828 182.765 164.701V164.699ZM182.765 137.529L164.278 125.428C164.084 125.301 163.823 125.356 163.697 125.551C163.57 125.747 163.626 126.008 163.819 126.135L182.306 138.236C182.5 138.363 182.761 138.308 182.887 138.113C183.014 137.916 182.959 137.655 182.765 137.529ZM182.765 150.806L155.521 132.971C155.327 132.844 155.066 132.9 154.94 133.095C154.814 133.291 154.869 133.552 155.062 133.681L182.306 151.515C182.5 151.642 182.761 151.587 182.887 151.392C183.014 151.195 182.959 150.934 182.765 150.806ZM176.917 161.026L166.609 163.159C166.382 163.205 166.236 163.43 166.282 163.659C166.328 163.888 166.55 164.034 166.778 163.988L177.086 161.856C177.313 161.809 177.459 161.586 177.413 161.357C177.367 161.128 177.144 160.982 176.917 161.028V161.026ZM169.738 155.942L167.823 149.828C167.753 149.605 167.517 149.481 167.297 149.553C167.075 149.622 166.952 149.86 167.023 150.082L168.939 156.196C169.008 156.417 169.244 156.542 169.465 156.471C169.687 156.401 169.809 156.163 169.738 155.942ZM170.049 142.499L158.01 140.368C157.781 140.329 157.564 140.483 157.524 140.712C157.483 140.942 157.635 141.16 157.865 141.201L169.903 143.332C170.133 143.371 170.349 143.217 170.39 142.988C170.431 142.76 170.278 142.54 170.049 142.499ZM177.176 147.104L174.804 141.453C174.714 141.239 174.467 141.137 174.253 141.228C174.04 141.319 173.939 141.566 174.029 141.782L176.402 147.431C176.492 147.648 176.739 147.748 176.952 147.657C177.166 147.567 177.267 147.319 177.176 147.104ZM173.55 131.563L163.425 131.195C163.192 131.186 162.998 131.368 162.989 131.602C162.98 131.835 163.162 132.031 163.395 132.04L173.519 132.41C173.752 132.419 173.946 132.237 173.955 132.003C173.964 131.77 173.782 131.574 173.55 131.565V131.563ZM177.413 134.024L176.411 129.486C176.361 129.259 176.135 129.114 175.909 129.165C175.684 129.216 175.54 129.442 175.59 129.669L176.592 134.208C176.642 134.435 176.867 134.58 177.093 134.528C177.319 134.476 177.462 134.251 177.413 134.024Z" fill="#873312"/>
<path d="M263.081 167.966C263.081 178.859 254.266 187.688 243.388 187.688C232.51 187.688 223.693 178.859 223.693 167.966V129.063C223.693 118.173 232.51 109.344 243.388 109.344C254.266 109.344 263.081 118.173 263.081 129.063V167.966Z" fill="#C6D76B"/>
<path d="M243.023 128.811V238.342C243.023 238.576 243.213 238.764 243.449 238.764C243.684 238.764 243.873 238.576 243.873 238.342V128.811C243.873 128.577 243.684 128.389 243.449 128.389C243.213 128.389 243.023 128.577 243.023 128.811ZM244.179 141.807L253.172 134.837C253.357 134.695 253.389 134.428 253.246 134.245C253.102 134.061 252.834 134.028 252.649 134.171L243.656 141.141C243.47 141.284 243.438 141.55 243.582 141.734C243.726 141.917 243.994 141.95 244.179 141.807ZM243.985 157.365L260.736 145.751C260.929 145.619 260.975 145.355 260.842 145.164C260.709 144.973 260.443 144.926 260.251 145.058L243.497 156.672C243.305 156.804 243.258 157.069 243.391 157.26C243.526 157.451 243.79 157.497 243.985 157.365ZM243.974 175.416L256.848 167.018C257.044 166.891 257.1 166.629 256.97 166.434C256.843 166.238 256.578 166.184 256.382 166.313L243.508 174.711C243.312 174.839 243.256 175.1 243.386 175.296C243.514 175.491 243.778 175.546 243.974 175.418V175.416ZM248.939 172.079L255.286 173.509C255.514 173.561 255.743 173.418 255.795 173.191C255.847 172.964 255.703 172.738 255.475 172.686L249.127 171.256C248.899 171.204 248.671 171.347 248.619 171.573C248.567 171.8 248.71 172.027 248.939 172.079ZM251.524 152.035L254.696 146.14C254.808 145.935 254.729 145.678 254.522 145.569C254.315 145.458 254.058 145.537 253.947 145.742L250.774 151.637C250.663 151.842 250.742 152.097 250.948 152.208C251.157 152.319 251.414 152.24 251.524 152.035ZM248.775 138.135L255.3 139.385C255.53 139.43 255.755 139.28 255.798 139.051C255.843 138.823 255.692 138.601 255.462 138.557L248.937 137.309C248.707 137.264 248.484 137.414 248.439 137.643C248.394 137.871 248.545 138.093 248.775 138.137V138.135ZM243.122 141.139L234.128 134.17C233.943 134.027 233.675 134.059 233.532 134.243C233.388 134.427 233.42 134.693 233.605 134.836L242.599 141.805C242.784 141.948 243.05 141.916 243.195 141.732C243.339 141.548 243.307 141.282 243.122 141.139ZM243.28 156.67L226.526 145.057C226.334 144.923 226.068 144.971 225.935 145.162C225.8 145.353 225.847 145.617 226.039 145.749L242.793 157.363C242.985 157.497 243.251 157.449 243.386 157.258C243.521 157.067 243.472 156.803 243.28 156.67ZM243.269 174.709L230.395 166.311C230.199 166.183 229.935 166.238 229.807 166.433C229.678 166.627 229.733 166.89 229.929 167.016L242.802 175.414C242.999 175.543 243.262 175.488 243.391 175.293C243.521 175.096 243.465 174.836 243.269 174.707V174.709ZM237.652 171.254L231.303 172.684C231.074 172.736 230.93 172.963 230.983 173.189C231.035 173.416 231.263 173.559 231.491 173.507L237.84 172.077C238.069 172.025 238.212 171.798 238.16 171.572C238.108 171.345 237.88 171.202 237.652 171.254ZM236.003 151.637L232.83 145.742C232.719 145.537 232.462 145.458 232.255 145.569C232.049 145.68 231.969 145.935 232.081 146.14L235.254 152.035C235.365 152.24 235.622 152.319 235.829 152.208C236.036 152.097 236.113 151.842 236.003 151.637ZM237.842 137.307L231.317 138.555C231.087 138.6 230.936 138.821 230.979 139.05C231.024 139.278 231.247 139.428 231.477 139.384L238.002 138.134C238.232 138.091 238.383 137.868 238.338 137.639C238.295 137.41 238.07 137.26 237.84 137.305L237.842 137.307Z" fill="#873312"/>
<path d="M328.896 327.925C328.887 328.009 328.892 328.096 328.913 328.178C329.235 332.562 329.558 336.947 329.882 341.332L332.956 383.086L333.462 389.95C333.474 390.125 333.543 390.262 333.642 390.361C334.309 390.569 353.186 396.548 362.064 398.834C362.543 398.958 363.346 398.983 363.48 398.555C363.612 398.128 363.098 397.444 362.736 397.177C356.518 392.617 350.568 387.694 344.918 382.441L345.715 370.752C346.664 356.892 347.615 343.033 348.565 329.173C348.941 328.963 349.1 328.343 348.616 328.05C347.253 327.232 345.72 326.848 344.163 326.613C342.543 326.368 340.908 326.226 339.269 326.201C336.142 326.151 333.013 326.517 329.976 327.26C329.619 326.876 328.828 327.008 328.876 327.659L328.897 327.927" fill="#F3965E"/>
<path d="M303.336 325.604C303.333 330.112 303.349 334.619 303.383 339.125C303.448 348.074 303.581 357.019 303.785 365.965C303.887 370.438 304.004 374.91 304.139 379.382C304.177 380.646 304.168 381.927 304.155 383.214C304.126 385.967 304.087 388.745 304.485 391.417C304.54 391.787 305.21 391.926 305.271 391.944C309.448 393.201 313.638 394.418 317.838 395.598C319.917 396.18 322.001 396.755 324.085 397.321C326.126 397.874 332.173 399.416 334.311 399.345C334.811 399.329 335.011 398.856 334.906 398.49C334.906 398.34 334.863 398.176 334.717 398.07C328.161 393.243 323.144 389.859 316.886 383.448L316.812 383.372C316.908 383.205 317.64 376.916 318.27 372.625C320.471 357.667 322.984 342.756 325.796 327.9C326.003 327.577 325.942 327.056 325.462 326.904C318.684 324.751 311.487 324.008 304.409 324.738C304.202 324.758 304.049 324.856 303.947 324.988C303.637 325.004 303.34 325.21 303.34 325.604" fill="#F3965E"/>
<path d="M393.792 202.818C393.939 200.155 392.036 197.273 390.754 195.206C385.175 186.209 380.494 176.812 376.051 167.229C375.896 166.899 375.729 166.578 375.548 166.272C374.638 164.74 373.349 163.564 371.395 163.163C368.043 162.474 363.416 164.276 361.807 167.359C358.306 174.074 365.867 184.013 369.372 189.389C372.103 193.578 376.209 197.474 379.595 201.164C382.074 203.868 393.33 211.237 393.79 202.817L393.792 202.818Z" fill="#F3965E"/>
<path d="M346.165 91.911C345.889 91.5507 345.469 91.2693 344.852 91.1026C339.628 89.6867 334.304 88.1937 328.928 87.5072C324.763 86.9749 320.54 87.3925 316.438 88.199C312.621 88.9482 308.379 89.7476 304.802 91.3106C303.912 91.6977 304.133 91.8608 304.683 92.6441C305.847 94.2984 306.255 96.304 306.97 98.1609C307.776 100.245 308.879 102.246 310.004 104.171C312.282 108.071 314.946 111.725 317.462 115.47C318.531 117.059 327.845 131.285 329.674 129.539C333.603 127.998 335.617 123.092 337.377 119.608C339.748 114.912 342.064 110.03 343.797 105.004C344.683 102.436 345.424 99.817 345.951 97.1518C346.285 95.467 347.146 93.1907 346.165 91.911Z" fill="#F3965E"/>
<path d="M380.38 170.88C380.38 170.88 379.278 146.71 377.217 134.772C375.731 126.17 373.695 117.412 370.093 109.442C368.302 105.48 366.135 101.335 363.117 98.1976C362.05 97.0896 360.689 96.2879 359.39 95.4934C359.39 95.4934 356.356 124.176 355.624 136.88C355.039 147.005 354.101 157.544 355.855 167.594C356.102 169.006 359.815 173.405 359.815 173.405L380.381 170.882L380.38 170.88Z" fill="#D65938"/>
<path d="M359.016 171.446C359.006 168.611 359.027 165.778 359.14 162.941C359.899 143.861 361.172 124.771 361.845 105.684C361.863 105.168 361.881 104.653 361.899 104.136C361.967 103.668 362.022 103.196 362.061 102.728C362.101 102.259 362.126 101.795 362.129 101.337C362.958 95.4723 356.557 94.062 352.104 92.9788C351.827 92.9019 351.552 92.8251 351.279 92.75C347.182 91.6203 343.587 90.7319 343.587 90.7319C343.587 90.7319 330.919 118.189 329.269 121.443C329.213 121.552 329.16 121.661 329.104 121.77C323.138 114.986 316.945 108.392 311.5 101.173C309.595 98.6469 307.791 96.0426 306.15 93.3381L306.08 93.0986C305.744 92.4122 305.021 91.0698 305.021 91.0698C305.021 91.0698 284.529 96.1534 284.322 103.075C283.883 117.664 288.235 129.915 290.235 144.31C291.153 150.908 292.331 157.466 293.653 163.994C293.915 165.288 294.035 168.89 294.042 174.27L359.018 171.446H359.016Z" fill="#D65938"/>
<path d="M294.26 174.058C294.316 217.161 282.077 312.916 287.334 355.872C287.696 358.832 369.993 354.628 369.993 354.628C369.993 354.628 367.609 273.37 365.078 243.171C364.235 233.112 362.798 223.116 361.516 213.107C360.24 203.132 359.116 193.118 358.885 183.055C358.869 182.329 358.858 181.602 358.851 180.876C359.04 180.785 359.182 180.602 359.181 180.326C359.179 177.295 359.134 174.267 359.124 171.24L294.259 174.058" fill="#FEDE8D"/>
<path d="M297.486 166.643C295.052 164.758 292.218 163.554 289.122 163.459C287.572 163.413 286.108 163.525 284.588 163.819C283.377 164.052 282.041 164.297 281.073 165.114L280.923 165.291C280.754 165.387 280.629 165.564 280.629 165.818C280.618 179.703 279.504 193.579 280.181 207.461C280.408 212.103 280.738 216.741 281.171 221.369C281.255 222.269 281.485 223.512 282.455 223.865C283.231 224.147 283.839 223.625 284.16 222.956C284.615 222.008 284.276 220.91 284.592 219.926L284.683 219.761C285.159 219.354 285.28 220.697 285.286 220.882C285.318 221.954 285.344 224.902 287.003 224.887C287.626 224.88 287.948 224.293 288.064 223.758C288.186 223.201 288.223 222.588 288.275 222.004C288.305 221.641 288.268 221.271 288.339 220.91C288.364 220.786 288.359 220.531 288.487 220.457C288.988 220.17 289.006 221.865 289.029 222.098C289.061 222.413 289.104 222.755 289.177 223.087C289.25 223.42 289.35 223.745 289.498 224.028C289.833 224.848 290.855 225.231 291.367 224.592C291.89 223.939 291.983 223.415 291.879 222.582C291.824 222.153 291.797 221.714 291.808 221.282C291.811 221.097 291.792 220.659 291.961 220.531C292.218 220.337 292.459 220.729 292.564 220.905C292.946 221.542 292.946 222.337 293.092 223.043C293.22 223.667 293.359 224.823 294.18 224.848C296.382 224.912 295.999 220.412 295.799 217.669C295.763 217.18 295.681 216.696 295.628 216.209C295.596 215.922 295.566 215.634 295.537 215.346L295.646 215.391C296.479 215.679 297.124 215.09 297.065 214.256C297.003 213.382 296.661 212.39 296.373 211.577C296.011 210.547 295.528 209.565 295.036 208.592C294.572 198.846 295.145 188.969 295.872 179.349C296.168 175.434 296.429 171.473 297.353 167.645L297.363 167.586C297.702 167.387 297.877 166.944 297.486 166.642V166.643Z" fill="#F3965E"/>
<path d="M301.17 172.971C301.17 172.971 300.413 164.526 300.109 162.515C298.717 153.25 296.396 144.121 294.7 134.904C292.925 125.259 291.313 115.585 289.651 105.922C289.412 104.529 284.873 101.552 284.873 101.552C284.873 101.552 278.87 112.607 276.116 129C274.043 141.338 271.739 168.569 271.739 168.569L301.172 172.971H301.17Z" fill="#D65938"/>
<path d="M335.789 94.9091C334.747 86.2432 334.346 77.5076 334.585 68.7827C334.889 68.3293 334.986 67.7385 334.893 67.1477C334.743 66.1963 334.678 65.1807 334.428 64.2489C334.074 62.9316 332.94 62.2551 331.641 62.1945C329.574 62.0981 327.464 62.2587 325.395 62.2926C321.189 62.3605 316.983 62.4265 312.777 62.4961C311.776 62.5122 310.814 63.3672 310.863 64.4149L310.875 64.5417C310.754 64.788 310.686 65.0629 310.695 65.3628C310.896 71.5851 311.349 77.7932 312.034 83.978C312.13 86.0968 312.225 88.2155 312.321 90.3343C312.38 91.623 312.396 92.9207 312.499 94.204C312.57 95.0858 312.912 95.8623 313.71 96.3174C314.37 96.6941 315.231 96.6405 315.968 96.6834C318.573 96.8369 321.18 96.9886 323.785 97.1403L332.614 97.6544C333.244 97.6919 333.857 97.3152 334.215 96.7833C335.057 96.5905 335.903 95.8516 335.789 94.9109V94.9091Z" fill="#F3965E"/>
<path d="M319.298 28.0777C319.595 22.2283 318.745 15.5034 314.242 11.4015C312.737 10.0313 310.948 8.86921 308.934 8.56846C306.806 8.2517 304.608 8.94395 302.843 10.1718C300.639 11.704 299.092 13.9765 297.874 16.3273C296.443 19.0856 295.374 22.1393 295.568 25.2411C295.833 29.5084 298.681 32.4589 302.656 33.7028C304.841 34.3862 307.138 34.5285 309.412 34.4378C313.733 34.2669 318.785 34.9076 319.221 29.2913C319.251 28.8927 319.278 28.487 319.3 28.0777H319.298Z" fill="#FACFA6"/>
<path d="M348.325 37.1712C348.137 35.9249 347.889 34.7092 347.571 33.5419C346.047 27.9805 340.289 25.9872 334.701 26.2638C331.869 26.4038 329.064 26.9874 326.289 27.5262C323.621 28.0451 320.948 28.6359 318.42 29.6523C313.868 31.4822 309.708 34.6553 308.074 39.4266C307.182 42.0341 307.22 44.9145 307.238 47.635C307.254 50.2748 307.401 52.9092 307.75 55.5256C308.43 60.6183 309.886 65.6572 312.709 70.0066C313.816 71.7125 315.121 73.3089 316.601 74.7096C316.897 74.9898 317.201 75.2627 317.511 75.5267C321.035 78.5238 325.741 79.639 330.251 79.8563C332.559 79.9676 334.882 79.9173 337.178 79.6264C340.692 79.1793 343.726 77.6241 345.339 74.3271C346.759 71.4234 347.065 68.13 347.665 64.9928C348.247 61.9436 348.678 58.8639 348.936 55.7698C349.452 49.5727 349.262 43.3216 348.329 37.1712H348.325Z" fill="#F3965E"/>
<path d="M342.259 26.293C340.177 25.2011 337.847 24.4702 335.919 24.0323C329.174 22.499 322.127 23.3782 315.389 24.4684C313.457 24.7811 311.722 25.5836 310.18 26.6987C293.237 38.9423 304.282 61.5797 310.359 76.6558C310.72 77.5494 311.031 78.9415 311.713 79.4777C311.935 78.9147 312.016 78.2928 312.052 77.6673C312.368 72.3095 311.732 67.1769 311.434 61.8424C313.05 61.1025 315.539 58.6989 316.936 57.7052C318.909 56.3041 320.836 54.8405 322.721 53.3214C326.35 50.3959 329.793 47.2434 333.024 43.8872C334.794 42.0501 336.496 40.1504 338.132 38.197C340.742 41.5425 348.978 47.8278 349.67 48.028C350.238 48.1924 350.747 38.6385 347.376 31.2398C347.242 30.9628 347.102 30.6858 346.953 30.4195C345.982 28.6824 344.232 27.326 342.259 26.2912V26.293Z" fill="#FACFA6"/>
<path d="M317.121 60.8455C316.539 57.0057 312.271 51.803 309.925 51.4006C308.269 51.1163 306.813 51.9103 306.202 53.511C305.757 54.6717 305.917 56.1025 306.301 57.2596C307.159 59.8457 309.08 61.6771 311.205 63.2295C312.421 64.1166 313.763 65.2111 315.339 64.569C316.931 63.9198 317.373 62.5105 317.121 60.8455Z" fill="#F3965E"/>
<path d="M333.499 50.8023C333.086 50.0254 331.884 50.034 331.13 50.0478C329.5 50.0789 327.697 50.3655 326.331 51.3063C326.165 51.4203 326.003 51.5515 325.911 51.7293C325.746 52.0452 325.904 52.299 326.181 52.463C326.968 52.9308 328.052 52.9861 328.944 53.0396C329.984 53.1 331.055 53.1173 332.055 52.7858C332.865 52.5182 334.032 51.8018 333.501 50.8023H333.499Z" fill="#FACFA6"/>
<path d="M347.398 49.4918L347.306 49.4358C346.072 48.724 344.314 48.6762 342.906 48.7998C342.419 48.8426 341.929 48.9201 341.489 49.1227C340.956 49.3682 340.419 49.9581 340.594 50.548C340.86 51.4492 342.115 51.3471 342.896 51.3339C343.9 51.3158 344.906 51.2746 345.907 51.1955C346.517 51.146 348.25 50.8709 347.862 49.9762C347.774 49.7736 347.596 49.617 347.398 49.4918Z" fill="#FACFA6"/>
<path d="M337.628 58.5874C337.365 59.9404 337.633 61.3479 338.467 62.4813C338.875 63.0349 339.524 63.4109 339.904 63.9715C340.652 65.0768 338.963 65.495 338.171 65.6338C337.593 65.7375 337.839 66.5862 338.414 66.4843C339.286 66.3296 340.234 66.0977 340.735 65.321C341.148 64.6814 341.044 63.9644 340.582 63.3828C340.066 62.7309 339.366 62.2986 338.948 61.5606C338.478 60.7259 338.328 59.7524 338.51 58.8211C338.618 58.2675 337.737 58.0286 337.628 58.5874Z" fill="#BC4120"/>
<path d="M335.948 70.5216C337.394 71.7338 339.61 71.4143 340.504 69.7638C340.78 69.2544 339.962 68.8037 339.687 69.3148C339.085 70.4293 337.637 70.7452 336.62 69.8916C336.167 69.5118 335.495 70.14 335.95 70.5216H335.948Z" fill="#BC4120"/>
<path d="M330.597 57.6033C330.527 58.3318 330.237 59.1593 329.418 59.1345C329.163 59.1257 328.908 59.1186 328.653 59.1098C328.467 59.1045 328.278 59.0974 328.106 59.0267C327.556 58.7986 327.546 57.8049 327.593 57.2974C327.639 56.8165 327.858 55.8404 328.421 55.7538C328.779 55.699 329.142 55.6707 329.504 55.6724C329.6 55.6724 329.697 55.676 329.786 55.706C330.399 55.9235 330.654 57.0357 330.597 57.6033Z" fill="#873312"/>
<path d="M345.936 57.6268C345.819 57.7035 345.687 57.757 345.537 57.7837C344.62 57.9388 343.927 57.7908 343.668 56.7677C343.492 56.069 343.569 54.7892 344.371 54.5682C344.692 54.479 345.019 54.4167 345.349 54.381C345.905 54.3186 346.284 54.6395 346.484 55.1671C346.759 55.8996 346.636 57.1687 345.936 57.6286V57.6268Z" fill="#873312"/>
<path d="M307.541 54.6188C308.609 53.553 310.258 53.8353 311.35 54.7095C312.526 55.6504 313.141 57.0771 313.715 58.4183C313.93 58.9195 314.771 58.6989 314.555 58.1908C313.833 56.5057 313.046 54.73 311.423 53.707C310.029 52.8277 308.134 52.8071 306.925 54.0115C306.532 54.405 307.146 55.0123 307.541 54.6188Z" fill="#BC4120"/>
<path d="M322.163 56.6705C322.902 57.172 323.71 57.4238 324.556 57.4025C325.118 57.3875 325.12 56.3163 324.556 56.3312C323.861 56.3504 323.213 56.1605 322.605 55.7444C322.113 55.4093 321.671 56.3334 322.163 56.6684V56.6705Z" fill="#BC4120"/>
<path d="M322.933 59.557C323.509 59.4362 324.084 59.3154 324.66 59.1927C325.217 59.0757 324.981 58.1621 324.426 58.2791C323.851 58.3999 323.275 58.5207 322.699 58.6434C322.142 58.7604 322.378 59.674 322.933 59.557Z" fill="#BC4120"/>
<path d="M335.683 66.9032C336.075 66.4254 335.379 65.7411 334.983 66.2247C333.784 67.6887 332.767 69.2598 331.954 70.9532C331.688 71.5094 332.54 71.9987 332.808 71.4387C333.583 69.8217 334.537 68.2984 335.681 66.9013L335.683 66.9032Z" fill="#BC4120"/>
<path d="M342.777 69.6344C342.908 70.1962 343.707 69.9575 343.575 69.3957C343.299 68.2181 342.802 67.1644 342.11 66.2149C341.778 65.7607 341.194 66.4016 341.523 66.8521C342.126 67.6778 342.538 68.6166 342.777 69.6344Z" fill="#BC4120"/>
<path d="M328.409 123.501C326.22 129.985 322.501 135.833 319.351 141.883C317.707 145.041 316.022 148.158 314.207 151.222C312.449 154.192 310.844 157.257 308.841 160.078C306.709 163.08 304.351 165.983 302.938 169.408C302.719 169.939 303.592 170.17 303.807 169.644C305.099 166.51 307.26 163.797 309.234 161.065C311.23 158.299 312.86 155.322 314.57 152.384C318.089 146.338 321.331 140.141 324.638 133.979C326.413 130.672 328.079 127.296 329.281 123.739C329.464 123.194 328.596 122.96 328.413 123.503L328.409 123.501Z" fill="#873312"/>
<path d="M357.735 146.119C357.735 145.565 357.008 145.565 357.008 146.119C357.013 149.017 357.131 151.912 357.147 154.81C357.15 155.364 357.877 155.364 357.874 154.81C357.858 151.912 357.739 149.015 357.735 146.119Z" fill="#873312"/>
<path d="M353.108 94.3779C351.551 96.3831 351.235 99.0081 350.433 101.342C349.413 104.304 347.811 107.057 346.51 109.902C343.923 115.563 341.492 121.291 338.808 126.908C336.134 132.505 333.22 137.991 329.851 143.213C326.364 148.615 322.497 153.768 318.521 158.826C314.817 163.54 311.341 168.871 306.144 172.131C305.655 172.436 306.108 173.209 306.598 172.9C311.211 170.008 314.501 165.506 317.754 161.27C321.591 156.27 325.49 151.333 329.016 146.108C336.087 135.631 341.135 124.134 346.26 112.652C347.676 109.478 349.309 106.398 350.665 103.201C351.269 101.781 351.684 100.329 352.108 98.85C352.514 97.4345 352.972 96.0119 353.89 94.8308C354.242 94.3761 353.46 93.9321 353.112 94.3814L353.108 94.3779Z" fill="#873312"/>
<path d="M322.275 124.152C318.884 120.006 314.782 116.528 311.129 112.623C307.944 109.218 304.797 105.651 302.234 101.747C300.855 99.6468 299.62 97.3959 299.014 94.9434C298.878 94.3899 298.02 94.6251 298.156 95.1786C299.266 99.6609 302.24 103.581 305.116 107.094C308.283 110.963 311.716 114.565 315.29 118.057C317.495 120.212 319.691 122.387 321.644 124.776C322.005 125.218 322.633 124.587 322.273 124.148L322.275 124.152Z" fill="#873312"/>
<path d="M316.749 70.871C316.724 70.6921 316.652 70.5078 316.58 70.3395C315.9 68.7431 315.275 67.1236 314.676 65.4953C314.452 64.8858 314.229 64.2727 314.01 63.6597C313.872 63.2752 313.766 62.8801 313.602 62.5062C313.48 62.2298 313.265 61.7549 312.908 61.7319C312.691 61.7195 312.592 61.9569 312.536 62.1306C312.352 62.6976 312.257 63.2894 312.103 63.8652C311.939 64.4747 311.776 65.086 311.612 65.6955C311.2 67.2335 310.787 68.7732 310.376 70.3129C310.287 70.6389 310.187 71.0464 310.342 71.3689C310.478 71.6471 310.747 71.6879 311.026 71.6755C312.536 71.6064 314.049 71.6081 315.559 71.679C315.767 71.6879 315.979 71.6985 316.182 71.6524C316.536 71.5709 316.799 71.2449 316.747 70.8693L316.749 70.871ZM312.279 66.5407C312.527 65.6884 312.785 64.8397 313.014 63.9839C313.706 66.3281 314.792 68.5393 315.781 70.7754C314.247 70.7895 312.712 70.6885 311.181 70.7789C311.582 69.3756 311.877 67.944 312.281 66.5407H312.279Z" fill="#BB661E"/>
<path d="M295.49 202.625C295.475 202.181 295.475 201.418 295.052 201.137C295.059 200.856 294.847 200.577 294.518 200.706C292.216 201.611 289.729 201.747 287.29 201.899C284.724 202.058 282.11 202.505 279.55 202.072C279.251 202.022 279.044 202.246 279.002 202.48L278.88 202.619C278.571 203.154 278.677 203.909 278.705 204.497C278.732 205.076 278.608 205.781 278.76 206.339C278.901 206.866 279.389 207 279.872 207.043C280.991 207.142 282.136 207.174 283.259 207.165C285.508 207.149 287.809 206.716 290.019 206.317C291.158 206.112 292.289 205.861 293.397 205.523C294.006 205.339 294.948 205.168 295.328 204.576C295.667 204.048 295.513 203.219 295.492 202.621L295.49 202.625Z" fill="#BB661E"/>
<path d="M294.462 198.159C293.6 198.789 292.52 199.058 291.488 199.259C290.33 199.483 289.146 199.591 287.969 199.628C286.683 199.67 285.398 199.707 284.112 199.752C282.608 199.804 281.088 199.791 279.647 199.314C279.096 199.131 278.86 200.001 279.408 200.182C280.85 200.661 282.386 200.704 283.89 200.66C285.301 200.618 286.714 200.577 288.125 200.525C290.315 200.443 293.082 200.279 294.917 198.938C295.38 198.601 294.932 197.819 294.464 198.161L294.462 198.159Z" fill="#BB661E"/>
<path d="M298.434 147.754C297.556 151.394 297.595 155.122 297.378 158.817C297.16 162.523 296.204 166.226 296.451 169.946C296.488 170.516 297.519 170.52 297.482 169.946C297.24 166.302 298.168 162.681 298.394 159.052C298.625 155.36 298.551 151.629 299.428 147.992C299.563 147.433 298.569 147.193 298.434 147.756V147.754Z" fill="#873312"/>
<path d="M354.294 177.319C353.573 177.543 352.804 177.5 352.058 177.595C351.13 177.714 350.2 177.824 349.272 177.945C347.363 178.193 345.471 178.555 343.558 178.784C339.733 179.245 335.883 179.501 332.034 179.65C328.211 179.796 324.381 179.741 320.56 179.912C316.721 180.084 312.905 180.572 309.061 180.665C306.935 180.715 304.811 180.725 302.687 180.846C301.783 180.897 300.888 180.997 299.989 181.097C299.129 181.192 298.233 181.278 297.394 181.025C296.842 180.858 296.607 181.692 297.157 181.859C298.634 182.307 300.212 181.885 301.709 181.773C303.576 181.632 305.454 181.573 307.324 181.552C311.254 181.506 315.143 181.109 319.06 180.861C322.964 180.615 326.885 180.689 330.791 180.561C334.684 180.434 338.576 180.208 342.447 179.781C344.555 179.548 346.649 179.239 348.739 178.896C349.763 178.729 350.798 178.655 351.824 178.505C352.719 178.374 353.666 178.426 354.534 178.155C355.08 177.985 354.846 177.151 354.296 177.323L354.294 177.319Z" fill="#A47E2A"/>
<path d="M331.903 78.9875C330.476 78.9875 329.132 78.8179 327.724 78.604C326.437 78.4104 325.097 78.2334 323.926 77.612C322.928 77.081 321.941 76.2918 321.101 75.5248C320.19 74.6914 319.529 73.7216 319.355 72.4549C319.275 71.8686 318.41 72.1175 318.491 72.7001C318.666 73.9705 319.313 75.0454 320.202 75.9249C321.101 76.8155 322.204 77.6765 323.289 78.3071C324.511 79.0188 325.906 79.2567 327.277 79.465C328.837 79.701 330.322 79.9131 331.903 79.9112C332.481 79.9112 332.481 78.9856 331.903 78.9856V78.9875Z" fill="#BC4120"/>
<path d="M330.656 38.5839C328.418 42.982 324.292 46.3467 320.409 49.1877C319.953 49.522 320.392 50.2997 320.855 49.9618C324.859 47.0315 329.106 43.5756 331.417 39.0362C331.678 38.5249 330.918 38.0707 330.656 38.5839Z" fill="#C8813D"/>
<path d="M318.142 41.9303C315.981 43.724 313.841 45.4502 311.011 46.1798C310.456 46.3234 310.691 47.1409 311.248 46.9973C314.229 46.2271 316.496 44.4182 318.773 42.5299C319.207 42.1702 318.572 41.5723 318.14 41.9303H318.142Z" fill="#C8813D"/>
<path d="M313.16 25.3857C310.518 25.9888 307.854 26.9252 305.734 28.6797C303.596 30.4507 302.496 32.9795 302.471 35.7524C302.465 36.3409 303.372 36.3409 303.377 35.7524C303.399 33.138 304.47 30.8333 306.514 29.2136C308.495 27.6431 310.973 26.8214 313.4 26.2675C313.969 26.1382 313.727 25.2564 313.16 25.3857Z" fill="#C8813D"/>
<path d="M426.617 70.5122C426.617 70.5122 416.929 69.0823 412.554 69.0899C408.038 69.0974 398.569 70.3571 398.569 70.3571C398.569 70.3571 397.487 71.7246 397.731 72.7592C397.991 73.8619 399.041 74.4634 400.057 74.2364C404.166 73.3229 408.259 73.1602 412.465 73.1526C414.563 73.1488 416.661 73.1394 418.758 73.1791C420.823 73.2169 422.752 73.3418 424.688 73.9338C425.649 74.2288 426.822 73.6444 427.075 72.572C427.326 71.5128 426.615 70.5103 426.615 70.5103L426.617 70.5122Z" fill="#FCF2E6"/>
<path d="M453.336 204.782C453.611 190.443 453.831 176.105 453.989 161.766C454.336 161.31 454.488 160.707 454.343 160.133C454.28 159.879 454.166 159.651 454.015 159.455V159.285C454.042 156.824 450.211 156.726 450.174 159.186C436.737 162.469 423.48 166.477 410.479 171.198C407.797 172.172 404.372 173.034 402.623 175.427C402.015 175.75 401.534 176.364 401.596 177.059C403.93 202.718 406.486 228.358 409.269 253.974C412.043 279.503 426.404 375.974 426.404 375.974L447.811 371.743C447.811 371.743 452.821 231.665 453.334 204.782H453.336Z" fill="#D65938"/>
<path d="M409.946 251.185C410.174 240.95 410.468 230.714 410.827 220.483C411.01 220.206 411.12 219.879 411.113 219.517C410.888 207.08 410.664 194.645 410.44 182.21C410.384 179.145 410.447 176.051 410.269 172.99C410.226 172.24 410.113 171.552 409.702 170.909C409.137 170.024 408.134 169.519 407.084 169.509C406.386 169.502 405.694 169.68 405.012 169.812C404.255 169.958 403.491 170.081 402.726 170.181C397.022 170.934 390.974 170.419 385.141 170.513C383.558 170.538 381.972 170.593 380.397 170.75C378.714 170.92 377.093 171.259 375.728 172.31C373.72 173.855 373.15 177.316 375.061 179.079C375.134 204.129 375.708 229.176 376.794 254.204C377.899 279.701 379.53 305.176 381.687 330.607C382.9 344.937 385.907 377.272 385.907 377.272L405.278 373.991C405.278 373.991 409.505 271.092 409.946 251.185Z" fill="#D65938"/>
<path d="M442.086 182.58C440.527 183.735 438.752 184.523 436.942 185.185C435.109 185.854 433.244 186.509 431.37 187.047C427.298 188.216 423.046 188.786 418.896 189.601C414.58 190.446 410.229 191.22 405.833 191.468C401.414 191.72 397.012 191.281 392.628 190.741C390.23 190.448 387.702 190.344 385.388 189.606C384.347 189.273 383.382 188.798 382.412 188.302C381.538 187.854 380.536 187.412 379.945 186.586C379.613 186.122 378.828 186.554 379.165 187.023C380.147 188.392 381.936 189.135 383.421 189.806C385.35 190.678 387.317 190.988 389.397 191.243C394.051 191.815 398.717 192.484 403.417 192.448C407.892 192.414 412.347 191.739 416.74 190.926C418.935 190.52 421.12 190.054 423.317 189.651C425.502 189.25 427.696 188.89 429.858 188.372C432.13 187.829 434.347 187.048 436.551 186.275C438.638 185.541 440.72 184.697 442.514 183.368C442.971 183.03 442.546 182.235 442.083 182.578L442.086 182.58Z" fill="#873312"/>
<path d="M426.263 44.4533C426.279 43.3262 425.433 42.2258 424.383 42.2542C423.627 42.2755 422.934 42.7458 422.603 43.4647C416.274 44.3699 409.847 44.8455 403.437 44.9183C402.62 44.9272 401.749 45.5271 401.539 46.4572C400.826 49.6182 400.431 52.8663 400.395 56.1232C400.325 56.3345 400.288 56.5616 400.293 56.803C400.469 65.7787 400.645 74.7543 400.821 83.73C400.839 84.6157 401.345 85.6416 402.191 85.8403C407.399 87.0597 412.712 88.2595 418.057 87.4236C420.413 87.0544 422.672 85.9877 424.157 83.8365C424.954 82.681 425.439 81.2682 425.586 79.8163C425.704 79.5519 425.774 79.2555 425.778 78.9342C425.939 67.44 426.099 55.9458 426.261 44.4533H426.263Z" fill="#F3965E"/>
<path d="M427.845 24.1251C426.654 20.3413 424.305 17.0195 420.248 14.6807C415.891 12.1688 410.714 11.3643 405.687 11.548C399.74 11.7675 394.379 12.5917 388.985 15.132C388.208 15.4978 388.471 17.2514 388.356 18.8517C388.337 19.2798 388.319 19.7098 388.303 20.1397C388.171 23.5739 388.139 27.0134 388.208 30.4511C388.326 36.2205 388.608 42.0685 389.448 47.7826C390.07 52.0124 391.313 56.4973 394.284 59.7121C395.865 61.4229 397.991 62.6985 400.281 63.1712C403.191 63.7724 406.171 63.3853 409.002 62.57C414.156 61.0875 418.963 58.5329 422.256 54.2085C425.285 50.2302 426.691 45.2404 427.76 40.4343C428.969 34.9878 429.428 29.147 427.845 24.1233V24.1251Z" fill="#F3965E"/>
<path d="M431.884 16.903C431.918 15.4901 431.814 14.1146 431.295 12.9149C429.278 8.25151 424.444 11.6247 421.25 9.36049C420.912 9.18277 420.579 8.99439 420.252 8.80422C417.165 7.00922 414.047 4.87655 410.476 4.70061C406.372 4.49623 402.185 6.93458 398.311 5.575C396.194 4.83212 394.564 3.04956 392.437 2.33334C389.937 1.49094 387.061 2.31202 385.074 4.04481C380.777 7.7912 379.556 16.3414 384.252 20.3135C384.769 20.7507 385.358 21.1168 385.784 21.6429C386.558 22.5973 386.672 23.9071 386.755 25.1316C386.94 27.8774 387.126 30.6232 387.311 33.3708C387.372 34.2523 387.666 35.3844 388.551 35.4466C388.624 32.4396 388.695 29.4343 388.768 26.4272C388.797 25.2293 388.92 23.8467 389.906 23.1607C391.041 22.3698 392.577 22.9723 393.857 23.493C399.089 25.6221 405.013 26.0255 410.488 24.6251C412.952 23.9942 415.913 23.1216 417.766 24.8579C418.968 25.9829 419.161 27.7868 419.236 29.4289C419.38 32.6208 419.384 37.366 419.191 40.5544C419.155 41.1657 419.107 41.7931 418.854 42.3511C418.601 42.9092 418.158 43.3571 417.707 43.7747C415.544 45.7723 412.624 47.3789 409.741 46.748C407.224 46.1971 405.269 44.0502 402.735 43.581C400.084 43.0905 397.5 44.5283 394.842 44.9779C392.7 45.3422 390.903 44.9761 388.931 44.0697C388.178 48.5892 386.94 51.7296 387.691 56.2491C388.44 60.7685 390.98 65.2543 395.175 67.1292C397.817 68.3093 400.824 68.3537 403.707 68.0978C410.415 67.5025 417.308 65.1583 421.662 60.0381C422.218 59.3841 422.739 58.6679 422.948 57.8379C423.147 57.0488 423.051 56.2206 422.953 55.412C422.464 51.3866 421.976 47.3611 421.487 43.3357C421.342 42.1432 421.201 40.9045 421.565 39.76C421.91 38.6812 423.128 35.2405 424.375 35.2636C425.258 35.2796 425.907 36.8951 426.306 38.3542C426.406 38.7203 426.49 39.0739 426.558 39.3938C426.626 39.712 426.679 39.9945 426.715 40.2114C427.045 41.5034 426.501 42.8932 426.237 44.1142C426.033 44.9263 425.88 45.767 425.764 46.6254C425.3 50.0536 425.447 53.7485 425.482 57.1075C425.5 58.8758 426.538 57.2905 426.875 56.7307C427.698 55.3604 428.081 53.4304 428.554 51.9091C429.522 48.79 430.291 45.6106 430.855 42.3938C432.342 33.8898 431.675 25.4639 431.884 16.903Z" fill="#FACFA6"/>
<path d="M428.431 33.0544C427.125 31.7922 425.203 32.2448 424.047 33.4349C423.122 34.3889 422.461 35.6674 422.001 36.8881C421.504 38.2063 421.355 39.6273 421.656 41.0086C421.715 41.2773 421.804 41.5135 421.916 41.7209C421.99 41.9733 422.099 42.2185 422.256 42.4566C422.816 43.2987 423.855 43.6738 424.843 43.5187C426.326 43.2861 427.284 41.9354 427.899 40.7038C428.462 39.5714 428.821 38.3452 429.068 37.1136C429.347 35.7287 429.567 34.1508 428.431 33.0526V33.0544Z" fill="#F3965E"/>
<path d="M448.736 84.653C443.681 81.8759 438.374 79.5549 432.896 77.7344C431.301 75.3866 426.946 70.2778 426.697 70.5557C421.791 76.0332 416.507 81.1652 410.89 85.9213C406.442 81.4751 399.044 69.9928 398.568 70.3989C396.434 72.2301 391.551 75.6877 391.522 75.8462C385.649 77.9927 373.889 83.3883 373.889 83.3883C373.889 83.3883 374.834 108.642 375.315 119.56C375.822 131.044 376.567 142.517 377.549 153.971C378.104 160.432 378.734 166.886 379.438 173.332C379.463 173.555 379.515 173.778 379.593 173.988C379.318 174.145 379.078 174.362 378.911 174.633C378.346 175.545 378.677 176.69 379.542 177.267C386.868 182.171 395.961 183.705 404.65 183.297C409.483 183.069 414.278 182.308 419.015 181.352C423.228 180.5 427.465 179.601 431.57 178.313C436.154 176.874 440.532 174.877 444.256 171.811C444.911 171.271 444.991 170.279 444.626 169.547C445.435 159.142 446.243 148.736 447.052 138.331C447.877 127.697 448.704 117.06 449.531 106.424C449.998 100.407 450.465 94.3915 450.932 88.3742C450.995 87.5708 449.4 85.0164 448.738 84.653H448.736Z" fill="#FEDE8D"/>
<path d="M381.629 147.256C381.731 141.715 381.681 136.172 381.481 130.633C380.972 116.572 379.064 102.758 377.198 88.835C377.022 87.5227 377.14 84.1587 376.038 83.2725C374.807 82.2825 373.008 83.7291 372.248 84.6815C366.505 91.8713 363.258 101.032 361.381 110.007C359.726 117.925 357.983 150.983 362.401 158.22C364.822 162.183 368.078 165.492 370.884 169.156C373.973 173.192 377.825 171.742 380.614 176.001C380.614 176.001 381.239 157.926 381.365 155.425C381.502 152.705 381.578 149.981 381.629 147.258V147.256Z" fill="#FEDE8D"/>
<path d="M409.953 86.4159C409.542 86.9034 409.008 87.2599 408.557 87.7092C408.101 88.1621 407.681 88.6495 407.223 89.1006C406.472 89.8355 405.677 90.5412 405.06 91.3998C404.565 90.9414 404.18 90.3684 403.768 89.8355C403.308 89.2425 402.787 88.7078 402.292 88.1475C401.152 86.8597 400.053 85.5374 398.986 84.1859C396.847 81.4794 394.847 78.66 392.922 75.7898C392.6 75.3114 391.821 75.7479 392.146 76.2318C394.113 79.1675 396.16 82.0487 398.344 84.8171C399.436 86.1995 400.562 87.5527 401.73 88.8678C402.269 89.4753 402.821 90.061 403.312 90.7104C403.763 91.3052 404.208 91.8745 404.786 92.3438C404.876 92.4184 404.968 92.442 405.053 92.4347C405.228 92.4984 405.434 92.4638 405.564 92.2565C406.198 91.2306 407.135 90.463 407.974 89.6227C408.382 89.2134 408.761 88.7751 409.169 88.3676C409.619 87.9183 410.153 87.5637 410.565 87.0744C410.936 86.6342 410.326 85.9703 409.953 86.4141V86.4159Z" fill="#A24E22"/>
<path d="M431.641 77.7948C430.989 78.0935 430.507 78.6223 430.044 79.1546C429.55 79.725 429.016 80.2483 428.49 80.7879C427.187 82.1243 425.954 83.5276 424.647 84.8585C423.326 86.2021 421.921 87.466 420.543 88.7516C419.851 89.3962 419.145 90.0245 418.472 90.6873C418.116 91.0367 417.744 91.3572 417.47 91.7574C417.199 91.5057 416.887 91.2993 416.595 91.0512C416.012 90.5587 415.444 90.0354 414.892 89.5085C413.858 88.518 413.041 87.3211 411.924 86.4139C411.474 86.0481 410.812 86.6728 411.266 87.0404C412.324 87.9005 413.104 89.0232 414.07 89.9756C414.584 90.4827 415.132 90.9516 415.667 91.4351C416.108 91.8317 416.767 92.1775 417.08 92.6791C417.268 92.9797 417.637 92.9362 417.827 92.7425C417.938 92.7008 418.036 92.6157 418.091 92.4781C418.347 91.8516 419.145 91.2812 419.628 90.8267C420.287 90.2038 420.964 89.6026 421.625 88.9834C422.908 87.7846 424.215 86.6022 425.442 85.3438C426.633 84.1215 427.766 82.8413 428.953 81.6136C429.488 81.0595 430.049 80.5344 430.552 79.9514C431.002 79.4317 431.443 78.8812 432.082 78.5879C432.614 78.3434 432.171 77.5485 431.641 77.793V77.7948Z" fill="#A24E22"/>
<path d="M404.569 173.638C404.787 170.695 404.949 167.754 405.045 164.806C405.242 158.65 405.255 152.488 405.38 146.332C405.502 140.199 405.758 134.072 406.343 127.968C406.923 121.908 407.772 115.88 408.74 109.875C409.287 106.478 409.643 103.068 409.985 99.6449C410.146 98.0337 410.326 96.4314 410.432 94.8149C410.538 93.2055 410.642 91.5801 411.092 90.0276C411.251 89.4793 410.444 89.1731 410.285 89.725C409.518 92.3705 409.594 95.2172 409.299 97.9447C408.968 101.026 408.726 104.121 408.293 107.192C407.443 113.225 406.41 119.218 405.755 125.281C404.429 137.562 404.568 149.889 404.261 162.221C404.177 165.604 404.051 168.984 403.805 172.36C403.56 175.721 403.273 179.086 403.329 182.461C403.339 183.031 404.195 183.106 404.184 182.531C404.135 179.561 404.352 176.599 404.571 173.642L404.569 173.638Z" fill="#A24E22"/>
<path d="M376.456 128.27C375.228 134.048 374.187 139.866 372.609 145.567C372.454 146.124 373.341 146.38 373.496 145.824C375.074 140.123 376.113 134.304 377.341 128.527C377.461 127.967 376.574 127.707 376.456 128.268V128.27Z" fill="#A24E22"/>
<path d="M423.587 390.425C423.422 363.369 423.877 336.327 424.502 309.271C424.872 293.226 425.106 277.178 425.408 261.131C425.561 252.967 425.715 244.803 425.868 236.639C425.999 229.664 424.673 221.664 426.959 214.955C427.992 211.926 424.006 212.478 422.826 214.19C421.167 216.593 422.437 223.895 422.389 226.801C422.232 236.35 422.076 245.9 421.922 255.449C421.647 272.33 421.589 289.238 420.926 306.092C420.662 312.807 420.353 319.518 420.088 326.232C419.824 332.949 419.607 339.667 419.524 346.388C419.305 364.305 420.43 382.083 418.94 399.991C418.419 406.279 423.765 407.831 423.677 400.665C423.636 397.252 423.605 393.842 423.586 390.429L423.587 390.425Z" fill="#873312"/>
<path d="M443.71 205.881C443.499 205.615 443.243 205.374 442.941 205.17C439.479 202.797 430.403 205.106 426.744 206.17C418.976 208.428 419.895 218.55 420.77 224.947C420.589 225.218 420.475 225.528 420.468 225.84C420.444 226.935 421.182 227.7 422.243 227.858C423.814 228.092 425.606 227.895 426.612 226.52C428.77 223.562 426.96 217.879 427.145 214.407C427.226 212.868 441.255 211.896 443.172 210.446C444.705 209.284 444.805 207.253 443.713 205.881H443.71Z" fill="#873312"/>
<path d="M461.383 175.946C459.848 175.429 458.197 175.113 456.599 174.864C454.6 174.551 452.618 174.146 450.615 173.865C448.27 173.536 445.911 173.329 443.57 172.98C443.197 172.923 442.992 173.162 442.957 173.449C439.799 176.762 437.481 180.737 435.054 184.586C432.402 188.795 429.377 192.762 426.843 197.046C425.985 198.498 424.801 199.854 423.974 201.358C422.403 202.269 421.21 203.718 420.131 205.151C419.052 206.581 418.141 208.429 418.587 210.262C418.676 210.627 419.02 210.768 419.363 210.727C419.602 210.697 419.803 210.601 419.976 210.465L419.967 210.533C419.862 211.619 420.019 213.801 421.174 214.345C422.422 214.932 423.084 213.196 423.248 212.288C423.38 211.555 423.367 210.74 423.767 210.087C423.838 209.971 423.917 209.862 423.995 209.755C423.774 210.574 423.569 211.387 423.542 212.262C423.514 213.237 423.532 214.597 424.485 215.162C425.557 215.799 426.213 214.638 426.511 213.783C426.57 213.61 426.953 210.897 427.003 210.717C427.067 211.309 426.595 213.319 427.123 214.936C427.297 215.473 427.811 215.928 428.43 215.801C428.916 215.701 429.246 215.246 429.476 214.841C429.763 214.333 429.972 213.778 430.175 213.232C430.409 212.604 430.528 212.322 430.883 211.708C431.349 210.907 431.925 210.135 432.75 209.678C434.473 208.724 436.605 208.722 438.044 207.293C439.758 205.593 441.4 203.816 443.026 202.034C445.997 198.778 448.855 195.422 451.703 192.061C453.545 189.887 455.317 187.505 457.252 185.352C458.192 184.306 459.233 183.318 460.313 182.417C461.364 181.543 462.66 180.892 463.452 179.745C463.769 179.286 463.992 178.724 463.897 178.176C463.701 177.036 462.376 176.282 461.383 175.946Z" fill="#F3965E"/>
<path d="M395.89 27.9875C393.054 27.8364 389.482 28.7197 389.067 30.5612C388.829 31.6267 390.138 32.0383 390.949 32.164C392.612 32.4208 394.312 32.2933 395.951 31.94C397.042 31.705 399.084 31.3826 399.392 30.0712C399.695 28.7835 397.995 28.1005 395.89 27.9875Z" fill="#FACFA6"/>
<path d="M415.398 30.0264C415.307 29.6643 415.069 29.2986 414.643 28.9599C413.234 27.8448 410.679 27.9132 409.011 28.0375C407.882 28.1222 405.986 28.5059 405.558 29.8066C404.885 31.8513 409.158 32.0567 410.23 32.1522C411.207 32.2387 412.22 32.3305 413.199 32.2891C414.529 32.2332 415.679 31.1523 415.399 30.0264H415.398Z" fill="#FACFA6"/>
<path d="M465.502 108.417C463.178 102.408 460.116 96.7013 456.174 91.5225C454.318 88.9751 448.623 84.6729 448.623 84.6729C448.623 84.6729 440.572 104.449 437.876 114.749C437.121 117.636 436.43 120.54 435.801 123.455C435.715 123.859 435.984 124.153 436.296 124.245C438.439 135.557 440.421 146.9 442.232 158.271C442.721 161.335 443.196 164.4 443.66 167.465C441.77 170.486 439.705 173.394 437.472 176.173C437.374 176.296 437.335 176.419 437.339 176.534C437.2 176.85 437.277 177.296 437.695 177.467C445.118 180.524 452.748 183.064 460.528 185.069C460.862 185.154 461.123 184.992 461.252 184.756C461.4 184.81 461.572 184.797 461.75 184.679C464.041 183.158 465.822 181.039 466.901 178.542C472.662 171.937 471.476 156.229 471.672 148.103C471.992 134.925 470.368 121.006 465.5 108.417H465.502Z" fill="#FEDE8D"/>
<path d="M401.447 35.4554C401.592 36.5558 401.771 37.9237 400.96 38.8222C400.379 39.4625 399.538 39.7335 399.176 40.5811C398.481 42.2109 399.881 43.737 401.503 43.5332C402.074 43.4623 401.852 42.5765 401.284 42.6492C400.341 42.7675 399.58 41.7725 400.024 40.8794C400.34 40.2464 401.112 39.9772 401.581 39.4825C402.666 38.3402 402.512 36.6759 402.32 35.2335C402.243 34.6532 401.372 34.8788 401.449 35.4554H401.447Z" fill="#BC4120"/>
<path d="M403.712 49.6117C404.922 49.5519 405.971 48.6093 406.331 47.2123C406.49 46.5965 405.693 46.3095 405.534 46.9233C405.288 47.8779 404.569 48.5694 403.732 48.6113C403.2 48.6372 403.177 49.6376 403.712 49.6117Z" fill="#BC4120"/>
<path d="M424.173 38.0553C424.499 36.7387 425.316 34.242 427.405 35.0333C427.976 35.2493 428.249 34.4165 427.682 34.2022C426.669 33.8187 425.535 34.1055 424.761 34.7776C423.84 35.5759 423.517 36.7197 423.246 37.8048C423.112 38.3473 424.034 38.5996 424.171 38.0553H424.173Z" fill="#BC4120"/>
<path d="M411.525 36.8342C411.278 36.9627 410.932 37.0056 410.479 37.0518C409.936 37.1066 409.647 36.8908 409.488 36.411C409.234 35.6486 409.394 34.158 410.422 34.0483C411.07 33.9798 411.619 34.086 411.836 34.7302C411.92 34.9804 411.955 35.2494 411.971 35.5166L411.976 35.6417C412.002 36.3339 411.854 36.6612 411.525 36.8342Z" fill="#873312"/>
<path d="M395.899 35.8427C395.684 36.7205 394.376 36.7562 393.644 36.4613C392.7 36.0823 392.828 34.8309 393.272 34.0747C393.677 33.3846 394.204 33.617 394.916 33.7171C395.631 33.8172 395.833 34.257 395.93 34.8631C395.984 35.1991 395.972 35.5442 395.9 35.8409L395.899 35.8427Z" fill="#873312"/>
<path d="M414.707 35.3141C415.416 35.1135 416.125 34.9128 416.834 34.7122C417.414 34.5477 417.191 33.4499 416.609 33.6144C415.9 33.815 415.191 34.0157 414.482 34.2163C413.902 34.3808 414.125 35.4786 414.707 35.3118V35.3141Z" fill="#BC4120"/>
<path d="M415.196 37.077C415.801 37.4807 416.436 37.7671 417.111 37.917C417.595 38.0246 417.822 37.1001 417.334 36.9924C416.725 36.8579 416.148 36.6195 415.602 36.2562C415.166 35.9641 414.758 36.7848 415.198 37.077H415.196Z" fill="#BC4120"/>
<path d="M389.251 34.5039C389.383 34.6095 389.515 34.7189 389.649 34.8245C389.737 34.8968 389.893 34.9104 389.998 34.8831C390.105 34.8538 390.221 34.7678 390.273 34.6642C390.401 34.414 390.329 34.1541 390.125 33.9899C389.993 33.8844 389.86 33.7749 389.728 33.6694C389.64 33.5971 389.482 33.5834 389.379 33.6107C389.272 33.6401 389.157 33.7261 389.102 33.8296C388.974 34.0798 389.048 34.3398 389.251 34.5039Z" fill="#BC4120"/>
<path d="M389.461 36.9358L389.588 36.8217L389.657 36.7709L389.683 36.7601L389.84 36.6858H389.844L389.951 36.6568C390.207 36.5952 390.399 36.3434 390.318 36.1061C390.242 35.8724 389.977 35.7094 389.703 35.7764C389.346 35.8616 389.011 36.0318 388.759 36.2782C388.579 36.4539 388.537 36.7438 388.743 36.9213C388.93 37.0825 389.267 37.1224 389.459 36.9358H389.461Z" fill="#BC4120"/>
<path d="M396.332 44.2125C396.623 43.7408 397.008 43.3682 397.478 43.1018C397.964 42.8264 397.548 42.0344 397.063 42.3116C396.467 42.65 395.97 43.1396 395.602 43.739C395.301 44.2286 396.033 44.7003 396.332 44.2125Z" fill="#BC4120"/>
<path d="M405.271 42.6751C406.072 43.1701 406.712 43.8277 407.174 44.6205C407.474 45.1356 408.32 44.6936 408.02 44.1766C407.478 43.2486 406.715 42.476 405.779 41.8969C405.257 41.5736 404.751 42.3554 405.273 42.6769L405.271 42.6751Z" fill="#BC4120"/>
<path d="M444.303 167.101C444.286 164.757 443.698 162.479 443.497 160.155C443.291 157.768 443.041 155.398 442.677 153.031C442.314 150.664 441.87 148.314 441.417 145.965C440.959 143.58 440.728 141.156 440.246 138.777C439.723 136.189 438.805 133.676 438.874 130.996C438.889 130.421 438.028 130.399 438.014 130.974C437.954 133.256 438.572 135.418 439.102 137.609C439.673 139.974 439.949 142.39 440.338 144.79C441.117 149.599 442.165 154.33 442.564 159.201C442.784 161.858 443.442 164.505 443.444 167.172L443.484 167.366C442.497 168.785 441.777 170.394 440.65 171.707C439.414 173.151 438.176 174.574 437.155 176.198C436.852 176.68 437.586 177.146 437.887 176.666C438.951 174.975 440.288 173.565 441.52 172.019C442.605 170.655 443.336 169.043 444.356 167.633C444.504 167.431 444.442 167.228 444.3 167.103L444.303 167.101Z" fill="#A24E22"/>
<path d="M464.466 173.839C458.576 172.822 453.389 169.641 447.617 168.226C447.051 168.087 446.789 168.943 447.354 169.082C453.127 170.497 458.314 173.679 464.204 174.695C464.773 174.793 465.039 173.939 464.466 173.839Z" fill="#A24E22"/>
<path d="M408.379 244.588C408.076 241.556 407.828 238.529 407.349 235.519C406.871 232.516 406.358 229.53 406.094 226.495C405.827 223.449 405.718 220.39 405.465 217.341C405.181 213.943 404.732 210.561 404.613 207.151C404.594 206.575 403.735 206.603 403.755 207.181C403.861 210.217 404.226 213.232 404.506 216.255C404.79 219.298 404.909 222.354 405.145 225.4C405.376 228.399 405.803 231.354 406.291 234.319C406.792 237.367 407.123 240.421 407.412 243.5C407.725 246.832 408.397 250.15 408.524 253.496C408.545 254.07 409.404 254.042 409.381 253.466C409.27 250.489 408.673 247.551 408.379 244.591V244.588Z" fill="#873312"/>
<path d="M391.846 20.5706C389.178 21.9835 385.064 21.8145 383.861 18.3431C383.665 17.7772 382.809 17.9993 383.009 18.5748C384.422 22.6596 389.036 23.1172 392.272 21.4043C392.781 21.1346 392.354 20.301 391.846 20.5706Z" fill="#C8813D"/>
<path d="M403.322 15.2387C401.001 15.3726 398.589 15.7099 396.564 14.3375C394.564 12.983 393.549 10.4293 394.902 8.30385C395.215 7.81309 394.426 7.34375 394.115 7.83451C392.674 10.0991 393.42 12.942 395.449 14.6248C396.483 15.4832 397.688 16.015 399.036 16.1971C400.45 16.388 401.885 16.2149 403.3 16.1328C403.89 16.0989 403.916 15.203 403.321 15.2369L403.322 15.2387Z" fill="#C8813D"/>
<path d="M399.004 62.1045C396.841 62.1468 394.953 61.335 393.95 59.2881C393.029 57.4067 392.934 55.1646 392.975 53.0992C392.987 52.5046 392.088 52.4826 392.075 53.0771C392.031 55.391 392.17 57.9185 393.292 59.9857C394.473 62.1597 396.628 63.0746 398.982 63.0286C399.559 63.0176 399.583 62.0935 399.004 62.1045Z" fill="#C8813D"/>
<path d="M143.913 35.5448C141.262 49.0778 145.638 62.2392 156.813 70.4964C166.788 77.8631 180.167 79.7209 191.663 74.5484C202.444 69.7002 209.897 59.2489 213.937 48.5499C217.018 40.393 218.203 31.0623 215.532 22.7167C206.028 -6.98571 159.591 -6.4136 143.716 17.7505C138.202 26.1405 137.178 36.4236 138.544 46.058C139.008 49.3491 143.74 48.3583 143.278 45.0937C142.107 36.8306 143.028 28.3227 147.521 21.0475C151.308 14.9165 157.351 10.6228 163.984 7.98934C176.81 2.89936 193.205 4.41219 203.739 13.3388C217.809 25.2617 212.177 47.4677 201.788 60.1484C194.208 69.3994 182.7 74.4687 170.898 71.5286C156.928 68.0488 147.194 56.1584 147.93 41.6965C148.006 40.219 148.212 38.7386 148.498 37.2847C149.098 34.2266 144.564 32.2331 143.913 35.5448Z" fill="white"/>
<path d="M199.581 17.1876C199.212 16.8012 198.736 16.5986 198.199 16.5986H198.066C197.048 16.5986 196.21 17.4034 196.159 18.4294V18.44C196.056 21.1795 195.505 23.2687 194.429 25.0168C193.602 26.3546 192.426 27.5191 191.27 28.641C188.124 25.5178 183.599 23.743 178.72 23.743C173.841 23.743 169.305 25.5178 166.159 28.641C165 27.5191 163.828 26.3546 163.001 25.0168C161.924 23.2687 161.373 21.1795 161.272 18.4427C161.235 17.4087 160.4 16.5986 159.363 16.5986H159.23C158.688 16.5986 158.215 16.8038 157.856 17.1902C157.489 17.5633 157.305 18.043 157.324 18.5839C157.611 25.8402 160.624 28.7689 163.538 31.5989L163.759 31.8121C162.767 33.6295 162.246 35.6361 162.246 37.6507C162.246 40.3849 163.184 43.0337 164.955 45.3041C166.662 47.4919 169.052 49.2241 171.871 50.3167C172.687 50.6311 173.195 51.3666 173.195 52.2353V53.9275C173.195 54.4418 173.293 54.9161 173.495 55.3718L174.29 57.1866C174.413 57.4957 174.466 57.7382 174.466 58.0233V60.475C174.466 60.9067 174.814 61.2558 175.245 61.2558H182.195C182.626 61.2558 182.974 60.9067 182.974 60.475V58.0233C182.974 57.7169 183.025 57.477 183.147 57.1946L183.934 55.3745C184.139 54.9135 184.237 54.4418 184.237 53.9275V52.2353C184.237 51.3666 184.745 50.6311 185.564 50.3167C188.38 49.2267 190.77 47.4946 192.477 45.3068C194.25 43.0337 195.186 40.3875 195.186 37.6534C195.186 35.6388 194.665 33.6349 193.673 31.8148L193.876 31.6203C195.341 30.1999 196.853 28.7316 198.007 26.7356C199.308 24.4812 199.975 21.8936 200.108 18.5919C200.14 18.067 199.959 17.582 199.584 17.1902L199.581 17.1876Z" fill="#F28D75"/>
<path d="M199.581 17.1873C199.212 16.8009 198.736 16.5984 198.199 16.5984H198.066C197.922 16.5984 197.781 16.6144 197.646 16.6464C197.76 16.7236 197.864 16.8142 197.962 16.9182C198.334 17.3152 198.518 17.8056 198.486 18.3385C198.353 21.6855 197.685 24.3104 196.385 26.5968C195.234 28.6194 193.718 30.109 192.253 31.5481C192.136 31.6653 192.107 31.8412 192.182 31.9851C193.091 33.7625 193.569 35.7105 193.569 37.6638C193.569 40.4379 192.631 43.1214 190.86 45.4238C189.153 47.6436 186.763 49.3997 183.947 50.5056C183.128 50.8254 182.62 51.5715 182.62 52.4509V54.1671C182.62 54.6894 182.522 55.1691 182.317 55.6354L181.53 57.4795C181.416 57.7459 181.357 58.0311 181.357 58.3189V60.8052C181.357 60.9704 181.307 61.1249 181.222 61.2529H182.195C182.626 61.2529 182.974 60.9038 182.974 60.4721V58.0204C182.974 57.714 183.024 57.4741 183.147 57.1917L183.934 55.3716C184.138 54.9106 184.237 54.4389 184.237 53.9246V52.2324C184.237 51.3637 184.745 50.6282 185.564 50.3138C188.379 49.2238 190.77 47.4917 192.477 45.3039C194.25 43.0308 195.186 40.3846 195.186 37.6505C195.186 35.6359 194.665 33.6319 193.673 31.8119L193.875 31.6173C195.34 30.197 196.853 28.7287 198.007 26.7327C199.307 24.4783 199.977 21.8907 200.108 18.589C200.14 18.064 199.959 17.579 199.584 17.1873H199.581Z" fill="#EE765E"/>
<path d="M159.781 18.3225C159.901 21.3285 160.533 23.6255 161.775 25.5442C162.517 26.6874 163.519 27.732 164.556 28.718C165.014 29.1524 165.734 29.1177 166.152 28.6461L166.16 28.6381C165.939 28.4302 165.732 28.225 165.529 28.0225C164.588 27.0871 163.676 26.1118 163.001 25.0166C161.924 23.2684 161.374 21.1792 161.273 18.4424C161.235 17.4085 160.4 16.5984 159.364 16.5984H159.294C159.124 16.5984 158.962 16.6144 158.805 16.649C159.374 17.0114 159.754 17.619 159.781 18.3225Z" fill="#EE765E"/>
<path d="M178.717 26.1328C170.951 26.1328 164.628 31.2999 164.628 37.6475C164.628 40.2484 165.66 42.7027 167.609 44.7439C169.464 46.6866 172.081 48.115 174.982 48.7652C175.931 48.973 176.593 49.7991 176.593 50.7718V61.2525H180.839V50.7718C180.839 49.7965 181.496 48.9704 182.445 48.7652C185.341 48.115 187.959 46.6866 189.815 44.7439C191.764 42.7027 192.796 40.2484 192.796 37.6475C192.796 31.2972 186.481 26.1328 178.72 26.1328H178.717Z" fill="#FFD934"/>
<path d="M192.772 38.3169C192.785 38.0957 192.796 37.8719 192.796 37.6507C192.796 31.3004 186.481 26.136 178.717 26.136C170.953 26.136 164.628 31.3031 164.628 37.6507C164.628 37.8745 164.636 38.0984 164.652 38.3196H164.662C167.811 38.3196 168.528 36.6141 171.69 36.6141C174.851 36.6141 175.556 38.3169 178.717 38.3169C181.879 38.3169 182.583 36.6141 185.745 36.6141C188.906 36.6141 189.611 38.3169 192.772 38.3169Z" fill="#D65938"/>
<path d="M190.637 38.0054C190.525 40.441 189.507 42.7354 187.667 44.6594C185.811 46.6021 183.195 48.0304 180.297 48.6807C179.35 48.8885 178.691 49.7146 178.691 50.6899V61.1707H176.593V61.2586H180.839V50.7779C180.839 49.8025 181.496 48.9765 182.445 48.7713C185.34 48.121 187.959 46.6927 189.815 44.75C191.597 42.8847 192.61 40.6755 192.772 38.3198C191.911 38.3198 191.233 38.1919 190.637 38.008V38.0054Z" fill="#FDC502"/>
<path d="M192.772 38.3169C192.785 38.0957 192.796 37.8719 192.796 37.6507C192.796 31.3004 186.481 26.136 178.717 26.136C178.592 26.136 178.465 26.136 178.342 26.1413C185.271 26.8555 190.648 31.7081 190.648 37.5681C190.648 37.7173 190.645 37.8639 190.637 38.0104C191.232 38.1943 191.91 38.3222 192.772 38.3222V38.3169Z" fill="#D65938"/>
<path d="M172.525 41.6823C172.905 41.6823 173.221 41.3732 173.221 40.9842C173.221 40.5951 172.905 40.2966 172.525 40.2966C172.145 40.2966 171.828 40.6058 171.828 40.9842C171.828 41.3626 172.145 41.6823 172.525 41.6823Z" fill="#FDC502"/>
<path d="M178.718 41.6823C179.098 41.6823 179.404 41.3732 179.404 40.9842C179.404 40.5951 179.095 40.2966 178.718 40.2966C178.34 40.2966 178.021 40.6058 178.021 40.9842C178.021 41.3626 178.327 41.6823 178.718 41.6823Z" fill="#FDC502"/>
<path d="M184.899 41.6823C185.29 41.6823 185.596 41.3732 185.596 40.9842C185.596 40.5951 185.288 40.2966 184.899 40.2966C184.511 40.2966 184.213 40.6058 184.213 40.9842C184.213 41.3626 184.522 41.6823 184.899 41.6823Z" fill="#FDC502"/>
<path d="M175.694 43.9609C176.085 43.9609 176.391 44.2781 176.391 44.6591C176.391 45.0402 176.082 45.3573 175.694 45.3573C175.306 45.3573 175.008 45.0402 175.008 44.6591C175.008 44.2781 175.317 43.9609 175.694 43.9609ZM181.733 43.9609C182.113 43.9609 182.429 44.2781 182.429 44.6591C182.429 45.0402 182.113 45.3573 181.733 45.3573C181.352 45.3573 181.036 45.0402 181.036 44.6591C181.036 44.2781 181.344 43.9609 181.733 43.9609Z" fill="#FDC502"/>
<path d="M276.66 87.5949C279.866 82.259 282.762 76.6702 285.922 71.2981L285.953 71.2932L285.938 71.277L285.925 71.3013C280.843 72.1541 275.757 72.6556 270.628 73.236C268.129 73.5182 268.497 69.2826 270.868 69.0135C277.129 68.3085 283.302 67.7428 289.509 66.4015C290.95 66.0885 292.62 67.7654 291.518 69.4949C287.369 76.0141 283.88 83.0657 279.887 89.7098C278.55 91.9387 275.211 90.0148 276.66 87.6011L276.66 87.5949ZM275.653 81.0768C265.563 86.2543 255.129 89.6451 244.131 88.5109C233.084 87.3714 221.781 82.7086 213.233 74.3996C211.375 72.5934 214.364 69.7188 216.09 71.3981C224.06 79.1441 234.739 83.2947 245.006 84.3565C255.041 85.3927 264.695 82.1572 273.885 77.4377C276.091 76.3066 277.968 79.8884 275.652 81.0799L275.653 81.0768Z" fill="white"/>
</svg>
