<svg width="31" height="32" viewBox="0 0 31 32" fill="none" xmlns="http://www.w3.org/2000/svg">
<path d="M19.7764 21.7648L25.7497 23.4295C26.5331 23.658 27.088 24.4087 26.9901 25.2901C26.8596 26.8242 26.3046 28.1298 25.3254 29.1091C21.7022 32.7323 14.717 31.5245 7.14419 23.9191C-0.428595 16.3137 -1.66897 9.26316 1.95422 5.67261C2.93346 4.69337 4.23911 4.17111 5.77326 4.00791C6.58929 3.90998 7.40532 4.46489 7.63381 5.24828L9.29852 11.2216C9.49437 11.9071 9.23324 12.6252 8.71098 13.0496L6.85042 14.5184C6.32816 14.9101 6.26288 15.6282 6.58929 16.1505C7.56853 17.6193 8.87418 19.1208 10.4083 20.655C11.9425 22.1891 13.444 23.4295 14.9128 24.474C15.4351 24.8331 16.1206 24.7352 16.5449 24.2129L18.0138 22.3523C18.3728 21.7974 19.0909 21.5689 19.7764 21.7648Z" fill="white"/>
<path d="M21.5059 17.5211C21.4406 17.5211 21.3753 17.5211 21.31 17.4885C20.8531 17.3906 20.5593 16.9336 20.6572 16.4766C21.0489 14.7466 20.5266 12.984 19.2536 11.711C18.0133 10.4706 16.218 9.94833 14.488 10.3074C14.031 10.4053 13.574 10.1115 13.4761 9.65456C13.3782 9.19758 13.672 8.7406 14.1289 8.64268C16.4138 8.15306 18.764 8.83853 20.4287 10.5032C22.0934 12.1679 22.7789 14.5181 22.2893 16.803C22.224 17.2273 21.8976 17.5211 21.5059 17.5211Z" fill="white"/>
<path d="M25.6845 18.4017C25.6192 18.4017 25.5539 18.4017 25.5213 18.3691C25.0643 18.2712 24.7705 17.8142 24.8685 17.3572C25.5539 14.191 24.6073 10.9595 22.3224 8.67461C20.0375 6.38972 16.8061 5.44312 13.6398 6.12859C13.1829 6.22651 12.7259 5.93274 12.628 5.47576C12.53 5.01878 12.8238 4.5618 13.2808 4.46388C17.0019 3.64785 20.8209 4.79029 23.4975 7.46688C26.1741 10.1435 27.3166 13.9625 26.5005 17.6836C26.4026 18.1406 26.0435 18.4017 25.6845 18.4017Z" fill="white"/>
<path d="M29.8303 19.3148C29.765 19.3148 29.6998 19.3148 29.6671 19.2822C29.2101 19.1843 28.9164 18.7273 29.0143 18.2703C29.9935 13.6679 28.6226 8.96754 25.3258 5.67077C22.029 2.40664 17.2961 1.00306 12.7263 2.01494C12.2693 2.11287 11.8123 1.81909 11.7144 1.36211C11.6165 0.905136 11.9102 0.448157 12.3672 0.350233C17.5245 -0.759572 22.8124 0.807212 26.5009 4.49568C30.222 8.21679 31.7562 13.5047 30.6464 18.6294C30.5811 19.0537 30.222 19.3148 29.8303 19.3148Z" fill="white"/>
</svg>
